<?xml version="1.0" encoding="utf-8" standalone="no"?>
<!DOCTYPE svg PUBLIC "-//W3C//DTD SVG 1.1//EN"
  "http://www.w3.org/Graphics/SVG/1.1/DTD/svg11.dtd">
<!-- Created with matplotlib (https://matplotlib.org/) -->
<svg height="276.314375pt" version="1.1" viewBox="0 0 392.14375 276.314375" width="392.14375pt" xmlns="http://www.w3.org/2000/svg" xmlns:xlink="http://www.w3.org/1999/xlink">
 <defs>
  <style type="text/css">
*{stroke-linecap:butt;stroke-linejoin:round;}
  </style>
 </defs>
 <g id="figure_1">
  <g id="patch_1">
   <path d="M 0 276.314375 
L 392.14375 276.314375 
L 392.14375 0 
L 0 0 
z
" style="fill:none;"/>
  </g>
  <g id="axes_1">
   <g id="patch_2">
    <path d="M 50.14375 239.758125 
L 384.94375 239.758125 
L 384.94375 22.318125 
L 50.14375 22.318125 
z
" style="fill:#ffffff;"/>
   </g>
   <g id="patch_3">
    <path clip-path="url(#p5372c25793)" d="M 141.452841 239.758125 
L 146.525568 239.758125 
L 146.525568 230.77068 
L 141.452841 230.77068 
z
" style="fill:#1f77b4;opacity:0.85;"/>
   </g>
   <g id="patch_4">
    <path clip-path="url(#p5372c25793)" d="M 146.525568 239.758125 
L 151.598295 239.758125 
L 151.598295 197.067761 
L 146.525568 197.067761 
z
" style="fill:#1f77b4;opacity:0.85;"/>
   </g>
   <g id="patch_5">
    <path clip-path="url(#p5372c25793)" d="M 151.598295 239.758125 
L 156.671023 239.758125 
L 156.671023 122.921339 
L 151.598295 122.921339 
z
" style="fill:#1f77b4;opacity:0.85;"/>
   </g>
   <g id="patch_6">
    <path clip-path="url(#p5372c25793)" d="M 156.671023 239.758125 
L 161.74375 239.758125 
L 161.74375 35.293749 
L 156.671023 35.293749 
z
" style="fill:#1f77b4;opacity:0.85;"/>
   </g>
   <g id="patch_7">
    <path clip-path="url(#p5372c25793)" d="M 161.74375 239.758125 
L 166.816477 239.758125 
L 166.816477 32.672411 
L 161.74375 32.672411 
z
" style="fill:#1f77b4;opacity:0.85;"/>
   </g>
   <g id="patch_8">
    <path clip-path="url(#p5372c25793)" d="M 166.816477 239.758125 
L 171.889205 239.758125 
L 171.889205 43.906717 
L 166.816477 43.906717 
z
" style="fill:#1f77b4;opacity:0.85;"/>
   </g>
   <g id="patch_9">
    <path clip-path="url(#p5372c25793)" d="M 171.889205 239.758125 
L 176.961932 239.758125 
L 176.961932 51.645906 
L 171.889205 51.645906 
z
" style="fill:#1f77b4;opacity:0.85;"/>
   </g>
   <g id="patch_10">
    <path clip-path="url(#p5372c25793)" d="M 176.961932 239.758125 
L 182.034659 239.758125 
L 182.034659 64.627771 
L 176.961932 64.627771 
z
" style="fill:#1f77b4;opacity:0.85;"/>
   </g>
   <g id="patch_11">
    <path clip-path="url(#p5372c25793)" d="M 182.034659 239.758125 
L 187.107386 239.758125 
L 187.107386 97.581736 
L 182.034659 97.581736 
z
" style="fill:#1f77b4;opacity:0.85;"/>
   </g>
   <g id="patch_12">
    <path clip-path="url(#p5372c25793)" d="M 187.107386 239.758125 
L 192.180114 239.758125 
L 192.180114 119.051744 
L 187.107386 119.051744 
z
" style="fill:#1f77b4;opacity:0.85;"/>
   </g>
   <g id="patch_13">
    <path clip-path="url(#p5372c25793)" d="M 192.180114 239.758125 
L 197.252841 239.758125 
L 197.252841 142.144485 
L 192.180114 142.144485 
z
" style="fill:#1f77b4;opacity:0.85;"/>
   </g>
   <g id="patch_14">
    <path clip-path="url(#p5372c25793)" d="M 197.252841 239.758125 
L 202.325568 239.758125 
L 202.325568 159.99455 
L 197.252841 159.99455 
z
" style="fill:#1f77b4;opacity:0.85;"/>
   </g>
   <g id="patch_15">
    <path clip-path="url(#p5372c25793)" d="M 202.325568 239.758125 
L 207.398295 239.758125 
L 207.398295 165.736529 
L 202.325568 165.736529 
z
" style="fill:#1f77b4;opacity:0.85;"/>
   </g>
   <g id="patch_16">
    <path clip-path="url(#p5372c25793)" d="M 207.398295 239.758125 
L 212.471023 239.758125 
L 212.471023 181.464557 
L 207.398295 181.464557 
z
" style="fill:#1f77b4;opacity:0.85;"/>
   </g>
   <g id="patch_17">
    <path clip-path="url(#p5372c25793)" d="M 212.471023 239.758125 
L 217.54375 239.758125 
L 217.54375 194.571248 
L 212.471023 194.571248 
z
" style="fill:#1f77b4;opacity:0.85;"/>
   </g>
   <g id="patch_18">
    <path clip-path="url(#p5372c25793)" d="M 217.54375 239.758125 
L 222.616477 239.758125 
L 222.616477 207.178636 
L 217.54375 207.178636 
z
" style="fill:#1f77b4;opacity:0.85;"/>
   </g>
   <g id="patch_19">
    <path clip-path="url(#p5372c25793)" d="M 222.616477 239.758125 
L 227.689205 239.758125 
L 227.689205 209.799975 
L 222.616477 209.799975 
z
" style="fill:#1f77b4;opacity:0.85;"/>
   </g>
   <g id="patch_20">
    <path clip-path="url(#p5372c25793)" d="M 227.689205 239.758125 
L 232.761932 239.758125 
L 232.761932 220.160502 
L 227.689205 220.160502 
z
" style="fill:#1f77b4;opacity:0.85;"/>
   </g>
   <g id="patch_21">
    <path clip-path="url(#p5372c25793)" d="M 232.761932 239.758125 
L 237.834659 239.758125 
L 237.834659 227.025911 
L 232.761932 227.025911 
z
" style="fill:#1f77b4;opacity:0.85;"/>
   </g>
   <g id="patch_22">
    <path clip-path="url(#p5372c25793)" d="M 237.834659 239.758125 
L 242.907386 239.758125 
L 242.907386 229.647249 
L 237.834659 229.647249 
z
" style="fill:#1f77b4;opacity:0.85;"/>
   </g>
   <g id="patch_23">
    <path clip-path="url(#p5372c25793)" d="M 242.907386 239.758125 
L 247.980114 239.758125 
L 247.980114 230.521029 
L 242.907386 230.521029 
z
" style="fill:#1f77b4;opacity:0.85;"/>
   </g>
   <g id="patch_24">
    <path clip-path="url(#p5372c25793)" d="M 247.980114 239.758125 
L 253.052841 239.758125 
L 253.052841 227.774865 
L 247.980114 227.774865 
z
" style="fill:#1f77b4;opacity:0.85;"/>
   </g>
   <g id="patch_25">
    <path clip-path="url(#p5372c25793)" d="M 253.052841 239.758125 
L 258.125568 239.758125 
L 258.125568 231.020331 
L 253.052841 231.020331 
z
" style="fill:#1f77b4;opacity:0.85;"/>
   </g>
   <g id="patch_26">
    <path clip-path="url(#p5372c25793)" d="M 258.125568 239.758125 
L 263.198295 239.758125 
L 263.198295 230.895506 
L 258.125568 230.895506 
z
" style="fill:#1f77b4;opacity:0.85;"/>
   </g>
   <g id="patch_27">
    <path clip-path="url(#p5372c25793)" d="M 263.198295 239.758125 
L 268.271023 239.758125 
L 268.271023 233.392018 
L 263.198295 233.392018 
z
" style="fill:#1f77b4;opacity:0.85;"/>
   </g>
   <g id="patch_28">
    <path clip-path="url(#p5372c25793)" d="M 268.271023 239.758125 
L 273.34375 239.758125 
L 273.34375 232.018936 
L 268.271023 232.018936 
z
" style="fill:#1f77b4;opacity:0.85;"/>
   </g>
   <g id="patch_29">
    <path clip-path="url(#p5372c25793)" d="M 273.34375 239.758125 
L 278.416477 239.758125 
L 278.416477 235.514054 
L 273.34375 235.514054 
z
" style="fill:#1f77b4;opacity:0.85;"/>
   </g>
   <g id="patch_30">
    <path clip-path="url(#p5372c25793)" d="M 278.416477 239.758125 
L 283.489205 239.758125 
L 283.489205 236.263007 
L 278.416477 236.263007 
z
" style="fill:#1f77b4;opacity:0.85;"/>
   </g>
   <g id="patch_31">
    <path clip-path="url(#p5372c25793)" d="M 283.489205 239.758125 
L 288.561932 239.758125 
L 288.561932 235.763705 
L 283.489205 235.763705 
z
" style="fill:#1f77b4;opacity:0.85;"/>
   </g>
   <g id="patch_32">
    <path clip-path="url(#p5372c25793)" d="M 288.561932 239.758125 
L 293.634659 239.758125 
L 293.634659 234.016146 
L 288.561932 234.016146 
z
" style="fill:#1f77b4;opacity:0.85;"/>
   </g>
   <g id="matplotlib.axis_1">
    <g id="xtick_1">
     <g id="line2d_1">
      <defs>
       <path d="M 0 0 
L 0 3.5 
" id="mec17b9ea71" style="stroke:#000000;stroke-width:0.8;"/>
      </defs>
      <g>
       <use style="stroke:#000000;stroke-width:0.8;" x="84.966987" xlink:href="#mec17b9ea71" y="239.758125"/>
      </g>
     </g>
     <g id="text_1">
      <!-- −0.5 -->
      <defs>
       <path d="M 10.59375 35.5 
L 73.1875 35.5 
L 73.1875 27.203125 
L 10.59375 27.203125 
z
" id="DejaVuSans-8722"/>
       <path d="M 31.78125 66.40625 
Q 24.171875 66.40625 20.328125 58.90625 
Q 16.5 51.421875 16.5 36.375 
Q 16.5 21.390625 20.328125 13.890625 
Q 24.171875 6.390625 31.78125 6.390625 
Q 39.453125 6.390625 43.28125 13.890625 
Q 47.125 21.390625 47.125 36.375 
Q 47.125 51.421875 43.28125 58.90625 
Q 39.453125 66.40625 31.78125 66.40625 
z
M 31.78125 74.21875 
Q 44.046875 74.21875 50.515625 64.515625 
Q 56.984375 54.828125 56.984375 36.375 
Q 56.984375 17.96875 50.515625 8.265625 
Q 44.046875 -1.421875 31.78125 -1.421875 
Q 19.53125 -1.421875 13.0625 8.265625 
Q 6.59375 17.96875 6.59375 36.375 
Q 6.59375 54.828125 13.0625 64.515625 
Q 19.53125 74.21875 31.78125 74.21875 
z
" id="DejaVuSans-48"/>
       <path d="M 10.6875 12.40625 
L 21 12.40625 
L 21 0 
L 10.6875 0 
z
" id="DejaVuSans-46"/>
       <path d="M 10.796875 72.90625 
L 49.515625 72.90625 
L 49.515625 64.59375 
L 19.828125 64.59375 
L 19.828125 46.734375 
Q 21.96875 47.46875 24.109375 47.828125 
Q 26.265625 48.1875 28.421875 48.1875 
Q 40.625 48.1875 47.75 41.5 
Q 54.890625 34.8125 54.890625 23.390625 
Q 54.890625 11.625 47.5625 5.09375 
Q 40.234375 -1.421875 26.90625 -1.421875 
Q 22.3125 -1.421875 17.546875 -0.640625 
Q 12.796875 0.140625 7.71875 1.703125 
L 7.71875 11.625 
Q 12.109375 9.234375 16.796875 8.0625 
Q 21.484375 6.890625 26.703125 6.890625 
Q 35.15625 6.890625 40.078125 11.328125 
Q 45.015625 15.765625 45.015625 23.390625 
Q 45.015625 31 40.078125 35.4375 
Q 35.15625 39.890625 26.703125 39.890625 
Q 22.75 39.890625 18.8125 39.015625 
Q 14.890625 38.140625 10.796875 36.28125 
z
" id="DejaVuSans-53"/>
      </defs>
      <g transform="translate(72.825581 254.356562)scale(0.1 -0.1)">
       <use xlink:href="#DejaVuSans-8722"/>
       <use x="83.789062" xlink:href="#DejaVuSans-48"/>
       <use x="147.412109" xlink:href="#DejaVuSans-46"/>
       <use x="179.199219" xlink:href="#DejaVuSans-53"/>
      </g>
     </g>
    </g>
    <g id="xtick_2">
     <g id="line2d_2">
      <g>
       <use style="stroke:#000000;stroke-width:0.8;" x="133.494353" xlink:href="#mec17b9ea71" y="239.758125"/>
      </g>
     </g>
     <g id="text_2">
      <!-- 0.0 -->
      <g transform="translate(125.54279 254.356562)scale(0.1 -0.1)">
       <use xlink:href="#DejaVuSans-48"/>
       <use x="63.623047" xlink:href="#DejaVuSans-46"/>
       <use x="95.410156" xlink:href="#DejaVuSans-48"/>
      </g>
     </g>
    </g>
    <g id="xtick_3">
     <g id="line2d_3">
      <g>
       <use style="stroke:#000000;stroke-width:0.8;" x="182.021718" xlink:href="#mec17b9ea71" y="239.758125"/>
      </g>
     </g>
     <g id="text_3">
      <!-- 0.5 -->
      <g transform="translate(174.070156 254.356562)scale(0.1 -0.1)">
       <use xlink:href="#DejaVuSans-48"/>
       <use x="63.623047" xlink:href="#DejaVuSans-46"/>
       <use x="95.410156" xlink:href="#DejaVuSans-53"/>
      </g>
     </g>
    </g>
    <g id="xtick_4">
     <g id="line2d_4">
      <g>
       <use style="stroke:#000000;stroke-width:0.8;" x="230.549084" xlink:href="#mec17b9ea71" y="239.758125"/>
      </g>
     </g>
     <g id="text_4">
      <!-- 1.0 -->
      <defs>
       <path d="M 12.40625 8.296875 
L 28.515625 8.296875 
L 28.515625 63.921875 
L 10.984375 60.40625 
L 10.984375 69.390625 
L 28.421875 72.90625 
L 38.28125 72.90625 
L 38.28125 8.296875 
L 54.390625 8.296875 
L 54.390625 0 
L 12.40625 0 
z
" id="DejaVuSans-49"/>
      </defs>
      <g transform="translate(222.597521 254.356562)scale(0.1 -0.1)">
       <use xlink:href="#DejaVuSans-49"/>
       <use x="63.623047" xlink:href="#DejaVuSans-46"/>
       <use x="95.410156" xlink:href="#DejaVuSans-48"/>
      </g>
     </g>
    </g>
    <g id="xtick_5">
     <g id="line2d_5">
      <g>
       <use style="stroke:#000000;stroke-width:0.8;" x="279.076449" xlink:href="#mec17b9ea71" y="239.758125"/>
      </g>
     </g>
     <g id="text_5">
      <!-- 1.5 -->
      <g transform="translate(271.124887 254.356562)scale(0.1 -0.1)">
       <use xlink:href="#DejaVuSans-49"/>
       <use x="63.623047" xlink:href="#DejaVuSans-46"/>
       <use x="95.410156" xlink:href="#DejaVuSans-53"/>
      </g>
     </g>
    </g>
    <g id="xtick_6">
     <g id="line2d_6">
      <g>
       <use style="stroke:#000000;stroke-width:0.8;" x="327.603815" xlink:href="#mec17b9ea71" y="239.758125"/>
      </g>
     </g>
     <g id="text_6">
      <!-- 2.0 -->
      <defs>
       <path d="M 19.1875 8.296875 
L 53.609375 8.296875 
L 53.609375 0 
L 7.328125 0 
L 7.328125 8.296875 
Q 12.9375 14.109375 22.625 23.890625 
Q 32.328125 33.6875 34.8125 36.53125 
Q 39.546875 41.84375 41.421875 45.53125 
Q 43.3125 49.21875 43.3125 52.78125 
Q 43.3125 58.59375 39.234375 62.25 
Q 35.15625 65.921875 28.609375 65.921875 
Q 23.96875 65.921875 18.8125 64.3125 
Q 13.671875 62.703125 7.8125 59.421875 
L 7.8125 69.390625 
Q 13.765625 71.78125 18.9375 73 
Q 24.125 74.21875 28.421875 74.21875 
Q 39.75 74.21875 46.484375 68.546875 
Q 53.21875 62.890625 53.21875 53.421875 
Q 53.21875 48.921875 51.53125 44.890625 
Q 49.859375 40.875 45.40625 35.40625 
Q 44.1875 33.984375 37.640625 27.21875 
Q 31.109375 20.453125 19.1875 8.296875 
z
" id="DejaVuSans-50"/>
      </defs>
      <g transform="translate(319.652252 254.356562)scale(0.1 -0.1)">
       <use xlink:href="#DejaVuSans-50"/>
       <use x="63.623047" xlink:href="#DejaVuSans-46"/>
       <use x="95.410156" xlink:href="#DejaVuSans-48"/>
      </g>
     </g>
    </g>
    <g id="xtick_7">
     <g id="line2d_7">
      <g>
       <use style="stroke:#000000;stroke-width:0.8;" x="376.13118" xlink:href="#mec17b9ea71" y="239.758125"/>
      </g>
     </g>
     <g id="text_7">
      <!-- 2.5 -->
      <g transform="translate(368.179618 254.356562)scale(0.1 -0.1)">
       <use xlink:href="#DejaVuSans-50"/>
       <use x="63.623047" xlink:href="#DejaVuSans-46"/>
       <use x="95.410156" xlink:href="#DejaVuSans-53"/>
      </g>
     </g>
    </g>
    <g id="text_8">
     <!-- 1e6 -->
     <defs>
      <path d="M 56.203125 29.59375 
L 56.203125 25.203125 
L 14.890625 25.203125 
Q 15.484375 15.921875 20.484375 11.0625 
Q 25.484375 6.203125 34.421875 6.203125 
Q 39.59375 6.203125 44.453125 7.46875 
Q 49.3125 8.734375 54.109375 11.28125 
L 54.109375 2.78125 
Q 49.265625 0.734375 44.1875 -0.34375 
Q 39.109375 -1.421875 33.890625 -1.421875 
Q 20.796875 -1.421875 13.15625 6.1875 
Q 5.515625 13.8125 5.515625 26.8125 
Q 5.515625 40.234375 12.765625 48.109375 
Q 20.015625 56 32.328125 56 
Q 43.359375 56 49.78125 48.890625 
Q 56.203125 41.796875 56.203125 29.59375 
z
M 47.21875 32.234375 
Q 47.125 39.59375 43.09375 43.984375 
Q 39.0625 48.390625 32.421875 48.390625 
Q 24.90625 48.390625 20.390625 44.140625 
Q 15.875 39.890625 15.1875 32.171875 
z
" id="DejaVuSans-101"/>
      <path d="M 33.015625 40.375 
Q 26.375 40.375 22.484375 35.828125 
Q 18.609375 31.296875 18.609375 23.390625 
Q 18.609375 15.53125 22.484375 10.953125 
Q 26.375 6.390625 33.015625 6.390625 
Q 39.65625 6.390625 43.53125 10.953125 
Q 47.40625 15.53125 47.40625 23.390625 
Q 47.40625 31.296875 43.53125 35.828125 
Q 39.65625 40.375 33.015625 40.375 
z
M 52.59375 71.296875 
L 52.59375 62.3125 
Q 48.875 64.0625 45.09375 64.984375 
Q 41.3125 65.921875 37.59375 65.921875 
Q 27.828125 65.921875 22.671875 59.328125 
Q 17.53125 52.734375 16.796875 39.40625 
Q 19.671875 43.65625 24.015625 45.921875 
Q 28.375 48.1875 33.59375 48.1875 
Q 44.578125 48.1875 50.953125 41.515625 
Q 57.328125 34.859375 57.328125 23.390625 
Q 57.328125 12.15625 50.6875 5.359375 
Q 44.046875 -1.421875 33.015625 -1.421875 
Q 20.359375 -1.421875 13.671875 8.265625 
Q 6.984375 17.96875 6.984375 36.375 
Q 6.984375 53.65625 15.1875 63.9375 
Q 23.390625 74.21875 37.203125 74.21875 
Q 40.921875 74.21875 44.703125 73.484375 
Q 48.484375 72.75 52.59375 71.296875 
z
" id="DejaVuSans-54"/>
     </defs>
     <g transform="translate(366.065625 267.034687)scale(0.1 -0.1)">
      <use xlink:href="#DejaVuSans-49"/>
      <use x="63.623047" xlink:href="#DejaVuSans-101"/>
      <use x="125.146484" xlink:href="#DejaVuSans-54"/>
     </g>
    </g>
   </g>
   <g id="matplotlib.axis_2">
    <g id="ytick_1">
     <g id="line2d_8">
      <defs>
       <path d="M 0 0 
L -3.5 0 
" id="m37909d51bc" style="stroke:#000000;stroke-width:0.8;"/>
      </defs>
      <g>
       <use style="stroke:#000000;stroke-width:0.8;" x="50.14375" xlink:href="#m37909d51bc" y="239.758125"/>
      </g>
     </g>
     <g id="text_9">
      <!-- 0.00 -->
      <g transform="translate(20.878125 243.557344)scale(0.1 -0.1)">
       <use xlink:href="#DejaVuSans-48"/>
       <use x="63.623047" xlink:href="#DejaVuSans-46"/>
       <use x="95.410156" xlink:href="#DejaVuSans-48"/>
       <use x="159.033203" xlink:href="#DejaVuSans-48"/>
      </g>
     </g>
    </g>
    <g id="ytick_2">
     <g id="line2d_9">
      <g>
       <use style="stroke:#000000;stroke-width:0.8;" x="50.14375" xlink:href="#m37909d51bc" y="214.509396"/>
      </g>
     </g>
     <g id="text_10">
      <!-- 0.25 -->
      <g transform="translate(20.878125 218.308615)scale(0.1 -0.1)">
       <use xlink:href="#DejaVuSans-48"/>
       <use x="63.623047" xlink:href="#DejaVuSans-46"/>
       <use x="95.410156" xlink:href="#DejaVuSans-50"/>
       <use x="159.033203" xlink:href="#DejaVuSans-53"/>
      </g>
     </g>
    </g>
    <g id="ytick_3">
     <g id="line2d_10">
      <g>
       <use style="stroke:#000000;stroke-width:0.8;" x="50.14375" xlink:href="#m37909d51bc" y="189.260667"/>
      </g>
     </g>
     <g id="text_11">
      <!-- 0.50 -->
      <g transform="translate(20.878125 193.059886)scale(0.1 -0.1)">
       <use xlink:href="#DejaVuSans-48"/>
       <use x="63.623047" xlink:href="#DejaVuSans-46"/>
       <use x="95.410156" xlink:href="#DejaVuSans-53"/>
       <use x="159.033203" xlink:href="#DejaVuSans-48"/>
      </g>
     </g>
    </g>
    <g id="ytick_4">
     <g id="line2d_11">
      <g>
       <use style="stroke:#000000;stroke-width:0.8;" x="50.14375" xlink:href="#m37909d51bc" y="164.011938"/>
      </g>
     </g>
     <g id="text_12">
      <!-- 0.75 -->
      <defs>
       <path d="M 8.203125 72.90625 
L 55.078125 72.90625 
L 55.078125 68.703125 
L 28.609375 0 
L 18.3125 0 
L 43.21875 64.59375 
L 8.203125 64.59375 
z
" id="DejaVuSans-55"/>
      </defs>
      <g transform="translate(20.878125 167.811156)scale(0.1 -0.1)">
       <use xlink:href="#DejaVuSans-48"/>
       <use x="63.623047" xlink:href="#DejaVuSans-46"/>
       <use x="95.410156" xlink:href="#DejaVuSans-55"/>
       <use x="159.033203" xlink:href="#DejaVuSans-53"/>
      </g>
     </g>
    </g>
    <g id="ytick_5">
     <g id="line2d_12">
      <g>
       <use style="stroke:#000000;stroke-width:0.8;" x="50.14375" xlink:href="#m37909d51bc" y="138.763209"/>
      </g>
     </g>
     <g id="text_13">
      <!-- 1.00 -->
      <g transform="translate(20.878125 142.562427)scale(0.1 -0.1)">
       <use xlink:href="#DejaVuSans-49"/>
       <use x="63.623047" xlink:href="#DejaVuSans-46"/>
       <use x="95.410156" xlink:href="#DejaVuSans-48"/>
       <use x="159.033203" xlink:href="#DejaVuSans-48"/>
      </g>
     </g>
    </g>
    <g id="ytick_6">
     <g id="line2d_13">
      <g>
       <use style="stroke:#000000;stroke-width:0.8;" x="50.14375" xlink:href="#m37909d51bc" y="113.514479"/>
      </g>
     </g>
     <g id="text_14">
      <!-- 1.25 -->
      <g transform="translate(20.878125 117.313698)scale(0.1 -0.1)">
       <use xlink:href="#DejaVuSans-49"/>
       <use x="63.623047" xlink:href="#DejaVuSans-46"/>
       <use x="95.410156" xlink:href="#DejaVuSans-50"/>
       <use x="159.033203" xlink:href="#DejaVuSans-53"/>
      </g>
     </g>
    </g>
    <g id="ytick_7">
     <g id="line2d_14">
      <g>
       <use style="stroke:#000000;stroke-width:0.8;" x="50.14375" xlink:href="#m37909d51bc" y="88.26575"/>
      </g>
     </g>
     <g id="text_15">
      <!-- 1.50 -->
      <g transform="translate(20.878125 92.064969)scale(0.1 -0.1)">
       <use xlink:href="#DejaVuSans-49"/>
       <use x="63.623047" xlink:href="#DejaVuSans-46"/>
       <use x="95.410156" xlink:href="#DejaVuSans-53"/>
       <use x="159.033203" xlink:href="#DejaVuSans-48"/>
      </g>
     </g>
    </g>
    <g id="ytick_8">
     <g id="line2d_15">
      <g>
       <use style="stroke:#000000;stroke-width:0.8;" x="50.14375" xlink:href="#m37909d51bc" y="63.017021"/>
      </g>
     </g>
     <g id="text_16">
      <!-- 1.75 -->
      <g transform="translate(20.878125 66.81624)scale(0.1 -0.1)">
       <use xlink:href="#DejaVuSans-49"/>
       <use x="63.623047" xlink:href="#DejaVuSans-46"/>
       <use x="95.410156" xlink:href="#DejaVuSans-55"/>
       <use x="159.033203" xlink:href="#DejaVuSans-53"/>
      </g>
     </g>
    </g>
    <g id="ytick_9">
     <g id="line2d_16">
      <g>
       <use style="stroke:#000000;stroke-width:0.8;" x="50.14375" xlink:href="#m37909d51bc" y="37.768292"/>
      </g>
     </g>
     <g id="text_17">
      <!-- 2.00 -->
      <g transform="translate(20.878125 41.567511)scale(0.1 -0.1)">
       <use xlink:href="#DejaVuSans-50"/>
       <use x="63.623047" xlink:href="#DejaVuSans-46"/>
       <use x="95.410156" xlink:href="#DejaVuSans-48"/>
       <use x="159.033203" xlink:href="#DejaVuSans-48"/>
      </g>
     </g>
    </g>
    <g id="text_18">
     <!-- Density -->
     <defs>
      <path d="M 19.671875 64.796875 
L 19.671875 8.109375 
L 31.59375 8.109375 
Q 46.6875 8.109375 53.6875 14.9375 
Q 60.6875 21.78125 60.6875 36.53125 
Q 60.6875 51.171875 53.6875 57.984375 
Q 46.6875 64.796875 31.59375 64.796875 
z
M 9.8125 72.90625 
L 30.078125 72.90625 
Q 51.265625 72.90625 61.171875 64.09375 
Q 71.09375 55.28125 71.09375 36.53125 
Q 71.09375 17.671875 61.125 8.828125 
Q 51.171875 0 30.078125 0 
L 9.8125 0 
z
" id="DejaVuSans-68"/>
      <path d="M 54.890625 33.015625 
L 54.890625 0 
L 45.90625 0 
L 45.90625 32.71875 
Q 45.90625 40.484375 42.875 44.328125 
Q 39.84375 48.1875 33.796875 48.1875 
Q 26.515625 48.1875 22.3125 43.546875 
Q 18.109375 38.921875 18.109375 30.90625 
L 18.109375 0 
L 9.078125 0 
L 9.078125 54.6875 
L 18.109375 54.6875 
L 18.109375 46.1875 
Q 21.34375 51.125 25.703125 53.5625 
Q 30.078125 56 35.796875 56 
Q 45.21875 56 50.046875 50.171875 
Q 54.890625 44.34375 54.890625 33.015625 
z
" id="DejaVuSans-110"/>
      <path d="M 44.28125 53.078125 
L 44.28125 44.578125 
Q 40.484375 46.53125 36.375 47.5 
Q 32.28125 48.484375 27.875 48.484375 
Q 21.1875 48.484375 17.84375 46.4375 
Q 14.5 44.390625 14.5 40.28125 
Q 14.5 37.15625 16.890625 35.375 
Q 19.28125 33.59375 26.515625 31.984375 
L 29.59375 31.296875 
Q 39.15625 29.25 43.1875 25.515625 
Q 47.21875 21.78125 47.21875 15.09375 
Q 47.21875 7.46875 41.1875 3.015625 
Q 35.15625 -1.421875 24.609375 -1.421875 
Q 20.21875 -1.421875 15.453125 -0.5625 
Q 10.6875 0.296875 5.421875 2 
L 5.421875 11.28125 
Q 10.40625 8.6875 15.234375 7.390625 
Q 20.0625 6.109375 24.8125 6.109375 
Q 31.15625 6.109375 34.5625 8.28125 
Q 37.984375 10.453125 37.984375 14.40625 
Q 37.984375 18.0625 35.515625 20.015625 
Q 33.0625 21.96875 24.703125 23.78125 
L 21.578125 24.515625 
Q 13.234375 26.265625 9.515625 29.90625 
Q 5.8125 33.546875 5.8125 39.890625 
Q 5.8125 47.609375 11.28125 51.796875 
Q 16.75 56 26.8125 56 
Q 31.78125 56 36.171875 55.265625 
Q 40.578125 54.546875 44.28125 53.078125 
z
" id="DejaVuSans-115"/>
      <path d="M 9.421875 54.6875 
L 18.40625 54.6875 
L 18.40625 0 
L 9.421875 0 
z
M 9.421875 75.984375 
L 18.40625 75.984375 
L 18.40625 64.59375 
L 9.421875 64.59375 
z
" id="DejaVuSans-105"/>
      <path d="M 18.3125 70.21875 
L 18.3125 54.6875 
L 36.8125 54.6875 
L 36.8125 47.703125 
L 18.3125 47.703125 
L 18.3125 18.015625 
Q 18.3125 11.328125 20.140625 9.421875 
Q 21.96875 7.515625 27.59375 7.515625 
L 36.8125 7.515625 
L 36.8125 0 
L 27.59375 0 
Q 17.1875 0 13.234375 3.875 
Q 9.28125 7.765625 9.28125 18.015625 
L 9.28125 47.703125 
L 2.6875 47.703125 
L 2.6875 54.6875 
L 9.28125 54.6875 
L 9.28125 70.21875 
z
" id="DejaVuSans-116"/>
      <path d="M 32.171875 -5.078125 
Q 28.375 -14.84375 24.75 -17.8125 
Q 21.140625 -20.796875 15.09375 -20.796875 
L 7.90625 -20.796875 
L 7.90625 -13.28125 
L 13.1875 -13.28125 
Q 16.890625 -13.28125 18.9375 -11.515625 
Q 21 -9.765625 23.484375 -3.21875 
L 25.09375 0.875 
L 2.984375 54.6875 
L 12.5 54.6875 
L 29.59375 11.921875 
L 46.6875 54.6875 
L 56.203125 54.6875 
z
" id="DejaVuSans-121"/>
     </defs>
     <g transform="translate(14.798438 150.046719)rotate(-90)scale(0.1 -0.1)">
      <use xlink:href="#DejaVuSans-68"/>
      <use x="77.001953" xlink:href="#DejaVuSans-101"/>
      <use x="138.525391" xlink:href="#DejaVuSans-110"/>
      <use x="201.904297" xlink:href="#DejaVuSans-115"/>
      <use x="254.003906" xlink:href="#DejaVuSans-105"/>
      <use x="281.787109" xlink:href="#DejaVuSans-116"/>
      <use x="320.996094" xlink:href="#DejaVuSans-121"/>
     </g>
    </g>
    <g id="text_19">
     <!-- 1e−6 -->
     <g transform="translate(50.14375 19.318125)scale(0.1 -0.1)">
      <use xlink:href="#DejaVuSans-49"/>
      <use x="63.623047" xlink:href="#DejaVuSans-101"/>
      <use x="125.146484" xlink:href="#DejaVuSans-8722"/>
      <use x="208.935547" xlink:href="#DejaVuSans-54"/>
     </g>
    </g>
   </g>
   <g id="line2d_17">
    <path clip-path="url(#p5372c25793)" d="M 65.361932 239.758125 
L 133.302964 239.653249 
L 135.130974 239.410436 
L 136.349647 239.061003 
L 137.56832 238.461279 
L 138.482325 237.781821 
L 139.39633 236.84587 
L 140.310335 235.591107 
L 141.22434 233.944462 
L 142.138345 231.81885 
L 143.05235 229.110941 
L 143.966354 225.70184 
L 144.880359 221.462117 
L 145.794364 216.261369 
L 146.708369 209.981159 
L 147.927042 199.774639 
L 149.145716 187.38757 
L 150.669057 168.965208 
L 152.497067 143.411632 
L 156.762423 81.838215 
L 157.981096 67.531727 
L 159.19977 55.820077 
L 160.113775 48.837951 
L 161.027779 43.359273 
L 161.941784 39.283074 
L 162.551121 37.282857 
L 163.160458 35.811988 
L 163.769794 34.833936 
L 164.379131 34.31357 
L 164.988467 34.215723 
L 165.597804 34.503013 
L 166.207141 35.133631 
L 166.816477 36.059846 
L 167.730482 37.884334 
L 169.253824 41.595058 
L 172.300507 49.092333 
L 174.128517 53.647252 
L 175.34719 57.34553 
L 176.565863 61.865749 
L 178.089205 68.554977 
L 181.135888 82.36882 
L 182.659229 88.066351 
L 187.229254 103.87669 
L 188.752595 110.751132 
L 191.189942 123.186146 
L 193.627288 135.419288 
L 195.455298 143.462767 
L 196.978639 149.206793 
L 198.501981 154.091364 
L 200.025322 158.229343 
L 201.853332 162.471137 
L 208.556035 177.08575 
L 210.993381 183.427633 
L 215.258738 194.591088 
L 217.086748 198.771705 
L 218.914757 202.393853 
L 220.742767 205.467914 
L 222.875445 208.564153 
L 227.44547 215.021804 
L 232.929499 223.297875 
L 234.148173 224.645132 
L 235.671514 225.962199 
L 237.499524 227.174736 
L 239.93687 228.492112 
L 242.069549 229.394202 
L 243.59289 229.821497 
L 245.116232 230.044758 
L 246.944241 230.08154 
L 253.037607 229.930532 
L 255.779622 230.298598 
L 264.919671 231.903703 
L 268.575691 232.676879 
L 270.708369 233.379871 
L 274.669057 234.756351 
L 277.106404 235.29105 
L 279.848418 235.664707 
L 281.981096 235.759429 
L 284.113775 235.627942 
L 287.160458 235.420879 
L 288.683799 235.555983 
L 290.207141 235.923981 
L 292.03515 236.622791 
L 297.51918 238.95899 
L 299.34719 239.394934 
L 301.479868 239.646288 
L 304.526551 239.745784 
L 317.931956 239.758125 
L 369.725568 239.758125 
L 369.725568 239.758125 
" style="fill:none;stroke:#ff7f0e;stroke-linecap:square;stroke-width:1.5;"/>
   </g>
   <g id="patch_33">
    <path d="M 50.14375 239.758125 
L 50.14375 22.318125 
" style="fill:none;stroke:#000000;stroke-linecap:square;stroke-linejoin:miter;stroke-width:0.8;"/>
   </g>
   <g id="patch_34">
    <path d="M 384.94375 239.758125 
L 384.94375 22.318125 
" style="fill:none;stroke:#000000;stroke-linecap:square;stroke-linejoin:miter;stroke-width:0.8;"/>
   </g>
   <g id="patch_35">
    <path d="M 50.14375 239.758125 
L 384.94375 239.758125 
" style="fill:none;stroke:#000000;stroke-linecap:square;stroke-linejoin:miter;stroke-width:0.8;"/>
   </g>
   <g id="patch_36">
    <path d="M 50.14375 22.318125 
L 384.94375 22.318125 
" style="fill:none;stroke:#000000;stroke-linecap:square;stroke-linejoin:miter;stroke-width:0.8;"/>
   </g>
   <g id="text_20">
    <!-- price -->
    <defs>
     <path d="M 18.109375 8.203125 
L 18.109375 -20.796875 
L 9.078125 -20.796875 
L 9.078125 54.6875 
L 18.109375 54.6875 
L 18.109375 46.390625 
Q 20.953125 51.265625 25.265625 53.625 
Q 29.59375 56 35.59375 56 
Q 45.5625 56 51.78125 48.09375 
Q 58.015625 40.1875 58.015625 27.296875 
Q 58.015625 14.40625 51.78125 6.484375 
Q 45.5625 -1.421875 35.59375 -1.421875 
Q 29.59375 -1.421875 25.265625 0.953125 
Q 20.953125 3.328125 18.109375 8.203125 
z
M 48.6875 27.296875 
Q 48.6875 37.203125 44.609375 42.84375 
Q 40.53125 48.484375 33.40625 48.484375 
Q 26.265625 48.484375 22.1875 42.84375 
Q 18.109375 37.203125 18.109375 27.296875 
Q 18.109375 17.390625 22.1875 11.75 
Q 26.265625 6.109375 33.40625 6.109375 
Q 40.53125 6.109375 44.609375 11.75 
Q 48.6875 17.390625 48.6875 27.296875 
z
" id="DejaVuSans-112"/>
     <path d="M 41.109375 46.296875 
Q 39.59375 47.171875 37.8125 47.578125 
Q 36.03125 48 33.890625 48 
Q 26.265625 48 22.1875 43.046875 
Q 18.109375 38.09375 18.109375 28.8125 
L 18.109375 0 
L 9.078125 0 
L 9.078125 54.6875 
L 18.109375 54.6875 
L 18.109375 46.1875 
Q 20.953125 51.171875 25.484375 53.578125 
Q 30.03125 56 36.53125 56 
Q 37.453125 56 38.578125 55.875 
Q 39.703125 55.765625 41.0625 55.515625 
z
" id="DejaVuSans-114"/>
     <path d="M 48.78125 52.59375 
L 48.78125 44.1875 
Q 44.96875 46.296875 41.140625 47.34375 
Q 37.3125 48.390625 33.40625 48.390625 
Q 24.65625 48.390625 19.8125 42.84375 
Q 14.984375 37.3125 14.984375 27.296875 
Q 14.984375 17.28125 19.8125 11.734375 
Q 24.65625 6.203125 33.40625 6.203125 
Q 37.3125 6.203125 41.140625 7.25 
Q 44.96875 8.296875 48.78125 10.40625 
L 48.78125 2.09375 
Q 45.015625 0.34375 40.984375 -0.53125 
Q 36.96875 -1.421875 32.421875 -1.421875 
Q 20.0625 -1.421875 12.78125 6.34375 
Q 5.515625 14.109375 5.515625 27.296875 
Q 5.515625 40.671875 12.859375 48.328125 
Q 20.21875 56 33.015625 56 
Q 37.15625 56 41.109375 55.140625 
Q 45.0625 54.296875 48.78125 52.59375 
z
" id="DejaVuSans-99"/>
    </defs>
    <g transform="translate(202.610313 16.318125)scale(0.12 -0.12)">
     <use xlink:href="#DejaVuSans-112"/>
     <use x="63.476562" xlink:href="#DejaVuSans-114"/>
     <use x="104.589844" xlink:href="#DejaVuSans-105"/>
     <use x="132.373047" xlink:href="#DejaVuSans-99"/>
     <use x="187.353516" xlink:href="#DejaVuSans-101"/>
    </g>
   </g>
   <g id="legend_1">
    <g id="patch_37">
     <path d="M 321.054688 59.674375 
L 377.94375 59.674375 
Q 379.94375 59.674375 379.94375 57.674375 
L 379.94375 29.318125 
Q 379.94375 27.318125 377.94375 27.318125 
L 321.054688 27.318125 
Q 319.054688 27.318125 319.054688 29.318125 
L 319.054688 57.674375 
Q 319.054688 59.674375 321.054688 59.674375 
z
" style="fill:#ffffff;opacity:0.8;stroke:#cccccc;stroke-linejoin:miter;"/>
    </g>
    <g id="line2d_18">
     <path d="M 323.054688 35.416562 
L 343.054688 35.416562 
" style="fill:none;stroke:#ff7f0e;stroke-linecap:square;stroke-width:1.5;"/>
    </g>
    <g id="line2d_19"/>
    <g id="text_21">
     <!-- price -->
     <g transform="translate(351.054688 38.916562)scale(0.1 -0.1)">
      <use xlink:href="#DejaVuSans-112"/>
      <use x="63.476562" xlink:href="#DejaVuSans-114"/>
      <use x="104.589844" xlink:href="#DejaVuSans-105"/>
      <use x="132.373047" xlink:href="#DejaVuSans-99"/>
      <use x="187.353516" xlink:href="#DejaVuSans-101"/>
     </g>
    </g>
    <g id="patch_38">
     <path d="M 323.054688 53.594687 
L 343.054688 53.594687 
L 343.054688 46.594687 
L 323.054688 46.594687 
z
" style="fill:#1f77b4;opacity:0.85;"/>
    </g>
    <g id="text_22">
     <!-- price -->
     <g transform="translate(351.054688 53.594687)scale(0.1 -0.1)">
      <use xlink:href="#DejaVuSans-112"/>
      <use x="63.476562" xlink:href="#DejaVuSans-114"/>
      <use x="104.589844" xlink:href="#DejaVuSans-105"/>
      <use x="132.373047" xlink:href="#DejaVuSans-99"/>
      <use x="187.353516" xlink:href="#DejaVuSans-101"/>
     </g>
    </g>
   </g>
  </g>
 </g>
 <defs>
  <clipPath id="p5372c25793">
   <rect height="217.44" width="334.8" x="50.14375" y="22.318125"/>
  </clipPath>
 </defs>
</svg>
