<?xml version="1.0" encoding="utf-8" standalone="no"?>
<!DOCTYPE svg PUBLIC "-//W3C//DTD SVG 1.1//EN"
  "http://www.w3.org/Graphics/SVG/1.1/DTD/svg11.dtd">
<!-- Created with matplotlib (https://matplotlib.org/) -->
<svg height="262.19625pt" version="1.1" viewBox="0 0 384.620313 262.19625" width="384.620313pt" xmlns="http://www.w3.org/2000/svg" xmlns:xlink="http://www.w3.org/1999/xlink">
 <defs>
  <style type="text/css">
*{stroke-linecap:butt;stroke-linejoin:round;}
  </style>
 </defs>
 <g id="figure_1">
  <g id="patch_1">
   <path d="M 0 262.19625 
L 384.620313 262.19625 
L 384.620313 0 
L 0 0 
z
" style="fill:none;"/>
  </g>
  <g id="axes_1">
   <g id="patch_2">
    <path d="M 42.620313 224.64 
L 377.420313 224.64 
L 377.420313 7.2 
L 42.620313 7.2 
z
" style="fill:#ffffff;"/>
   </g>
   <g id="matplotlib.axis_1">
    <g id="xtick_1">
     <g id="line2d_1">
      <defs>
       <path d="M 0 0 
L 0 3.5 
" id="mc2c4f7d922" style="stroke:#000000;stroke-width:0.8;"/>
      </defs>
      <g>
       <use style="stroke:#000000;stroke-width:0.8;" x="43.643098" xlink:href="#mc2c4f7d922" y="224.64"/>
      </g>
     </g>
     <g id="text_1">
      <!-- −5 -->
      <defs>
       <path d="M 10.59375 35.5 
L 73.1875 35.5 
L 73.1875 27.203125 
L 10.59375 27.203125 
z
" id="DejaVuSans-8722"/>
       <path d="M 10.796875 72.90625 
L 49.515625 72.90625 
L 49.515625 64.59375 
L 19.828125 64.59375 
L 19.828125 46.734375 
Q 21.96875 47.46875 24.109375 47.828125 
Q 26.265625 48.1875 28.421875 48.1875 
Q 40.625 48.1875 47.75 41.5 
Q 54.890625 34.8125 54.890625 23.390625 
Q 54.890625 11.625 47.5625 5.09375 
Q 40.234375 -1.421875 26.90625 -1.421875 
Q 22.3125 -1.421875 17.546875 -0.640625 
Q 12.796875 0.140625 7.71875 1.703125 
L 7.71875 11.625 
Q 12.109375 9.234375 16.796875 8.0625 
Q 21.484375 6.890625 26.703125 6.890625 
Q 35.15625 6.890625 40.078125 11.328125 
Q 45.015625 15.765625 45.015625 23.390625 
Q 45.015625 31 40.078125 35.4375 
Q 35.15625 39.890625 26.703125 39.890625 
Q 22.75 39.890625 18.8125 39.015625 
Q 14.890625 38.140625 10.796875 36.28125 
z
" id="DejaVuSans-53"/>
      </defs>
      <g transform="translate(36.272004 239.238437)scale(0.1 -0.1)">
       <use xlink:href="#DejaVuSans-8722"/>
       <use x="83.789062" xlink:href="#DejaVuSans-53"/>
      </g>
     </g>
    </g>
    <g id="xtick_2">
     <g id="line2d_2">
      <g>
       <use style="stroke:#000000;stroke-width:0.8;" x="83.028587" xlink:href="#mc2c4f7d922" y="224.64"/>
      </g>
     </g>
     <g id="text_2">
      <!-- −4 -->
      <defs>
       <path d="M 37.796875 64.3125 
L 12.890625 25.390625 
L 37.796875 25.390625 
z
M 35.203125 72.90625 
L 47.609375 72.90625 
L 47.609375 25.390625 
L 58.015625 25.390625 
L 58.015625 17.1875 
L 47.609375 17.1875 
L 47.609375 0 
L 37.796875 0 
L 37.796875 17.1875 
L 4.890625 17.1875 
L 4.890625 26.703125 
z
" id="DejaVuSans-52"/>
      </defs>
      <g transform="translate(75.657494 239.238437)scale(0.1 -0.1)">
       <use xlink:href="#DejaVuSans-8722"/>
       <use x="83.789062" xlink:href="#DejaVuSans-52"/>
      </g>
     </g>
    </g>
    <g id="xtick_3">
     <g id="line2d_3">
      <g>
       <use style="stroke:#000000;stroke-width:0.8;" x="122.414076" xlink:href="#mc2c4f7d922" y="224.64"/>
      </g>
     </g>
     <g id="text_3">
      <!-- −3 -->
      <defs>
       <path d="M 40.578125 39.3125 
Q 47.65625 37.796875 51.625 33 
Q 55.609375 28.21875 55.609375 21.1875 
Q 55.609375 10.40625 48.1875 4.484375 
Q 40.765625 -1.421875 27.09375 -1.421875 
Q 22.515625 -1.421875 17.65625 -0.515625 
Q 12.796875 0.390625 7.625 2.203125 
L 7.625 11.71875 
Q 11.71875 9.328125 16.59375 8.109375 
Q 21.484375 6.890625 26.8125 6.890625 
Q 36.078125 6.890625 40.9375 10.546875 
Q 45.796875 14.203125 45.796875 21.1875 
Q 45.796875 27.640625 41.28125 31.265625 
Q 36.765625 34.90625 28.71875 34.90625 
L 20.21875 34.90625 
L 20.21875 43.015625 
L 29.109375 43.015625 
Q 36.375 43.015625 40.234375 45.921875 
Q 44.09375 48.828125 44.09375 54.296875 
Q 44.09375 59.90625 40.109375 62.90625 
Q 36.140625 65.921875 28.71875 65.921875 
Q 24.65625 65.921875 20.015625 65.03125 
Q 15.375 64.15625 9.8125 62.3125 
L 9.8125 71.09375 
Q 15.4375 72.65625 20.34375 73.4375 
Q 25.25 74.21875 29.59375 74.21875 
Q 40.828125 74.21875 47.359375 69.109375 
Q 53.90625 64.015625 53.90625 55.328125 
Q 53.90625 49.265625 50.4375 45.09375 
Q 46.96875 40.921875 40.578125 39.3125 
z
" id="DejaVuSans-51"/>
      </defs>
      <g transform="translate(115.042983 239.238437)scale(0.1 -0.1)">
       <use xlink:href="#DejaVuSans-8722"/>
       <use x="83.789062" xlink:href="#DejaVuSans-51"/>
      </g>
     </g>
    </g>
    <g id="xtick_4">
     <g id="line2d_4">
      <g>
       <use style="stroke:#000000;stroke-width:0.8;" x="161.799565" xlink:href="#mc2c4f7d922" y="224.64"/>
      </g>
     </g>
     <g id="text_4">
      <!-- −2 -->
      <defs>
       <path d="M 19.1875 8.296875 
L 53.609375 8.296875 
L 53.609375 0 
L 7.328125 0 
L 7.328125 8.296875 
Q 12.9375 14.109375 22.625 23.890625 
Q 32.328125 33.6875 34.8125 36.53125 
Q 39.546875 41.84375 41.421875 45.53125 
Q 43.3125 49.21875 43.3125 52.78125 
Q 43.3125 58.59375 39.234375 62.25 
Q 35.15625 65.921875 28.609375 65.921875 
Q 23.96875 65.921875 18.8125 64.3125 
Q 13.671875 62.703125 7.8125 59.421875 
L 7.8125 69.390625 
Q 13.765625 71.78125 18.9375 73 
Q 24.125 74.21875 28.421875 74.21875 
Q 39.75 74.21875 46.484375 68.546875 
Q 53.21875 62.890625 53.21875 53.421875 
Q 53.21875 48.921875 51.53125 44.890625 
Q 49.859375 40.875 45.40625 35.40625 
Q 44.1875 33.984375 37.640625 27.21875 
Q 31.109375 20.453125 19.1875 8.296875 
z
" id="DejaVuSans-50"/>
      </defs>
      <g transform="translate(154.428472 239.238437)scale(0.1 -0.1)">
       <use xlink:href="#DejaVuSans-8722"/>
       <use x="83.789062" xlink:href="#DejaVuSans-50"/>
      </g>
     </g>
    </g>
    <g id="xtick_5">
     <g id="line2d_5">
      <g>
       <use style="stroke:#000000;stroke-width:0.8;" x="201.185055" xlink:href="#mc2c4f7d922" y="224.64"/>
      </g>
     </g>
     <g id="text_5">
      <!-- −1 -->
      <defs>
       <path d="M 12.40625 8.296875 
L 28.515625 8.296875 
L 28.515625 63.921875 
L 10.984375 60.40625 
L 10.984375 69.390625 
L 28.421875 72.90625 
L 38.28125 72.90625 
L 38.28125 8.296875 
L 54.390625 8.296875 
L 54.390625 0 
L 12.40625 0 
z
" id="DejaVuSans-49"/>
      </defs>
      <g transform="translate(193.813961 239.238437)scale(0.1 -0.1)">
       <use xlink:href="#DejaVuSans-8722"/>
       <use x="83.789062" xlink:href="#DejaVuSans-49"/>
      </g>
     </g>
    </g>
    <g id="xtick_6">
     <g id="line2d_6">
      <g>
       <use style="stroke:#000000;stroke-width:0.8;" x="240.570544" xlink:href="#mc2c4f7d922" y="224.64"/>
      </g>
     </g>
     <g id="text_6">
      <!-- 0 -->
      <defs>
       <path d="M 31.78125 66.40625 
Q 24.171875 66.40625 20.328125 58.90625 
Q 16.5 51.421875 16.5 36.375 
Q 16.5 21.390625 20.328125 13.890625 
Q 24.171875 6.390625 31.78125 6.390625 
Q 39.453125 6.390625 43.28125 13.890625 
Q 47.125 21.390625 47.125 36.375 
Q 47.125 51.421875 43.28125 58.90625 
Q 39.453125 66.40625 31.78125 66.40625 
z
M 31.78125 74.21875 
Q 44.046875 74.21875 50.515625 64.515625 
Q 56.984375 54.828125 56.984375 36.375 
Q 56.984375 17.96875 50.515625 8.265625 
Q 44.046875 -1.421875 31.78125 -1.421875 
Q 19.53125 -1.421875 13.0625 8.265625 
Q 6.59375 17.96875 6.59375 36.375 
Q 6.59375 54.828125 13.0625 64.515625 
Q 19.53125 74.21875 31.78125 74.21875 
z
" id="DejaVuSans-48"/>
      </defs>
      <g transform="translate(237.389294 239.238437)scale(0.1 -0.1)">
       <use xlink:href="#DejaVuSans-48"/>
      </g>
     </g>
    </g>
    <g id="xtick_7">
     <g id="line2d_7">
      <g>
       <use style="stroke:#000000;stroke-width:0.8;" x="279.956033" xlink:href="#mc2c4f7d922" y="224.64"/>
      </g>
     </g>
     <g id="text_7">
      <!-- 1 -->
      <g transform="translate(276.774783 239.238437)scale(0.1 -0.1)">
       <use xlink:href="#DejaVuSans-49"/>
      </g>
     </g>
    </g>
    <g id="xtick_8">
     <g id="line2d_8">
      <g>
       <use style="stroke:#000000;stroke-width:0.8;" x="319.341522" xlink:href="#mc2c4f7d922" y="224.64"/>
      </g>
     </g>
     <g id="text_8">
      <!-- 2 -->
      <g transform="translate(316.160272 239.238437)scale(0.1 -0.1)">
       <use xlink:href="#DejaVuSans-50"/>
      </g>
     </g>
    </g>
    <g id="xtick_9">
     <g id="line2d_9">
      <g>
       <use style="stroke:#000000;stroke-width:0.8;" x="358.727011" xlink:href="#mc2c4f7d922" y="224.64"/>
      </g>
     </g>
     <g id="text_9">
      <!-- 3 -->
      <g transform="translate(355.545761 239.238437)scale(0.1 -0.1)">
       <use xlink:href="#DejaVuSans-51"/>
      </g>
     </g>
    </g>
    <g id="text_10">
     <!-- Theoretical Quantiles -->
     <defs>
      <path d="M -0.296875 72.90625 
L 61.375 72.90625 
L 61.375 64.59375 
L 35.5 64.59375 
L 35.5 0 
L 25.59375 0 
L 25.59375 64.59375 
L -0.296875 64.59375 
z
" id="DejaVuSans-84"/>
      <path d="M 54.890625 33.015625 
L 54.890625 0 
L 45.90625 0 
L 45.90625 32.71875 
Q 45.90625 40.484375 42.875 44.328125 
Q 39.84375 48.1875 33.796875 48.1875 
Q 26.515625 48.1875 22.3125 43.546875 
Q 18.109375 38.921875 18.109375 30.90625 
L 18.109375 0 
L 9.078125 0 
L 9.078125 75.984375 
L 18.109375 75.984375 
L 18.109375 46.1875 
Q 21.34375 51.125 25.703125 53.5625 
Q 30.078125 56 35.796875 56 
Q 45.21875 56 50.046875 50.171875 
Q 54.890625 44.34375 54.890625 33.015625 
z
" id="DejaVuSans-104"/>
      <path d="M 56.203125 29.59375 
L 56.203125 25.203125 
L 14.890625 25.203125 
Q 15.484375 15.921875 20.484375 11.0625 
Q 25.484375 6.203125 34.421875 6.203125 
Q 39.59375 6.203125 44.453125 7.46875 
Q 49.3125 8.734375 54.109375 11.28125 
L 54.109375 2.78125 
Q 49.265625 0.734375 44.1875 -0.34375 
Q 39.109375 -1.421875 33.890625 -1.421875 
Q 20.796875 -1.421875 13.15625 6.1875 
Q 5.515625 13.8125 5.515625 26.8125 
Q 5.515625 40.234375 12.765625 48.109375 
Q 20.015625 56 32.328125 56 
Q 43.359375 56 49.78125 48.890625 
Q 56.203125 41.796875 56.203125 29.59375 
z
M 47.21875 32.234375 
Q 47.125 39.59375 43.09375 43.984375 
Q 39.0625 48.390625 32.421875 48.390625 
Q 24.90625 48.390625 20.390625 44.140625 
Q 15.875 39.890625 15.1875 32.171875 
z
" id="DejaVuSans-101"/>
      <path d="M 30.609375 48.390625 
Q 23.390625 48.390625 19.1875 42.75 
Q 14.984375 37.109375 14.984375 27.296875 
Q 14.984375 17.484375 19.15625 11.84375 
Q 23.34375 6.203125 30.609375 6.203125 
Q 37.796875 6.203125 41.984375 11.859375 
Q 46.1875 17.53125 46.1875 27.296875 
Q 46.1875 37.015625 41.984375 42.703125 
Q 37.796875 48.390625 30.609375 48.390625 
z
M 30.609375 56 
Q 42.328125 56 49.015625 48.375 
Q 55.71875 40.765625 55.71875 27.296875 
Q 55.71875 13.875 49.015625 6.21875 
Q 42.328125 -1.421875 30.609375 -1.421875 
Q 18.84375 -1.421875 12.171875 6.21875 
Q 5.515625 13.875 5.515625 27.296875 
Q 5.515625 40.765625 12.171875 48.375 
Q 18.84375 56 30.609375 56 
z
" id="DejaVuSans-111"/>
      <path d="M 41.109375 46.296875 
Q 39.59375 47.171875 37.8125 47.578125 
Q 36.03125 48 33.890625 48 
Q 26.265625 48 22.1875 43.046875 
Q 18.109375 38.09375 18.109375 28.8125 
L 18.109375 0 
L 9.078125 0 
L 9.078125 54.6875 
L 18.109375 54.6875 
L 18.109375 46.1875 
Q 20.953125 51.171875 25.484375 53.578125 
Q 30.03125 56 36.53125 56 
Q 37.453125 56 38.578125 55.875 
Q 39.703125 55.765625 41.0625 55.515625 
z
" id="DejaVuSans-114"/>
      <path d="M 18.3125 70.21875 
L 18.3125 54.6875 
L 36.8125 54.6875 
L 36.8125 47.703125 
L 18.3125 47.703125 
L 18.3125 18.015625 
Q 18.3125 11.328125 20.140625 9.421875 
Q 21.96875 7.515625 27.59375 7.515625 
L 36.8125 7.515625 
L 36.8125 0 
L 27.59375 0 
Q 17.1875 0 13.234375 3.875 
Q 9.28125 7.765625 9.28125 18.015625 
L 9.28125 47.703125 
L 2.6875 47.703125 
L 2.6875 54.6875 
L 9.28125 54.6875 
L 9.28125 70.21875 
z
" id="DejaVuSans-116"/>
      <path d="M 9.421875 54.6875 
L 18.40625 54.6875 
L 18.40625 0 
L 9.421875 0 
z
M 9.421875 75.984375 
L 18.40625 75.984375 
L 18.40625 64.59375 
L 9.421875 64.59375 
z
" id="DejaVuSans-105"/>
      <path d="M 48.78125 52.59375 
L 48.78125 44.1875 
Q 44.96875 46.296875 41.140625 47.34375 
Q 37.3125 48.390625 33.40625 48.390625 
Q 24.65625 48.390625 19.8125 42.84375 
Q 14.984375 37.3125 14.984375 27.296875 
Q 14.984375 17.28125 19.8125 11.734375 
Q 24.65625 6.203125 33.40625 6.203125 
Q 37.3125 6.203125 41.140625 7.25 
Q 44.96875 8.296875 48.78125 10.40625 
L 48.78125 2.09375 
Q 45.015625 0.34375 40.984375 -0.53125 
Q 36.96875 -1.421875 32.421875 -1.421875 
Q 20.0625 -1.421875 12.78125 6.34375 
Q 5.515625 14.109375 5.515625 27.296875 
Q 5.515625 40.671875 12.859375 48.328125 
Q 20.21875 56 33.015625 56 
Q 37.15625 56 41.109375 55.140625 
Q 45.0625 54.296875 48.78125 52.59375 
z
" id="DejaVuSans-99"/>
      <path d="M 34.28125 27.484375 
Q 23.390625 27.484375 19.1875 25 
Q 14.984375 22.515625 14.984375 16.5 
Q 14.984375 11.71875 18.140625 8.90625 
Q 21.296875 6.109375 26.703125 6.109375 
Q 34.1875 6.109375 38.703125 11.40625 
Q 43.21875 16.703125 43.21875 25.484375 
L 43.21875 27.484375 
z
M 52.203125 31.203125 
L 52.203125 0 
L 43.21875 0 
L 43.21875 8.296875 
Q 40.140625 3.328125 35.546875 0.953125 
Q 30.953125 -1.421875 24.3125 -1.421875 
Q 15.921875 -1.421875 10.953125 3.296875 
Q 6 8.015625 6 15.921875 
Q 6 25.140625 12.171875 29.828125 
Q 18.359375 34.515625 30.609375 34.515625 
L 43.21875 34.515625 
L 43.21875 35.40625 
Q 43.21875 41.609375 39.140625 45 
Q 35.0625 48.390625 27.6875 48.390625 
Q 23 48.390625 18.546875 47.265625 
Q 14.109375 46.140625 10.015625 43.890625 
L 10.015625 52.203125 
Q 14.9375 54.109375 19.578125 55.046875 
Q 24.21875 56 28.609375 56 
Q 40.484375 56 46.34375 49.84375 
Q 52.203125 43.703125 52.203125 31.203125 
z
" id="DejaVuSans-97"/>
      <path d="M 9.421875 75.984375 
L 18.40625 75.984375 
L 18.40625 0 
L 9.421875 0 
z
" id="DejaVuSans-108"/>
      <path id="DejaVuSans-32"/>
      <path d="M 39.40625 66.21875 
Q 28.65625 66.21875 22.328125 58.203125 
Q 16.015625 50.203125 16.015625 36.375 
Q 16.015625 22.609375 22.328125 14.59375 
Q 28.65625 6.59375 39.40625 6.59375 
Q 50.140625 6.59375 56.421875 14.59375 
Q 62.703125 22.609375 62.703125 36.375 
Q 62.703125 50.203125 56.421875 58.203125 
Q 50.140625 66.21875 39.40625 66.21875 
z
M 53.21875 1.3125 
L 66.21875 -12.890625 
L 54.296875 -12.890625 
L 43.5 -1.21875 
Q 41.890625 -1.3125 41.03125 -1.359375 
Q 40.1875 -1.421875 39.40625 -1.421875 
Q 24.03125 -1.421875 14.8125 8.859375 
Q 5.609375 19.140625 5.609375 36.375 
Q 5.609375 53.65625 14.8125 63.9375 
Q 24.03125 74.21875 39.40625 74.21875 
Q 54.734375 74.21875 63.90625 63.9375 
Q 73.09375 53.65625 73.09375 36.375 
Q 73.09375 23.6875 67.984375 14.640625 
Q 62.890625 5.609375 53.21875 1.3125 
z
" id="DejaVuSans-81"/>
      <path d="M 8.5 21.578125 
L 8.5 54.6875 
L 17.484375 54.6875 
L 17.484375 21.921875 
Q 17.484375 14.15625 20.5 10.265625 
Q 23.53125 6.390625 29.59375 6.390625 
Q 36.859375 6.390625 41.078125 11.03125 
Q 45.3125 15.671875 45.3125 23.6875 
L 45.3125 54.6875 
L 54.296875 54.6875 
L 54.296875 0 
L 45.3125 0 
L 45.3125 8.40625 
Q 42.046875 3.421875 37.71875 1 
Q 33.40625 -1.421875 27.6875 -1.421875 
Q 18.265625 -1.421875 13.375 4.4375 
Q 8.5 10.296875 8.5 21.578125 
z
M 31.109375 56 
z
" id="DejaVuSans-117"/>
      <path d="M 54.890625 33.015625 
L 54.890625 0 
L 45.90625 0 
L 45.90625 32.71875 
Q 45.90625 40.484375 42.875 44.328125 
Q 39.84375 48.1875 33.796875 48.1875 
Q 26.515625 48.1875 22.3125 43.546875 
Q 18.109375 38.921875 18.109375 30.90625 
L 18.109375 0 
L 9.078125 0 
L 9.078125 54.6875 
L 18.109375 54.6875 
L 18.109375 46.1875 
Q 21.34375 51.125 25.703125 53.5625 
Q 30.078125 56 35.796875 56 
Q 45.21875 56 50.046875 50.171875 
Q 54.890625 44.34375 54.890625 33.015625 
z
" id="DejaVuSans-110"/>
      <path d="M 44.28125 53.078125 
L 44.28125 44.578125 
Q 40.484375 46.53125 36.375 47.5 
Q 32.28125 48.484375 27.875 48.484375 
Q 21.1875 48.484375 17.84375 46.4375 
Q 14.5 44.390625 14.5 40.28125 
Q 14.5 37.15625 16.890625 35.375 
Q 19.28125 33.59375 26.515625 31.984375 
L 29.59375 31.296875 
Q 39.15625 29.25 43.1875 25.515625 
Q 47.21875 21.78125 47.21875 15.09375 
Q 47.21875 7.46875 41.1875 3.015625 
Q 35.15625 -1.421875 24.609375 -1.421875 
Q 20.21875 -1.421875 15.453125 -0.5625 
Q 10.6875 0.296875 5.421875 2 
L 5.421875 11.28125 
Q 10.40625 8.6875 15.234375 7.390625 
Q 20.0625 6.109375 24.8125 6.109375 
Q 31.15625 6.109375 34.5625 8.28125 
Q 37.984375 10.453125 37.984375 14.40625 
Q 37.984375 18.0625 35.515625 20.015625 
Q 33.0625 21.96875 24.703125 23.78125 
L 21.578125 24.515625 
Q 13.234375 26.265625 9.515625 29.90625 
Q 5.8125 33.546875 5.8125 39.890625 
Q 5.8125 47.609375 11.28125 51.796875 
Q 16.75 56 26.8125 56 
Q 31.78125 56 36.171875 55.265625 
Q 40.578125 54.546875 44.28125 53.078125 
z
" id="DejaVuSans-115"/>
     </defs>
     <g transform="translate(156.744531 252.916562)scale(0.1 -0.1)">
      <use xlink:href="#DejaVuSans-84"/>
      <use x="61.083984" xlink:href="#DejaVuSans-104"/>
      <use x="124.462891" xlink:href="#DejaVuSans-101"/>
      <use x="185.986328" xlink:href="#DejaVuSans-111"/>
      <use x="247.167969" xlink:href="#DejaVuSans-114"/>
      <use x="286.03125" xlink:href="#DejaVuSans-101"/>
      <use x="347.554688" xlink:href="#DejaVuSans-116"/>
      <use x="386.763672" xlink:href="#DejaVuSans-105"/>
      <use x="414.546875" xlink:href="#DejaVuSans-99"/>
      <use x="469.527344" xlink:href="#DejaVuSans-97"/>
      <use x="530.806641" xlink:href="#DejaVuSans-108"/>
      <use x="558.589844" xlink:href="#DejaVuSans-32"/>
      <use x="590.376953" xlink:href="#DejaVuSans-81"/>
      <use x="669.087891" xlink:href="#DejaVuSans-117"/>
      <use x="732.466797" xlink:href="#DejaVuSans-97"/>
      <use x="793.746094" xlink:href="#DejaVuSans-110"/>
      <use x="857.125" xlink:href="#DejaVuSans-116"/>
      <use x="896.333984" xlink:href="#DejaVuSans-105"/>
      <use x="924.117188" xlink:href="#DejaVuSans-108"/>
      <use x="951.900391" xlink:href="#DejaVuSans-101"/>
      <use x="1013.423828" xlink:href="#DejaVuSans-115"/>
     </g>
    </g>
   </g>
   <g id="matplotlib.axis_2">
    <g id="ytick_1">
     <g id="line2d_10">
      <defs>
       <path d="M 0 0 
L -3.5 0 
" id="m8d411c4c5c" style="stroke:#000000;stroke-width:0.8;"/>
      </defs>
      <g>
       <use style="stroke:#000000;stroke-width:0.8;" x="42.620313" xlink:href="#m8d411c4c5c" y="223.975739"/>
      </g>
     </g>
     <g id="text_11">
      <!-- −5 -->
      <g transform="translate(20.878125 227.774958)scale(0.1 -0.1)">
       <use xlink:href="#DejaVuSans-8722"/>
       <use x="83.789062" xlink:href="#DejaVuSans-53"/>
      </g>
     </g>
    </g>
    <g id="ytick_2">
     <g id="line2d_11">
      <g>
       <use style="stroke:#000000;stroke-width:0.8;" x="42.620313" xlink:href="#m8d411c4c5c" y="198.396346"/>
      </g>
     </g>
     <g id="text_12">
      <!-- −4 -->
      <g transform="translate(20.878125 202.195565)scale(0.1 -0.1)">
       <use xlink:href="#DejaVuSans-8722"/>
       <use x="83.789062" xlink:href="#DejaVuSans-52"/>
      </g>
     </g>
    </g>
    <g id="ytick_3">
     <g id="line2d_12">
      <g>
       <use style="stroke:#000000;stroke-width:0.8;" x="42.620313" xlink:href="#m8d411c4c5c" y="172.816953"/>
      </g>
     </g>
     <g id="text_13">
      <!-- −3 -->
      <g transform="translate(20.878125 176.616172)scale(0.1 -0.1)">
       <use xlink:href="#DejaVuSans-8722"/>
       <use x="83.789062" xlink:href="#DejaVuSans-51"/>
      </g>
     </g>
    </g>
    <g id="ytick_4">
     <g id="line2d_13">
      <g>
       <use style="stroke:#000000;stroke-width:0.8;" x="42.620313" xlink:href="#m8d411c4c5c" y="147.23756"/>
      </g>
     </g>
     <g id="text_14">
      <!-- −2 -->
      <g transform="translate(20.878125 151.036779)scale(0.1 -0.1)">
       <use xlink:href="#DejaVuSans-8722"/>
       <use x="83.789062" xlink:href="#DejaVuSans-50"/>
      </g>
     </g>
    </g>
    <g id="ytick_5">
     <g id="line2d_14">
      <g>
       <use style="stroke:#000000;stroke-width:0.8;" x="42.620313" xlink:href="#m8d411c4c5c" y="121.658168"/>
      </g>
     </g>
     <g id="text_15">
      <!-- −1 -->
      <g transform="translate(20.878125 125.457386)scale(0.1 -0.1)">
       <use xlink:href="#DejaVuSans-8722"/>
       <use x="83.789062" xlink:href="#DejaVuSans-49"/>
      </g>
     </g>
    </g>
    <g id="ytick_6">
     <g id="line2d_15">
      <g>
       <use style="stroke:#000000;stroke-width:0.8;" x="42.620313" xlink:href="#m8d411c4c5c" y="96.078775"/>
      </g>
     </g>
     <g id="text_16">
      <!-- 0 -->
      <g transform="translate(29.257813 99.877993)scale(0.1 -0.1)">
       <use xlink:href="#DejaVuSans-48"/>
      </g>
     </g>
    </g>
    <g id="ytick_7">
     <g id="line2d_16">
      <g>
       <use style="stroke:#000000;stroke-width:0.8;" x="42.620313" xlink:href="#m8d411c4c5c" y="70.499382"/>
      </g>
     </g>
     <g id="text_17">
      <!-- 1 -->
      <g transform="translate(29.257813 74.2986)scale(0.1 -0.1)">
       <use xlink:href="#DejaVuSans-49"/>
      </g>
     </g>
    </g>
    <g id="ytick_8">
     <g id="line2d_17">
      <g>
       <use style="stroke:#000000;stroke-width:0.8;" x="42.620313" xlink:href="#m8d411c4c5c" y="44.919989"/>
      </g>
     </g>
     <g id="text_18">
      <!-- 2 -->
      <g transform="translate(29.257813 48.719208)scale(0.1 -0.1)">
       <use xlink:href="#DejaVuSans-50"/>
      </g>
     </g>
    </g>
    <g id="ytick_9">
     <g id="line2d_18">
      <g>
       <use style="stroke:#000000;stroke-width:0.8;" x="42.620313" xlink:href="#m8d411c4c5c" y="19.340596"/>
      </g>
     </g>
     <g id="text_19">
      <!-- 3 -->
      <g transform="translate(29.257813 23.139815)scale(0.1 -0.1)">
       <use xlink:href="#DejaVuSans-51"/>
      </g>
     </g>
    </g>
    <g id="text_20">
     <!-- Sample Quantiles -->
     <defs>
      <path d="M 53.515625 70.515625 
L 53.515625 60.890625 
Q 47.90625 63.578125 42.921875 64.890625 
Q 37.9375 66.21875 33.296875 66.21875 
Q 25.25 66.21875 20.875 63.09375 
Q 16.5 59.96875 16.5 54.203125 
Q 16.5 49.359375 19.40625 46.890625 
Q 22.3125 44.4375 30.421875 42.921875 
L 36.375 41.703125 
Q 47.40625 39.59375 52.65625 34.296875 
Q 57.90625 29 57.90625 20.125 
Q 57.90625 9.515625 50.796875 4.046875 
Q 43.703125 -1.421875 29.984375 -1.421875 
Q 24.8125 -1.421875 18.96875 -0.25 
Q 13.140625 0.921875 6.890625 3.21875 
L 6.890625 13.375 
Q 12.890625 10.015625 18.65625 8.296875 
Q 24.421875 6.59375 29.984375 6.59375 
Q 38.421875 6.59375 43.015625 9.90625 
Q 47.609375 13.234375 47.609375 19.390625 
Q 47.609375 24.75 44.3125 27.78125 
Q 41.015625 30.8125 33.5 32.328125 
L 27.484375 33.5 
Q 16.453125 35.6875 11.515625 40.375 
Q 6.59375 45.0625 6.59375 53.421875 
Q 6.59375 63.09375 13.40625 68.65625 
Q 20.21875 74.21875 32.171875 74.21875 
Q 37.3125 74.21875 42.625 73.28125 
Q 47.953125 72.359375 53.515625 70.515625 
z
" id="DejaVuSans-83"/>
      <path d="M 52 44.1875 
Q 55.375 50.25 60.0625 53.125 
Q 64.75 56 71.09375 56 
Q 79.640625 56 84.28125 50.015625 
Q 88.921875 44.046875 88.921875 33.015625 
L 88.921875 0 
L 79.890625 0 
L 79.890625 32.71875 
Q 79.890625 40.578125 77.09375 44.375 
Q 74.3125 48.1875 68.609375 48.1875 
Q 61.625 48.1875 57.5625 43.546875 
Q 53.515625 38.921875 53.515625 30.90625 
L 53.515625 0 
L 44.484375 0 
L 44.484375 32.71875 
Q 44.484375 40.625 41.703125 44.40625 
Q 38.921875 48.1875 33.109375 48.1875 
Q 26.21875 48.1875 22.15625 43.53125 
Q 18.109375 38.875 18.109375 30.90625 
L 18.109375 0 
L 9.078125 0 
L 9.078125 54.6875 
L 18.109375 54.6875 
L 18.109375 46.1875 
Q 21.1875 51.21875 25.484375 53.609375 
Q 29.78125 56 35.6875 56 
Q 41.65625 56 45.828125 52.96875 
Q 50 49.953125 52 44.1875 
z
" id="DejaVuSans-109"/>
      <path d="M 18.109375 8.203125 
L 18.109375 -20.796875 
L 9.078125 -20.796875 
L 9.078125 54.6875 
L 18.109375 54.6875 
L 18.109375 46.390625 
Q 20.953125 51.265625 25.265625 53.625 
Q 29.59375 56 35.59375 56 
Q 45.5625 56 51.78125 48.09375 
Q 58.015625 40.1875 58.015625 27.296875 
Q 58.015625 14.40625 51.78125 6.484375 
Q 45.5625 -1.421875 35.59375 -1.421875 
Q 29.59375 -1.421875 25.265625 0.953125 
Q 20.953125 3.328125 18.109375 8.203125 
z
M 48.6875 27.296875 
Q 48.6875 37.203125 44.609375 42.84375 
Q 40.53125 48.484375 33.40625 48.484375 
Q 26.265625 48.484375 22.1875 42.84375 
Q 18.109375 37.203125 18.109375 27.296875 
Q 18.109375 17.390625 22.1875 11.75 
Q 26.265625 6.109375 33.40625 6.109375 
Q 40.53125 6.109375 44.609375 11.75 
Q 48.6875 17.390625 48.6875 27.296875 
z
" id="DejaVuSans-112"/>
     </defs>
     <g transform="translate(14.798438 160.014531)rotate(-90)scale(0.1 -0.1)">
      <use xlink:href="#DejaVuSans-83"/>
      <use x="63.476562" xlink:href="#DejaVuSans-97"/>
      <use x="124.755859" xlink:href="#DejaVuSans-109"/>
      <use x="222.167969" xlink:href="#DejaVuSans-112"/>
      <use x="285.644531" xlink:href="#DejaVuSans-108"/>
      <use x="313.427734" xlink:href="#DejaVuSans-101"/>
      <use x="374.951172" xlink:href="#DejaVuSans-32"/>
      <use x="406.738281" xlink:href="#DejaVuSans-81"/>
      <use x="485.449219" xlink:href="#DejaVuSans-117"/>
      <use x="548.828125" xlink:href="#DejaVuSans-97"/>
      <use x="610.107422" xlink:href="#DejaVuSans-110"/>
      <use x="673.486328" xlink:href="#DejaVuSans-116"/>
      <use x="712.695312" xlink:href="#DejaVuSans-105"/>
      <use x="740.478516" xlink:href="#DejaVuSans-108"/>
      <use x="768.261719" xlink:href="#DejaVuSans-101"/>
      <use x="829.785156" xlink:href="#DejaVuSans-115"/>
     </g>
    </g>
   </g>
   <g id="line2d_19">
    <defs>
     <path d="M 0 3 
C 0.795609 3 1.55874 2.683901 2.12132 2.12132 
C 2.683901 1.55874 3 0.795609 3 0 
C 3 -0.795609 2.683901 -1.55874 2.12132 -2.12132 
C 1.55874 -2.683901 0.795609 -3 0 -3 
C -0.795609 -3 -1.55874 -2.683901 -2.12132 -2.12132 
C -2.683901 -1.55874 -3 -0.795609 -3 0 
C -3 0.795609 -2.683901 1.55874 -2.12132 2.12132 
C -1.55874 2.683901 -0.795609 3 0 3 
z
" id="m72e0128d36" style="stroke:#0000ff;"/>
    </defs>
    <g clip-path="url(#pdbff62cbde)">
     <use style="fill:#0000ff;stroke:#0000ff;" x="140.717555" xlink:href="#m72e0128d36" y="214.756364"/>
     <use style="fill:#0000ff;stroke:#0000ff;" x="150.681226" xlink:href="#m72e0128d36" y="187.875919"/>
     <use style="fill:#0000ff;stroke:#0000ff;" x="156.933524" xlink:href="#m72e0128d36" y="171.460448"/>
     <use style="fill:#0000ff;stroke:#0000ff;" x="161.595553" xlink:href="#m72e0128d36" y="160.880203"/>
     <use style="fill:#0000ff;stroke:#0000ff;" x="165.358498" xlink:href="#m72e0128d36" y="155.6621"/>
     <use style="fill:#0000ff;stroke:#0000ff;" x="168.538722" xlink:href="#m72e0128d36" y="140.308424"/>
     <use style="fill:#0000ff;stroke:#0000ff;" x="171.308662" xlink:href="#m72e0128d36" y="138.497226"/>
     <use style="fill:#0000ff;stroke:#0000ff;" x="173.77312" xlink:href="#m72e0128d36" y="137.683517"/>
     <use style="fill:#0000ff;stroke:#0000ff;" x="176.000764" xlink:href="#m72e0128d36" y="134.101628"/>
     <use style="fill:#0000ff;stroke:#0000ff;" x="178.039135" xlink:href="#m72e0128d36" y="131.672503"/>
     <use style="fill:#0000ff;stroke:#0000ff;" x="179.92257" xlink:href="#m72e0128d36" y="130.506098"/>
     <use style="fill:#0000ff;stroke:#0000ff;" x="181.676712" xlink:href="#m72e0128d36" y="129.854854"/>
     <use style="fill:#0000ff;stroke:#0000ff;" x="183.321242" xlink:href="#m72e0128d36" y="129.283417"/>
     <use style="fill:#0000ff;stroke:#0000ff;" x="184.87161" xlink:href="#m72e0128d36" y="129.17196"/>
     <use style="fill:#0000ff;stroke:#0000ff;" x="186.340174" xlink:href="#m72e0128d36" y="129.140746"/>
     <use style="fill:#0000ff;stroke:#0000ff;" x="187.736987" xlink:href="#m72e0128d36" y="127.300249"/>
     <use style="fill:#0000ff;stroke:#0000ff;" x="189.070336" xlink:href="#m72e0128d36" y="126.967995"/>
     <use style="fill:#0000ff;stroke:#0000ff;" x="190.34714" xlink:href="#m72e0128d36" y="126.950881"/>
     <use style="fill:#0000ff;stroke:#0000ff;" x="191.573238" xlink:href="#m72e0128d36" y="125.590302"/>
     <use style="fill:#0000ff;stroke:#0000ff;" x="192.753608" xlink:href="#m72e0128d36" y="125.335372"/>
     <use style="fill:#0000ff;stroke:#0000ff;" x="193.892524" xlink:href="#m72e0128d36" y="122.519556"/>
     <use style="fill:#0000ff;stroke:#0000ff;" x="194.99369" xlink:href="#m72e0128d36" y="121.713268"/>
     <use style="fill:#0000ff;stroke:#0000ff;" x="196.060337" xlink:href="#m72e0128d36" y="120.130923"/>
     <use style="fill:#0000ff;stroke:#0000ff;" x="197.095299" xlink:href="#m72e0128d36" y="119.813018"/>
     <use style="fill:#0000ff;stroke:#0000ff;" x="198.101081" xlink:href="#m72e0128d36" y="119.377921"/>
     <use style="fill:#0000ff;stroke:#0000ff;" x="199.079903" xlink:href="#m72e0128d36" y="119.035925"/>
     <use style="fill:#0000ff;stroke:#0000ff;" x="200.033748" xlink:href="#m72e0128d36" y="118.111201"/>
     <use style="fill:#0000ff;stroke:#0000ff;" x="200.964391" xlink:href="#m72e0128d36" y="117.794216"/>
     <use style="fill:#0000ff;stroke:#0000ff;" x="201.87343" xlink:href="#m72e0128d36" y="116.939668"/>
     <use style="fill:#0000ff;stroke:#0000ff;" x="202.762308" xlink:href="#m72e0128d36" y="116.105363"/>
     <use style="fill:#0000ff;stroke:#0000ff;" x="203.632334" xlink:href="#m72e0128d36" y="115.713075"/>
     <use style="fill:#0000ff;stroke:#0000ff;" x="204.484699" xlink:href="#m72e0128d36" y="115.663996"/>
     <use style="fill:#0000ff;stroke:#0000ff;" x="205.320489" xlink:href="#m72e0128d36" y="115.127908"/>
     <use style="fill:#0000ff;stroke:#0000ff;" x="206.140699" xlink:href="#m72e0128d36" y="115.02301"/>
     <use style="fill:#0000ff;stroke:#0000ff;" x="206.946241" xlink:href="#m72e0128d36" y="114.919028"/>
     <use style="fill:#0000ff;stroke:#0000ff;" x="207.737958" xlink:href="#m72e0128d36" y="114.411784"/>
     <use style="fill:#0000ff;stroke:#0000ff;" x="208.516626" xlink:href="#m72e0128d36" y="113.155616"/>
     <use style="fill:#0000ff;stroke:#0000ff;" x="209.282961" xlink:href="#m72e0128d36" y="112.753961"/>
     <use style="fill:#0000ff;stroke:#0000ff;" x="210.03763" xlink:href="#m72e0128d36" y="112.553181"/>
     <use style="fill:#0000ff;stroke:#0000ff;" x="210.781252" xlink:href="#m72e0128d36" y="111.843382"/>
     <use style="fill:#0000ff;stroke:#0000ff;" x="211.514403" xlink:href="#m72e0128d36" y="111.617711"/>
     <use style="fill:#0000ff;stroke:#0000ff;" x="212.237621" xlink:href="#m72e0128d36" y="110.045791"/>
     <use style="fill:#0000ff;stroke:#0000ff;" x="212.95141" xlink:href="#m72e0128d36" y="109.962421"/>
     <use style="fill:#0000ff;stroke:#0000ff;" x="213.65624" xlink:href="#m72e0128d36" y="109.802418"/>
     <use style="fill:#0000ff;stroke:#0000ff;" x="214.352554" xlink:href="#m72e0128d36" y="109.705908"/>
     <use style="fill:#0000ff;stroke:#0000ff;" x="215.040768" xlink:href="#m72e0128d36" y="109.167476"/>
     <use style="fill:#0000ff;stroke:#0000ff;" x="215.721273" xlink:href="#m72e0128d36" y="108.750052"/>
     <use style="fill:#0000ff;stroke:#0000ff;" x="216.39444" xlink:href="#m72e0128d36" y="108.651635"/>
     <use style="fill:#0000ff;stroke:#0000ff;" x="217.060617" xlink:href="#m72e0128d36" y="108.176576"/>
     <use style="fill:#0000ff;stroke:#0000ff;" x="217.720134" xlink:href="#m72e0128d36" y="107.870992"/>
     <use style="fill:#0000ff;stroke:#0000ff;" x="218.373306" xlink:href="#m72e0128d36" y="106.18674"/>
     <use style="fill:#0000ff;stroke:#0000ff;" x="219.020428" xlink:href="#m72e0128d36" y="106.109078"/>
     <use style="fill:#0000ff;stroke:#0000ff;" x="219.661784" xlink:href="#m72e0128d36" y="106.108184"/>
     <use style="fill:#0000ff;stroke:#0000ff;" x="220.297643" xlink:href="#m72e0128d36" y="105.425756"/>
     <use style="fill:#0000ff;stroke:#0000ff;" x="220.928261" xlink:href="#m72e0128d36" y="105.34609"/>
     <use style="fill:#0000ff;stroke:#0000ff;" x="221.553884" xlink:href="#m72e0128d36" y="104.649207"/>
     <use style="fill:#0000ff;stroke:#0000ff;" x="222.174744" xlink:href="#m72e0128d36" y="104.142784"/>
     <use style="fill:#0000ff;stroke:#0000ff;" x="222.791065" xlink:href="#m72e0128d36" y="103.480689"/>
     <use style="fill:#0000ff;stroke:#0000ff;" x="223.403064" xlink:href="#m72e0128d36" y="103.442463"/>
     <use style="fill:#0000ff;stroke:#0000ff;" x="224.010945" xlink:href="#m72e0128d36" y="103.346437"/>
     <use style="fill:#0000ff;stroke:#0000ff;" x="224.614906" xlink:href="#m72e0128d36" y="103.281416"/>
     <use style="fill:#0000ff;stroke:#0000ff;" x="225.215138" xlink:href="#m72e0128d36" y="103.198344"/>
     <use style="fill:#0000ff;stroke:#0000ff;" x="225.811825" xlink:href="#m72e0128d36" y="102.768212"/>
     <use style="fill:#0000ff;stroke:#0000ff;" x="226.405144" xlink:href="#m72e0128d36" y="102.70131"/>
     <use style="fill:#0000ff;stroke:#0000ff;" x="226.995264" xlink:href="#m72e0128d36" y="102.473943"/>
     <use style="fill:#0000ff;stroke:#0000ff;" x="227.582353" xlink:href="#m72e0128d36" y="101.839372"/>
     <use style="fill:#0000ff;stroke:#0000ff;" x="228.16657" xlink:href="#m72e0128d36" y="101.479655"/>
     <use style="fill:#0000ff;stroke:#0000ff;" x="228.74807" xlink:href="#m72e0128d36" y="99.798367"/>
     <use style="fill:#0000ff;stroke:#0000ff;" x="229.327004" xlink:href="#m72e0128d36" y="99.724622"/>
     <use style="fill:#0000ff;stroke:#0000ff;" x="229.903519" xlink:href="#m72e0128d36" y="99.710774"/>
     <use style="fill:#0000ff;stroke:#0000ff;" x="230.477757" xlink:href="#m72e0128d36" y="99.533192"/>
     <use style="fill:#0000ff;stroke:#0000ff;" x="231.049858" xlink:href="#m72e0128d36" y="99.261725"/>
     <use style="fill:#0000ff;stroke:#0000ff;" x="231.619957" xlink:href="#m72e0128d36" y="99.180868"/>
     <use style="fill:#0000ff;stroke:#0000ff;" x="232.188186" xlink:href="#m72e0128d36" y="99.102281"/>
     <use style="fill:#0000ff;stroke:#0000ff;" x="232.754676" xlink:href="#m72e0128d36" y="98.877411"/>
     <use style="fill:#0000ff;stroke:#0000ff;" x="233.319553" xlink:href="#m72e0128d36" y="98.86758"/>
     <use style="fill:#0000ff;stroke:#0000ff;" x="233.882943" xlink:href="#m72e0128d36" y="97.951572"/>
     <use style="fill:#0000ff;stroke:#0000ff;" x="234.444968" xlink:href="#m72e0128d36" y="97.592914"/>
     <use style="fill:#0000ff;stroke:#0000ff;" x="235.005748" xlink:href="#m72e0128d36" y="97.146021"/>
     <use style="fill:#0000ff;stroke:#0000ff;" x="235.565402" xlink:href="#m72e0128d36" y="97.081747"/>
     <use style="fill:#0000ff;stroke:#0000ff;" x="236.124047" xlink:href="#m72e0128d36" y="96.603669"/>
     <use style="fill:#0000ff;stroke:#0000ff;" x="236.681799" xlink:href="#m72e0128d36" y="96.182417"/>
     <use style="fill:#0000ff;stroke:#0000ff;" x="237.238773" xlink:href="#m72e0128d36" y="96.143954"/>
     <use style="fill:#0000ff;stroke:#0000ff;" x="237.79508" xlink:href="#m72e0128d36" y="95.973915"/>
     <use style="fill:#0000ff;stroke:#0000ff;" x="238.350835" xlink:href="#m72e0128d36" y="95.74505"/>
     <use style="fill:#0000ff;stroke:#0000ff;" x="238.906148" xlink:href="#m72e0128d36" y="95.678943"/>
     <use style="fill:#0000ff;stroke:#0000ff;" x="239.46113" xlink:href="#m72e0128d36" y="95.430374"/>
     <use style="fill:#0000ff;stroke:#0000ff;" x="240.015892" xlink:href="#m72e0128d36" y="95.094774"/>
     <use style="fill:#0000ff;stroke:#0000ff;" x="240.570544" xlink:href="#m72e0128d36" y="94.748259"/>
     <use style="fill:#0000ff;stroke:#0000ff;" x="241.125196" xlink:href="#m72e0128d36" y="94.39095"/>
     <use style="fill:#0000ff;stroke:#0000ff;" x="241.679958" xlink:href="#m72e0128d36" y="93.935225"/>
     <use style="fill:#0000ff;stroke:#0000ff;" x="242.23494" xlink:href="#m72e0128d36" y="93.704701"/>
     <use style="fill:#0000ff;stroke:#0000ff;" x="242.790253" xlink:href="#m72e0128d36" y="93.521259"/>
     <use style="fill:#0000ff;stroke:#0000ff;" x="243.346007" xlink:href="#m72e0128d36" y="93.421228"/>
     <use style="fill:#0000ff;stroke:#0000ff;" x="243.902315" xlink:href="#m72e0128d36" y="93.362477"/>
     <use style="fill:#0000ff;stroke:#0000ff;" x="244.459288" xlink:href="#m72e0128d36" y="92.808848"/>
     <use style="fill:#0000ff;stroke:#0000ff;" x="245.01704" xlink:href="#m72e0128d36" y="92.507274"/>
     <use style="fill:#0000ff;stroke:#0000ff;" x="245.575685" xlink:href="#m72e0128d36" y="92.212029"/>
     <use style="fill:#0000ff;stroke:#0000ff;" x="246.135339" xlink:href="#m72e0128d36" y="92.151184"/>
     <use style="fill:#0000ff;stroke:#0000ff;" x="246.696119" xlink:href="#m72e0128d36" y="91.474948"/>
     <use style="fill:#0000ff;stroke:#0000ff;" x="247.258144" xlink:href="#m72e0128d36" y="91.457955"/>
     <use style="fill:#0000ff;stroke:#0000ff;" x="247.821534" xlink:href="#m72e0128d36" y="91.171524"/>
     <use style="fill:#0000ff;stroke:#0000ff;" x="248.386411" xlink:href="#m72e0128d36" y="91.145068"/>
     <use style="fill:#0000ff;stroke:#0000ff;" x="248.952901" xlink:href="#m72e0128d36" y="91.083676"/>
     <use style="fill:#0000ff;stroke:#0000ff;" x="249.521131" xlink:href="#m72e0128d36" y="90.821916"/>
     <use style="fill:#0000ff;stroke:#0000ff;" x="250.091229" xlink:href="#m72e0128d36" y="90.475786"/>
     <use style="fill:#0000ff;stroke:#0000ff;" x="250.66333" xlink:href="#m72e0128d36" y="89.743053"/>
     <use style="fill:#0000ff;stroke:#0000ff;" x="251.237568" xlink:href="#m72e0128d36" y="89.714605"/>
     <use style="fill:#0000ff;stroke:#0000ff;" x="251.814083" xlink:href="#m72e0128d36" y="89.131318"/>
     <use style="fill:#0000ff;stroke:#0000ff;" x="252.393017" xlink:href="#m72e0128d36" y="88.840731"/>
     <use style="fill:#0000ff;stroke:#0000ff;" x="252.974517" xlink:href="#m72e0128d36" y="88.186648"/>
     <use style="fill:#0000ff;stroke:#0000ff;" x="253.558734" xlink:href="#m72e0128d36" y="88.03856"/>
     <use style="fill:#0000ff;stroke:#0000ff;" x="254.145823" xlink:href="#m72e0128d36" y="87.203382"/>
     <use style="fill:#0000ff;stroke:#0000ff;" x="254.735944" xlink:href="#m72e0128d36" y="86.904772"/>
     <use style="fill:#0000ff;stroke:#0000ff;" x="255.329262" xlink:href="#m72e0128d36" y="86.769108"/>
     <use style="fill:#0000ff;stroke:#0000ff;" x="255.925949" xlink:href="#m72e0128d36" y="86.716848"/>
     <use style="fill:#0000ff;stroke:#0000ff;" x="256.526181" xlink:href="#m72e0128d36" y="86.438953"/>
     <use style="fill:#0000ff;stroke:#0000ff;" x="257.130143" xlink:href="#m72e0128d36" y="86.115801"/>
     <use style="fill:#0000ff;stroke:#0000ff;" x="257.738024" xlink:href="#m72e0128d36" y="86.085836"/>
     <use style="fill:#0000ff;stroke:#0000ff;" x="258.350022" xlink:href="#m72e0128d36" y="86.076184"/>
     <use style="fill:#0000ff;stroke:#0000ff;" x="258.966344" xlink:href="#m72e0128d36" y="85.814771"/>
     <use style="fill:#0000ff;stroke:#0000ff;" x="259.587204" xlink:href="#m72e0128d36" y="85.61021"/>
     <use style="fill:#0000ff;stroke:#0000ff;" x="260.212826" xlink:href="#m72e0128d36" y="84.905152"/>
     <use style="fill:#0000ff;stroke:#0000ff;" x="260.843444" xlink:href="#m72e0128d36" y="84.680248"/>
     <use style="fill:#0000ff;stroke:#0000ff;" x="261.479303" xlink:href="#m72e0128d36" y="84.472074"/>
     <use style="fill:#0000ff;stroke:#0000ff;" x="262.120659" xlink:href="#m72e0128d36" y="84.209253"/>
     <use style="fill:#0000ff;stroke:#0000ff;" x="262.767782" xlink:href="#m72e0128d36" y="83.775345"/>
     <use style="fill:#0000ff;stroke:#0000ff;" x="263.420953" xlink:href="#m72e0128d36" y="82.737847"/>
     <use style="fill:#0000ff;stroke:#0000ff;" x="264.080471" xlink:href="#m72e0128d36" y="82.603552"/>
     <use style="fill:#0000ff;stroke:#0000ff;" x="264.746647" xlink:href="#m72e0128d36" y="81.173197"/>
     <use style="fill:#0000ff;stroke:#0000ff;" x="265.419814" xlink:href="#m72e0128d36" y="80.983324"/>
     <use style="fill:#0000ff;stroke:#0000ff;" x="266.100319" xlink:href="#m72e0128d36" y="80.153476"/>
     <use style="fill:#0000ff;stroke:#0000ff;" x="266.788533" xlink:href="#m72e0128d36" y="79.921221"/>
     <use style="fill:#0000ff;stroke:#0000ff;" x="267.484847" xlink:href="#m72e0128d36" y="79.677434"/>
     <use style="fill:#0000ff;stroke:#0000ff;" x="268.189677" xlink:href="#m72e0128d36" y="79.574943"/>
     <use style="fill:#0000ff;stroke:#0000ff;" x="268.903466" xlink:href="#m72e0128d36" y="79.438046"/>
     <use style="fill:#0000ff;stroke:#0000ff;" x="269.626684" xlink:href="#m72e0128d36" y="79.308761"/>
     <use style="fill:#0000ff;stroke:#0000ff;" x="270.359836" xlink:href="#m72e0128d36" y="79.089179"/>
     <use style="fill:#0000ff;stroke:#0000ff;" x="271.103457" xlink:href="#m72e0128d36" y="79.003904"/>
     <use style="fill:#0000ff;stroke:#0000ff;" x="271.858127" xlink:href="#m72e0128d36" y="78.849439"/>
     <use style="fill:#0000ff;stroke:#0000ff;" x="272.624462" xlink:href="#m72e0128d36" y="78.690854"/>
     <use style="fill:#0000ff;stroke:#0000ff;" x="273.403129" xlink:href="#m72e0128d36" y="78.299908"/>
     <use style="fill:#0000ff;stroke:#0000ff;" x="274.194846" xlink:href="#m72e0128d36" y="78.273524"/>
     <use style="fill:#0000ff;stroke:#0000ff;" x="275.000389" xlink:href="#m72e0128d36" y="78.180928"/>
     <use style="fill:#0000ff;stroke:#0000ff;" x="275.820598" xlink:href="#m72e0128d36" y="77.536253"/>
     <use style="fill:#0000ff;stroke:#0000ff;" x="276.656388" xlink:href="#m72e0128d36" y="77.087718"/>
     <use style="fill:#0000ff;stroke:#0000ff;" x="277.508753" xlink:href="#m72e0128d36" y="76.980918"/>
     <use style="fill:#0000ff;stroke:#0000ff;" x="278.378779" xlink:href="#m72e0128d36" y="76.973761"/>
     <use style="fill:#0000ff;stroke:#0000ff;" x="279.267657" xlink:href="#m72e0128d36" y="75.447899"/>
     <use style="fill:#0000ff;stroke:#0000ff;" x="280.176696" xlink:href="#m72e0128d36" y="74.803095"/>
     <use style="fill:#0000ff;stroke:#0000ff;" x="281.107339" xlink:href="#m72e0128d36" y="74.515382"/>
     <use style="fill:#0000ff;stroke:#0000ff;" x="282.061184" xlink:href="#m72e0128d36" y="74.51036"/>
     <use style="fill:#0000ff;stroke:#0000ff;" x="283.040007" xlink:href="#m72e0128d36" y="74.045022"/>
     <use style="fill:#0000ff;stroke:#0000ff;" x="284.045788" xlink:href="#m72e0128d36" y="73.335417"/>
     <use style="fill:#0000ff;stroke:#0000ff;" x="285.080751" xlink:href="#m72e0128d36" y="71.955705"/>
     <use style="fill:#0000ff;stroke:#0000ff;" x="286.147398" xlink:href="#m72e0128d36" y="69.222696"/>
     <use style="fill:#0000ff;stroke:#0000ff;" x="287.248564" xlink:href="#m72e0128d36" y="68.115857"/>
     <use style="fill:#0000ff;stroke:#0000ff;" x="288.38748" xlink:href="#m72e0128d36" y="66.405737"/>
     <use style="fill:#0000ff;stroke:#0000ff;" x="289.567849" xlink:href="#m72e0128d36" y="65.806903"/>
     <use style="fill:#0000ff;stroke:#0000ff;" x="290.793948" xlink:href="#m72e0128d36" y="65.294"/>
     <use style="fill:#0000ff;stroke:#0000ff;" x="292.070752" xlink:href="#m72e0128d36" y="64.919078"/>
     <use style="fill:#0000ff;stroke:#0000ff;" x="293.4041" xlink:href="#m72e0128d36" y="64.91226"/>
     <use style="fill:#0000ff;stroke:#0000ff;" x="294.800913" xlink:href="#m72e0128d36" y="64.326758"/>
     <use style="fill:#0000ff;stroke:#0000ff;" x="296.269478" xlink:href="#m72e0128d36" y="64.196794"/>
     <use style="fill:#0000ff;stroke:#0000ff;" x="297.819845" xlink:href="#m72e0128d36" y="63.116085"/>
     <use style="fill:#0000ff;stroke:#0000ff;" x="299.464376" xlink:href="#m72e0128d36" y="62.697824"/>
     <use style="fill:#0000ff;stroke:#0000ff;" x="301.218518" xlink:href="#m72e0128d36" y="60.967309"/>
     <use style="fill:#0000ff;stroke:#0000ff;" x="303.101952" xlink:href="#m72e0128d36" y="57.639805"/>
     <use style="fill:#0000ff;stroke:#0000ff;" x="305.140323" xlink:href="#m72e0128d36" y="56.925921"/>
     <use style="fill:#0000ff;stroke:#0000ff;" x="307.367967" xlink:href="#m72e0128d36" y="55.814831"/>
     <use style="fill:#0000ff;stroke:#0000ff;" x="309.832425" xlink:href="#m72e0128d36" y="53.186712"/>
     <use style="fill:#0000ff;stroke:#0000ff;" x="312.602365" xlink:href="#m72e0128d36" y="52.564505"/>
     <use style="fill:#0000ff;stroke:#0000ff;" x="315.78259" xlink:href="#m72e0128d36" y="51.437414"/>
     <use style="fill:#0000ff;stroke:#0000ff;" x="319.545534" xlink:href="#m72e0128d36" y="50.467123"/>
     <use style="fill:#0000ff;stroke:#0000ff;" x="324.207564" xlink:href="#m72e0128d36" y="44.019271"/>
     <use style="fill:#0000ff;stroke:#0000ff;" x="330.459861" xlink:href="#m72e0128d36" y="23.725322"/>
     <use style="fill:#0000ff;stroke:#0000ff;" x="340.423532" xlink:href="#m72e0128d36" y="17.083636"/>
    </g>
   </g>
   <g id="line2d_20">
    <path clip-path="url(#pdbff62cbde)" d="M 42.620313 224.64 
L 377.420313 7.2 
" style="fill:none;stroke:#ff0000;stroke-linecap:square;stroke-width:1.5;"/>
   </g>
   <g id="patch_3">
    <path d="M 42.620313 224.64 
L 42.620313 7.2 
" style="fill:none;stroke:#000000;stroke-linecap:square;stroke-linejoin:miter;stroke-width:0.8;"/>
   </g>
   <g id="patch_4">
    <path d="M 377.420313 224.64 
L 377.420313 7.2 
" style="fill:none;stroke:#000000;stroke-linecap:square;stroke-linejoin:miter;stroke-width:0.8;"/>
   </g>
   <g id="patch_5">
    <path d="M 42.620313 224.64 
L 377.420313 224.64 
" style="fill:none;stroke:#000000;stroke-linecap:square;stroke-linejoin:miter;stroke-width:0.8;"/>
   </g>
   <g id="patch_6">
    <path d="M 42.620313 7.2 
L 377.420313 7.2 
" style="fill:none;stroke:#000000;stroke-linecap:square;stroke-linejoin:miter;stroke-width:0.8;"/>
   </g>
  </g>
 </g>
 <defs>
  <clipPath id="pdbff62cbde">
   <rect height="217.44" width="334.8" x="42.620313" y="7.2"/>
  </clipPath>
 </defs>
</svg>
