<?xml version="1.0" encoding="utf-8" standalone="no"?>
<!DOCTYPE svg PUBLIC "-//W3C//DTD SVG 1.1//EN"
  "http://www.w3.org/Graphics/SVG/1.1/DTD/svg11.dtd">
<!-- Created with matplotlib (https://matplotlib.org/) -->
<svg height="263.63625pt" version="1.1" viewBox="0 0 385.78125 263.63625" width="385.78125pt" xmlns="http://www.w3.org/2000/svg" xmlns:xlink="http://www.w3.org/1999/xlink">
 <defs>
  <style type="text/css">
*{stroke-linecap:butt;stroke-linejoin:round;}
  </style>
 </defs>
 <g id="figure_1">
  <g id="patch_1">
   <path d="M 0 263.63625 
L 385.78125 263.63625 
L 385.78125 0 
L 0 0 
z
" style="fill:none;"/>
  </g>
  <g id="axes_1">
   <g id="patch_2">
    <path d="M 43.78125 239.758125 
L 378.58125 239.758125 
L 378.58125 22.318125 
L 43.78125 22.318125 
z
" style="fill:#ffffff;"/>
   </g>
   <g id="patch_3">
    <path clip-path="url(#pb470b70ca3)" d="M 135.090341 239.758125 
L 140.163068 239.758125 
L 140.163068 237.669102 
L 135.090341 237.669102 
z
" style="fill:#1f77b4;opacity:0.85;"/>
   </g>
   <g id="patch_4">
    <path clip-path="url(#pb470b70ca3)" d="M 140.163068 239.758125 
L 145.235795 239.758125 
L 145.235795 234.94429 
L 140.163068 234.94429 
z
" style="fill:#1f77b4;opacity:0.85;"/>
   </g>
   <g id="patch_5">
    <path clip-path="url(#pb470b70ca3)" d="M 145.235795 239.758125 
L 150.308523 239.758125 
L 150.308523 220.048651 
L 145.235795 220.048651 
z
" style="fill:#1f77b4;opacity:0.85;"/>
   </g>
   <g id="patch_6">
    <path clip-path="url(#pb470b70ca3)" d="M 150.308523 239.758125 
L 155.38125 239.758125 
L 155.38125 53.562636 
L 150.308523 53.562636 
z
" style="fill:#1f77b4;opacity:0.85;"/>
   </g>
   <g id="patch_7">
    <path clip-path="url(#pb470b70ca3)" d="M 155.38125 239.758125 
L 160.453977 239.758125 
L 160.453977 57.649854 
L 155.38125 57.649854 
z
" style="fill:#1f77b4;opacity:0.85;"/>
   </g>
   <g id="patch_8">
    <path clip-path="url(#pb470b70ca3)" d="M 160.453977 239.758125 
L 165.526705 239.758125 
L 165.526705 32.672411 
L 160.453977 32.672411 
z
" style="fill:#1f77b4;opacity:0.85;"/>
   </g>
   <g id="patch_9">
    <path clip-path="url(#pb470b70ca3)" d="M 165.526705 239.758125 
L 170.599432 239.758125 
L 170.599432 156.28805 
L 165.526705 156.28805 
z
" style="fill:#1f77b4;opacity:0.85;"/>
   </g>
   <g id="patch_10">
    <path clip-path="url(#pb470b70ca3)" d="M 170.599432 239.758125 
L 175.672159 239.758125 
L 175.672159 123.590305 
L 170.599432 123.590305 
z
" style="fill:#1f77b4;opacity:0.85;"/>
   </g>
   <g id="patch_11">
    <path clip-path="url(#pb470b70ca3)" d="M 175.672159 239.758125 
L 180.744886 239.758125 
L 180.744886 75.361133 
L 175.672159 75.361133 
z
" style="fill:#1f77b4;opacity:0.85;"/>
   </g>
   <g id="patch_12">
    <path clip-path="url(#pb470b70ca3)" d="M 180.744886 239.758125 
L 185.817614 239.758125 
L 185.817614 136.215268 
L 180.744886 136.215268 
z
" style="fill:#1f77b4;opacity:0.85;"/>
   </g>
   <g id="patch_13">
    <path clip-path="url(#pb470b70ca3)" d="M 185.817614 239.758125 
L 190.890341 239.758125 
L 190.890341 163.645042 
L 185.817614 163.645042 
z
" style="fill:#1f77b4;opacity:0.85;"/>
   </g>
   <g id="patch_14">
    <path clip-path="url(#pb470b70ca3)" d="M 190.890341 239.758125 
L 195.963068 239.758125 
L 195.963068 165.189102 
L 190.890341 165.189102 
z
" style="fill:#1f77b4;opacity:0.85;"/>
   </g>
   <g id="patch_15">
    <path clip-path="url(#pb470b70ca3)" d="M 195.963068 239.758125 
L 201.035795 239.758125 
L 201.035795 146.206245 
L 195.963068 146.206245 
z
" style="fill:#1f77b4;opacity:0.85;"/>
   </g>
   <g id="patch_16">
    <path clip-path="url(#pb470b70ca3)" d="M 201.035795 239.758125 
L 206.108523 239.758125 
L 206.108523 201.974065 
L 201.035795 201.974065 
z
" style="fill:#1f77b4;opacity:0.85;"/>
   </g>
   <g id="patch_17">
    <path clip-path="url(#pb470b70ca3)" d="M 206.108523 239.758125 
L 211.18125 239.758125 
L 211.18125 232.310305 
L 206.108523 232.310305 
z
" style="fill:#1f77b4;opacity:0.85;"/>
   </g>
   <g id="patch_18">
    <path clip-path="url(#pb470b70ca3)" d="M 211.18125 239.758125 
L 216.253977 239.758125 
L 216.253977 223.772561 
L 211.18125 223.772561 
z
" style="fill:#1f77b4;opacity:0.85;"/>
   </g>
   <g id="patch_19">
    <path clip-path="url(#pb470b70ca3)" d="M 216.253977 239.758125 
L 221.326705 239.758125 
L 221.326705 227.042336 
L 216.253977 227.042336 
z
" style="fill:#1f77b4;opacity:0.85;"/>
   </g>
   <g id="patch_20">
    <path clip-path="url(#pb470b70ca3)" d="M 221.326705 239.758125 
L 226.399432 239.758125 
L 226.399432 237.033313 
L 221.326705 237.033313 
z
" style="fill:#1f77b4;opacity:0.85;"/>
   </g>
   <g id="patch_21">
    <path clip-path="url(#pb470b70ca3)" d="M 226.399432 239.758125 
L 231.472159 239.758125 
L 231.472159 231.492862 
L 226.399432 231.492862 
z
" style="fill:#1f77b4;opacity:0.85;"/>
   </g>
   <g id="patch_22">
    <path clip-path="url(#pb470b70ca3)" d="M 231.472159 239.758125 
L 236.544886 239.758125 
L 236.544886 234.853463 
L 231.472159 234.853463 
z
" style="fill:#1f77b4;opacity:0.85;"/>
   </g>
   <g id="patch_23">
    <path clip-path="url(#pb470b70ca3)" d="M 236.544886 239.758125 
L 241.617614 239.758125 
L 241.617614 238.577373 
L 236.544886 238.577373 
z
" style="fill:#1f77b4;opacity:0.85;"/>
   </g>
   <g id="patch_24">
    <path clip-path="url(#pb470b70ca3)" d="M 241.617614 239.758125 
L 246.690341 239.758125 
L 246.690341 239.576471 
L 241.617614 239.576471 
z
" style="fill:#1f77b4;opacity:0.85;"/>
   </g>
   <g id="patch_25">
    <path clip-path="url(#pb470b70ca3)" d="M 246.690341 239.758125 
L 251.763068 239.758125 
L 251.763068 239.758125 
L 246.690341 239.758125 
z
" style="fill:#1f77b4;opacity:0.85;"/>
   </g>
   <g id="patch_26">
    <path clip-path="url(#pb470b70ca3)" d="M 251.763068 239.758125 
L 256.835795 239.758125 
L 256.835795 239.758125 
L 251.763068 239.758125 
z
" style="fill:#1f77b4;opacity:0.85;"/>
   </g>
   <g id="patch_27">
    <path clip-path="url(#pb470b70ca3)" d="M 256.835795 239.758125 
L 261.908523 239.758125 
L 261.908523 239.758125 
L 256.835795 239.758125 
z
" style="fill:#1f77b4;opacity:0.85;"/>
   </g>
   <g id="patch_28">
    <path clip-path="url(#pb470b70ca3)" d="M 261.908523 239.758125 
L 266.98125 239.758125 
L 266.98125 239.758125 
L 261.908523 239.758125 
z
" style="fill:#1f77b4;opacity:0.85;"/>
   </g>
   <g id="patch_29">
    <path clip-path="url(#pb470b70ca3)" d="M 266.98125 239.758125 
L 272.053977 239.758125 
L 272.053977 239.758125 
L 266.98125 239.758125 
z
" style="fill:#1f77b4;opacity:0.85;"/>
   </g>
   <g id="patch_30">
    <path clip-path="url(#pb470b70ca3)" d="M 272.053977 239.758125 
L 277.126705 239.758125 
L 277.126705 239.485644 
L 272.053977 239.485644 
z
" style="fill:#1f77b4;opacity:0.85;"/>
   </g>
   <g id="patch_31">
    <path clip-path="url(#pb470b70ca3)" d="M 277.126705 239.758125 
L 282.199432 239.758125 
L 282.199432 239.485644 
L 277.126705 239.485644 
z
" style="fill:#1f77b4;opacity:0.85;"/>
   </g>
   <g id="patch_32">
    <path clip-path="url(#pb470b70ca3)" d="M 282.199432 239.758125 
L 287.272159 239.758125 
L 287.272159 239.30399 
L 282.199432 239.30399 
z
" style="fill:#1f77b4;opacity:0.85;"/>
   </g>
   <g id="matplotlib.axis_1">
    <g id="xtick_1">
     <g id="line2d_1">
      <defs>
       <path d="M 0 0 
L 0 3.5 
" id="m428f8556ff" style="stroke:#000000;stroke-width:0.8;"/>
      </defs>
      <g>
       <use style="stroke:#000000;stroke-width:0.8;" x="74.293452" xlink:href="#m428f8556ff" y="239.758125"/>
      </g>
     </g>
     <g id="text_1">
      <!-- −123.0 -->
      <defs>
       <path d="M 10.59375 35.5 
L 73.1875 35.5 
L 73.1875 27.203125 
L 10.59375 27.203125 
z
" id="DejaVuSans-8722"/>
       <path d="M 12.40625 8.296875 
L 28.515625 8.296875 
L 28.515625 63.921875 
L 10.984375 60.40625 
L 10.984375 69.390625 
L 28.421875 72.90625 
L 38.28125 72.90625 
L 38.28125 8.296875 
L 54.390625 8.296875 
L 54.390625 0 
L 12.40625 0 
z
" id="DejaVuSans-49"/>
       <path d="M 19.1875 8.296875 
L 53.609375 8.296875 
L 53.609375 0 
L 7.328125 0 
L 7.328125 8.296875 
Q 12.9375 14.109375 22.625 23.890625 
Q 32.328125 33.6875 34.8125 36.53125 
Q 39.546875 41.84375 41.421875 45.53125 
Q 43.3125 49.21875 43.3125 52.78125 
Q 43.3125 58.59375 39.234375 62.25 
Q 35.15625 65.921875 28.609375 65.921875 
Q 23.96875 65.921875 18.8125 64.3125 
Q 13.671875 62.703125 7.8125 59.421875 
L 7.8125 69.390625 
Q 13.765625 71.78125 18.9375 73 
Q 24.125 74.21875 28.421875 74.21875 
Q 39.75 74.21875 46.484375 68.546875 
Q 53.21875 62.890625 53.21875 53.421875 
Q 53.21875 48.921875 51.53125 44.890625 
Q 49.859375 40.875 45.40625 35.40625 
Q 44.1875 33.984375 37.640625 27.21875 
Q 31.109375 20.453125 19.1875 8.296875 
z
" id="DejaVuSans-50"/>
       <path d="M 40.578125 39.3125 
Q 47.65625 37.796875 51.625 33 
Q 55.609375 28.21875 55.609375 21.1875 
Q 55.609375 10.40625 48.1875 4.484375 
Q 40.765625 -1.421875 27.09375 -1.421875 
Q 22.515625 -1.421875 17.65625 -0.515625 
Q 12.796875 0.390625 7.625 2.203125 
L 7.625 11.71875 
Q 11.71875 9.328125 16.59375 8.109375 
Q 21.484375 6.890625 26.8125 6.890625 
Q 36.078125 6.890625 40.9375 10.546875 
Q 45.796875 14.203125 45.796875 21.1875 
Q 45.796875 27.640625 41.28125 31.265625 
Q 36.765625 34.90625 28.71875 34.90625 
L 20.21875 34.90625 
L 20.21875 43.015625 
L 29.109375 43.015625 
Q 36.375 43.015625 40.234375 45.921875 
Q 44.09375 48.828125 44.09375 54.296875 
Q 44.09375 59.90625 40.109375 62.90625 
Q 36.140625 65.921875 28.71875 65.921875 
Q 24.65625 65.921875 20.015625 65.03125 
Q 15.375 64.15625 9.8125 62.3125 
L 9.8125 71.09375 
Q 15.4375 72.65625 20.34375 73.4375 
Q 25.25 74.21875 29.59375 74.21875 
Q 40.828125 74.21875 47.359375 69.109375 
Q 53.90625 64.015625 53.90625 55.328125 
Q 53.90625 49.265625 50.4375 45.09375 
Q 46.96875 40.921875 40.578125 39.3125 
z
" id="DejaVuSans-51"/>
       <path d="M 10.6875 12.40625 
L 21 12.40625 
L 21 0 
L 10.6875 0 
z
" id="DejaVuSans-46"/>
       <path d="M 31.78125 66.40625 
Q 24.171875 66.40625 20.328125 58.90625 
Q 16.5 51.421875 16.5 36.375 
Q 16.5 21.390625 20.328125 13.890625 
Q 24.171875 6.390625 31.78125 6.390625 
Q 39.453125 6.390625 43.28125 13.890625 
Q 47.125 21.390625 47.125 36.375 
Q 47.125 51.421875 43.28125 58.90625 
Q 39.453125 66.40625 31.78125 66.40625 
z
M 31.78125 74.21875 
Q 44.046875 74.21875 50.515625 64.515625 
Q 56.984375 54.828125 56.984375 36.375 
Q 56.984375 17.96875 50.515625 8.265625 
Q 44.046875 -1.421875 31.78125 -1.421875 
Q 19.53125 -1.421875 13.0625 8.265625 
Q 6.59375 17.96875 6.59375 36.375 
Q 6.59375 54.828125 13.0625 64.515625 
Q 19.53125 74.21875 31.78125 74.21875 
z
" id="DejaVuSans-48"/>
      </defs>
      <g transform="translate(55.789546 254.356563)scale(0.1 -0.1)">
       <use xlink:href="#DejaVuSans-8722"/>
       <use x="83.789062" xlink:href="#DejaVuSans-49"/>
       <use x="147.412109" xlink:href="#DejaVuSans-50"/>
       <use x="211.035156" xlink:href="#DejaVuSans-51"/>
       <use x="274.658203" xlink:href="#DejaVuSans-46"/>
       <use x="306.445312" xlink:href="#DejaVuSans-48"/>
      </g>
     </g>
    </g>
    <g id="xtick_2">
     <g id="line2d_2">
      <g>
       <use style="stroke:#000000;stroke-width:0.8;" x="137.491881" xlink:href="#m428f8556ff" y="239.758125"/>
      </g>
     </g>
     <g id="text_2">
      <!-- −122.5 -->
      <defs>
       <path d="M 10.796875 72.90625 
L 49.515625 72.90625 
L 49.515625 64.59375 
L 19.828125 64.59375 
L 19.828125 46.734375 
Q 21.96875 47.46875 24.109375 47.828125 
Q 26.265625 48.1875 28.421875 48.1875 
Q 40.625 48.1875 47.75 41.5 
Q 54.890625 34.8125 54.890625 23.390625 
Q 54.890625 11.625 47.5625 5.09375 
Q 40.234375 -1.421875 26.90625 -1.421875 
Q 22.3125 -1.421875 17.546875 -0.640625 
Q 12.796875 0.140625 7.71875 1.703125 
L 7.71875 11.625 
Q 12.109375 9.234375 16.796875 8.0625 
Q 21.484375 6.890625 26.703125 6.890625 
Q 35.15625 6.890625 40.078125 11.328125 
Q 45.015625 15.765625 45.015625 23.390625 
Q 45.015625 31 40.078125 35.4375 
Q 35.15625 39.890625 26.703125 39.890625 
Q 22.75 39.890625 18.8125 39.015625 
Q 14.890625 38.140625 10.796875 36.28125 
z
" id="DejaVuSans-53"/>
      </defs>
      <g transform="translate(118.987975 254.356563)scale(0.1 -0.1)">
       <use xlink:href="#DejaVuSans-8722"/>
       <use x="83.789062" xlink:href="#DejaVuSans-49"/>
       <use x="147.412109" xlink:href="#DejaVuSans-50"/>
       <use x="211.035156" xlink:href="#DejaVuSans-50"/>
       <use x="274.658203" xlink:href="#DejaVuSans-46"/>
       <use x="306.445312" xlink:href="#DejaVuSans-53"/>
      </g>
     </g>
    </g>
    <g id="xtick_3">
     <g id="line2d_3">
      <g>
       <use style="stroke:#000000;stroke-width:0.8;" x="200.690311" xlink:href="#m428f8556ff" y="239.758125"/>
      </g>
     </g>
     <g id="text_3">
      <!-- −122.0 -->
      <g transform="translate(182.186404 254.356563)scale(0.1 -0.1)">
       <use xlink:href="#DejaVuSans-8722"/>
       <use x="83.789062" xlink:href="#DejaVuSans-49"/>
       <use x="147.412109" xlink:href="#DejaVuSans-50"/>
       <use x="211.035156" xlink:href="#DejaVuSans-50"/>
       <use x="274.658203" xlink:href="#DejaVuSans-46"/>
       <use x="306.445312" xlink:href="#DejaVuSans-48"/>
      </g>
     </g>
    </g>
    <g id="xtick_4">
     <g id="line2d_4">
      <g>
       <use style="stroke:#000000;stroke-width:0.8;" x="263.88874" xlink:href="#m428f8556ff" y="239.758125"/>
      </g>
     </g>
     <g id="text_4">
      <!-- −121.5 -->
      <g transform="translate(245.384834 254.356563)scale(0.1 -0.1)">
       <use xlink:href="#DejaVuSans-8722"/>
       <use x="83.789062" xlink:href="#DejaVuSans-49"/>
       <use x="147.412109" xlink:href="#DejaVuSans-50"/>
       <use x="211.035156" xlink:href="#DejaVuSans-49"/>
       <use x="274.658203" xlink:href="#DejaVuSans-46"/>
       <use x="306.445312" xlink:href="#DejaVuSans-53"/>
      </g>
     </g>
    </g>
    <g id="xtick_5">
     <g id="line2d_5">
      <g>
       <use style="stroke:#000000;stroke-width:0.8;" x="327.08717" xlink:href="#m428f8556ff" y="239.758125"/>
      </g>
     </g>
     <g id="text_5">
      <!-- −121.0 -->
      <g transform="translate(308.583263 254.356563)scale(0.1 -0.1)">
       <use xlink:href="#DejaVuSans-8722"/>
       <use x="83.789062" xlink:href="#DejaVuSans-49"/>
       <use x="147.412109" xlink:href="#DejaVuSans-50"/>
       <use x="211.035156" xlink:href="#DejaVuSans-49"/>
       <use x="274.658203" xlink:href="#DejaVuSans-46"/>
       <use x="306.445312" xlink:href="#DejaVuSans-48"/>
      </g>
     </g>
    </g>
   </g>
   <g id="matplotlib.axis_2">
    <g id="ytick_1">
     <g id="line2d_6">
      <defs>
       <path d="M 0 0 
L -3.5 0 
" id="mc5fa2810df" style="stroke:#000000;stroke-width:0.8;"/>
      </defs>
      <g>
       <use style="stroke:#000000;stroke-width:0.8;" x="43.78125" xlink:href="#mc5fa2810df" y="239.758125"/>
      </g>
     </g>
     <g id="text_6">
      <!-- 0.0 -->
      <g transform="translate(20.878125 243.557344)scale(0.1 -0.1)">
       <use xlink:href="#DejaVuSans-48"/>
       <use x="63.623047" xlink:href="#DejaVuSans-46"/>
       <use x="95.410156" xlink:href="#DejaVuSans-48"/>
      </g>
     </g>
    </g>
    <g id="ytick_2">
     <g id="line2d_7">
      <g>
       <use style="stroke:#000000;stroke-width:0.8;" x="43.78125" xlink:href="#mc5fa2810df" y="211.544331"/>
      </g>
     </g>
     <g id="text_7">
      <!-- 0.5 -->
      <g transform="translate(20.878125 215.34355)scale(0.1 -0.1)">
       <use xlink:href="#DejaVuSans-48"/>
       <use x="63.623047" xlink:href="#DejaVuSans-46"/>
       <use x="95.410156" xlink:href="#DejaVuSans-53"/>
      </g>
     </g>
    </g>
    <g id="ytick_3">
     <g id="line2d_8">
      <g>
       <use style="stroke:#000000;stroke-width:0.8;" x="43.78125" xlink:href="#mc5fa2810df" y="183.330538"/>
      </g>
     </g>
     <g id="text_8">
      <!-- 1.0 -->
      <g transform="translate(20.878125 187.129756)scale(0.1 -0.1)">
       <use xlink:href="#DejaVuSans-49"/>
       <use x="63.623047" xlink:href="#DejaVuSans-46"/>
       <use x="95.410156" xlink:href="#DejaVuSans-48"/>
      </g>
     </g>
    </g>
    <g id="ytick_4">
     <g id="line2d_9">
      <g>
       <use style="stroke:#000000;stroke-width:0.8;" x="43.78125" xlink:href="#mc5fa2810df" y="155.116744"/>
      </g>
     </g>
     <g id="text_9">
      <!-- 1.5 -->
      <g transform="translate(20.878125 158.915963)scale(0.1 -0.1)">
       <use xlink:href="#DejaVuSans-49"/>
       <use x="63.623047" xlink:href="#DejaVuSans-46"/>
       <use x="95.410156" xlink:href="#DejaVuSans-53"/>
      </g>
     </g>
    </g>
    <g id="ytick_5">
     <g id="line2d_10">
      <g>
       <use style="stroke:#000000;stroke-width:0.8;" x="43.78125" xlink:href="#mc5fa2810df" y="126.90295"/>
      </g>
     </g>
     <g id="text_10">
      <!-- 2.0 -->
      <g transform="translate(20.878125 130.702169)scale(0.1 -0.1)">
       <use xlink:href="#DejaVuSans-50"/>
       <use x="63.623047" xlink:href="#DejaVuSans-46"/>
       <use x="95.410156" xlink:href="#DejaVuSans-48"/>
      </g>
     </g>
    </g>
    <g id="ytick_6">
     <g id="line2d_11">
      <g>
       <use style="stroke:#000000;stroke-width:0.8;" x="43.78125" xlink:href="#mc5fa2810df" y="98.689157"/>
      </g>
     </g>
     <g id="text_11">
      <!-- 2.5 -->
      <g transform="translate(20.878125 102.488375)scale(0.1 -0.1)">
       <use xlink:href="#DejaVuSans-50"/>
       <use x="63.623047" xlink:href="#DejaVuSans-46"/>
       <use x="95.410156" xlink:href="#DejaVuSans-53"/>
      </g>
     </g>
    </g>
    <g id="ytick_7">
     <g id="line2d_12">
      <g>
       <use style="stroke:#000000;stroke-width:0.8;" x="43.78125" xlink:href="#mc5fa2810df" y="70.475363"/>
      </g>
     </g>
     <g id="text_12">
      <!-- 3.0 -->
      <g transform="translate(20.878125 74.274582)scale(0.1 -0.1)">
       <use xlink:href="#DejaVuSans-51"/>
       <use x="63.623047" xlink:href="#DejaVuSans-46"/>
       <use x="95.410156" xlink:href="#DejaVuSans-48"/>
      </g>
     </g>
    </g>
    <g id="ytick_8">
     <g id="line2d_13">
      <g>
       <use style="stroke:#000000;stroke-width:0.8;" x="43.78125" xlink:href="#mc5fa2810df" y="42.261569"/>
      </g>
     </g>
     <g id="text_13">
      <!-- 3.5 -->
      <g transform="translate(20.878125 46.060788)scale(0.1 -0.1)">
       <use xlink:href="#DejaVuSans-51"/>
       <use x="63.623047" xlink:href="#DejaVuSans-46"/>
       <use x="95.410156" xlink:href="#DejaVuSans-53"/>
      </g>
     </g>
    </g>
    <g id="text_14">
     <!-- Density -->
     <defs>
      <path d="M 19.671875 64.796875 
L 19.671875 8.109375 
L 31.59375 8.109375 
Q 46.6875 8.109375 53.6875 14.9375 
Q 60.6875 21.78125 60.6875 36.53125 
Q 60.6875 51.171875 53.6875 57.984375 
Q 46.6875 64.796875 31.59375 64.796875 
z
M 9.8125 72.90625 
L 30.078125 72.90625 
Q 51.265625 72.90625 61.171875 64.09375 
Q 71.09375 55.28125 71.09375 36.53125 
Q 71.09375 17.671875 61.125 8.828125 
Q 51.171875 0 30.078125 0 
L 9.8125 0 
z
" id="DejaVuSans-68"/>
      <path d="M 56.203125 29.59375 
L 56.203125 25.203125 
L 14.890625 25.203125 
Q 15.484375 15.921875 20.484375 11.0625 
Q 25.484375 6.203125 34.421875 6.203125 
Q 39.59375 6.203125 44.453125 7.46875 
Q 49.3125 8.734375 54.109375 11.28125 
L 54.109375 2.78125 
Q 49.265625 0.734375 44.1875 -0.34375 
Q 39.109375 -1.421875 33.890625 -1.421875 
Q 20.796875 -1.421875 13.15625 6.1875 
Q 5.515625 13.8125 5.515625 26.8125 
Q 5.515625 40.234375 12.765625 48.109375 
Q 20.015625 56 32.328125 56 
Q 43.359375 56 49.78125 48.890625 
Q 56.203125 41.796875 56.203125 29.59375 
z
M 47.21875 32.234375 
Q 47.125 39.59375 43.09375 43.984375 
Q 39.0625 48.390625 32.421875 48.390625 
Q 24.90625 48.390625 20.390625 44.140625 
Q 15.875 39.890625 15.1875 32.171875 
z
" id="DejaVuSans-101"/>
      <path d="M 54.890625 33.015625 
L 54.890625 0 
L 45.90625 0 
L 45.90625 32.71875 
Q 45.90625 40.484375 42.875 44.328125 
Q 39.84375 48.1875 33.796875 48.1875 
Q 26.515625 48.1875 22.3125 43.546875 
Q 18.109375 38.921875 18.109375 30.90625 
L 18.109375 0 
L 9.078125 0 
L 9.078125 54.6875 
L 18.109375 54.6875 
L 18.109375 46.1875 
Q 21.34375 51.125 25.703125 53.5625 
Q 30.078125 56 35.796875 56 
Q 45.21875 56 50.046875 50.171875 
Q 54.890625 44.34375 54.890625 33.015625 
z
" id="DejaVuSans-110"/>
      <path d="M 44.28125 53.078125 
L 44.28125 44.578125 
Q 40.484375 46.53125 36.375 47.5 
Q 32.28125 48.484375 27.875 48.484375 
Q 21.1875 48.484375 17.84375 46.4375 
Q 14.5 44.390625 14.5 40.28125 
Q 14.5 37.15625 16.890625 35.375 
Q 19.28125 33.59375 26.515625 31.984375 
L 29.59375 31.296875 
Q 39.15625 29.25 43.1875 25.515625 
Q 47.21875 21.78125 47.21875 15.09375 
Q 47.21875 7.46875 41.1875 3.015625 
Q 35.15625 -1.421875 24.609375 -1.421875 
Q 20.21875 -1.421875 15.453125 -0.5625 
Q 10.6875 0.296875 5.421875 2 
L 5.421875 11.28125 
Q 10.40625 8.6875 15.234375 7.390625 
Q 20.0625 6.109375 24.8125 6.109375 
Q 31.15625 6.109375 34.5625 8.28125 
Q 37.984375 10.453125 37.984375 14.40625 
Q 37.984375 18.0625 35.515625 20.015625 
Q 33.0625 21.96875 24.703125 23.78125 
L 21.578125 24.515625 
Q 13.234375 26.265625 9.515625 29.90625 
Q 5.8125 33.546875 5.8125 39.890625 
Q 5.8125 47.609375 11.28125 51.796875 
Q 16.75 56 26.8125 56 
Q 31.78125 56 36.171875 55.265625 
Q 40.578125 54.546875 44.28125 53.078125 
z
" id="DejaVuSans-115"/>
      <path d="M 9.421875 54.6875 
L 18.40625 54.6875 
L 18.40625 0 
L 9.421875 0 
z
M 9.421875 75.984375 
L 18.40625 75.984375 
L 18.40625 64.59375 
L 9.421875 64.59375 
z
" id="DejaVuSans-105"/>
      <path d="M 18.3125 70.21875 
L 18.3125 54.6875 
L 36.8125 54.6875 
L 36.8125 47.703125 
L 18.3125 47.703125 
L 18.3125 18.015625 
Q 18.3125 11.328125 20.140625 9.421875 
Q 21.96875 7.515625 27.59375 7.515625 
L 36.8125 7.515625 
L 36.8125 0 
L 27.59375 0 
Q 17.1875 0 13.234375 3.875 
Q 9.28125 7.765625 9.28125 18.015625 
L 9.28125 47.703125 
L 2.6875 47.703125 
L 2.6875 54.6875 
L 9.28125 54.6875 
L 9.28125 70.21875 
z
" id="DejaVuSans-116"/>
      <path d="M 32.171875 -5.078125 
Q 28.375 -14.84375 24.75 -17.8125 
Q 21.140625 -20.796875 15.09375 -20.796875 
L 7.90625 -20.796875 
L 7.90625 -13.28125 
L 13.1875 -13.28125 
Q 16.890625 -13.28125 18.9375 -11.515625 
Q 21 -9.765625 23.484375 -3.21875 
L 25.09375 0.875 
L 2.984375 54.6875 
L 12.5 54.6875 
L 29.59375 11.921875 
L 46.6875 54.6875 
L 56.203125 54.6875 
z
" id="DejaVuSans-121"/>
     </defs>
     <g transform="translate(14.798438 150.046719)rotate(-90)scale(0.1 -0.1)">
      <use xlink:href="#DejaVuSans-68"/>
      <use x="77.001953" xlink:href="#DejaVuSans-101"/>
      <use x="138.525391" xlink:href="#DejaVuSans-110"/>
      <use x="201.904297" xlink:href="#DejaVuSans-115"/>
      <use x="254.003906" xlink:href="#DejaVuSans-105"/>
      <use x="281.787109" xlink:href="#DejaVuSans-116"/>
      <use x="320.996094" xlink:href="#DejaVuSans-121"/>
     </g>
    </g>
   </g>
   <g id="line2d_14">
    <path clip-path="url(#pb470b70ca3)" d="M 58.999432 239.758125 
L 130.596483 239.66468 
L 132.424493 239.411815 
L 134.252503 238.909663 
L 139.736533 237.009865 
L 141.259874 236.160936 
L 142.478547 235.249889 
L 143.087884 234.603565 
L 143.697221 233.6763 
L 144.306557 232.267873 
L 144.915894 230.104004 
L 145.52523 226.847317 
L 146.134567 222.12652 
L 146.743904 215.584283 
L 147.35324 206.939399 
L 148.267245 189.779533 
L 149.18125 168.026149 
L 152.532601 80.570957 
L 153.446606 64.597729 
L 154.055943 57.106394 
L 154.665279 52.088638 
L 155.274616 49.29894 
L 155.579284 48.621184 
L 155.883953 48.34256 
L 156.188621 48.396297 
L 156.493289 48.711534 
L 157.102626 49.834568 
L 158.016631 51.70918 
L 158.625967 52.427786 
L 158.930636 52.522939 
L 159.235304 52.428141 
L 159.539972 52.152558 
L 160.149309 51.173494 
L 161.063314 49.422091 
L 161.367982 49.044181 
L 161.67265 48.902756 
L 161.977319 49.078262 
L 162.281987 49.646403 
L 162.586655 50.674723 
L 163.195992 54.322929 
L 163.805329 60.292529 
L 164.414665 68.575117 
L 165.32867 84.601457 
L 167.766017 131.488106 
L 168.375353 139.837274 
L 168.98469 145.676387 
L 169.594026 148.813071 
L 169.898695 149.374283 
L 170.203363 149.294661 
L 170.508031 148.6114 
L 170.8127 147.370773 
L 171.422036 143.435353 
L 172.336041 134.802325 
L 175.992061 95.577664 
L 176.601397 91.742856 
L 177.210734 89.385422 
L 177.515402 88.813539 
L 177.820071 88.663536 
L 178.124739 88.939802 
L 178.429407 89.638738 
L 179.038744 92.24669 
L 179.64808 96.282764 
L 180.562085 104.256687 
L 182.999432 126.894567 
L 184.218105 135.380119 
L 189.092798 164.755083 
L 189.702135 167.034209 
L 190.311471 168.414229 
L 190.616139 168.741401 
L 190.920808 168.822922 
L 191.225476 168.662115 
L 191.530144 168.267026 
L 192.139481 166.828502 
L 192.748818 164.657352 
L 193.967491 159.000617 
L 195.186164 153.44837 
L 195.795501 151.456473 
L 196.404837 150.34454 
L 196.709506 150.183125 
L 197.014174 150.309316 
L 197.318842 150.734376 
L 197.62351 151.463428 
L 198.232847 153.822916 
L 198.842184 157.307711 
L 199.756189 164.273583 
L 201.27953 178.579756 
L 203.412208 198.702785 
L 204.630881 208.503733 
L 205.849555 216.647883 
L 206.76356 221.512906 
L 207.677564 225.174339 
L 208.286901 226.911565 
L 208.896238 228.095774 
L 209.505574 228.766501 
L 210.114911 228.986306 
L 210.724248 228.832035 
L 211.333584 228.385519 
L 212.247589 227.342479 
L 214.684936 224.213985 
L 215.294272 223.794172 
L 215.903609 223.675452 
L 216.512945 223.905822 
L 217.122282 224.49822 
L 217.731619 225.425589 
L 218.645623 227.296801 
L 221.387638 233.372791 
L 222.301643 234.708666 
L 222.91098 235.30966 
L 223.520316 235.676542 
L 224.129653 235.815996 
L 224.73899 235.740724 
L 225.348326 235.470852 
L 226.262331 234.771759 
L 229.004346 232.309561 
L 229.613682 232.079512 
L 230.223019 232.042283 
L 230.832356 232.190043 
L 231.746361 232.693864 
L 232.965034 233.68049 
L 236.316385 236.546255 
L 238.144395 237.799445 
L 239.667736 238.598522 
L 241.191078 239.140269 
L 242.71442 239.445638 
L 244.847098 239.619452 
L 250.635795 239.748408 
L 267.392552 239.755659 
L 272.876582 239.62896 
L 278.055943 239.497965 
L 285.063314 239.417161 
L 297.250046 239.758061 
L 363.363068 239.758125 
L 363.363068 239.758125 
" style="fill:none;stroke:#ff7f0e;stroke-linecap:square;stroke-width:1.5;"/>
   </g>
   <g id="patch_33">
    <path d="M 43.78125 239.758125 
L 43.78125 22.318125 
" style="fill:none;stroke:#000000;stroke-linecap:square;stroke-linejoin:miter;stroke-width:0.8;"/>
   </g>
   <g id="patch_34">
    <path d="M 378.58125 239.758125 
L 378.58125 22.318125 
" style="fill:none;stroke:#000000;stroke-linecap:square;stroke-linejoin:miter;stroke-width:0.8;"/>
   </g>
   <g id="patch_35">
    <path d="M 43.78125 239.758125 
L 378.58125 239.758125 
" style="fill:none;stroke:#000000;stroke-linecap:square;stroke-linejoin:miter;stroke-width:0.8;"/>
   </g>
   <g id="patch_36">
    <path d="M 43.78125 22.318125 
L 378.58125 22.318125 
" style="fill:none;stroke:#000000;stroke-linecap:square;stroke-linejoin:miter;stroke-width:0.8;"/>
   </g>
   <g id="text_15">
    <!-- long -->
    <defs>
     <path d="M 9.421875 75.984375 
L 18.40625 75.984375 
L 18.40625 0 
L 9.421875 0 
z
" id="DejaVuSans-108"/>
     <path d="M 30.609375 48.390625 
Q 23.390625 48.390625 19.1875 42.75 
Q 14.984375 37.109375 14.984375 27.296875 
Q 14.984375 17.484375 19.15625 11.84375 
Q 23.34375 6.203125 30.609375 6.203125 
Q 37.796875 6.203125 41.984375 11.859375 
Q 46.1875 17.53125 46.1875 27.296875 
Q 46.1875 37.015625 41.984375 42.703125 
Q 37.796875 48.390625 30.609375 48.390625 
z
M 30.609375 56 
Q 42.328125 56 49.015625 48.375 
Q 55.71875 40.765625 55.71875 27.296875 
Q 55.71875 13.875 49.015625 6.21875 
Q 42.328125 -1.421875 30.609375 -1.421875 
Q 18.84375 -1.421875 12.171875 6.21875 
Q 5.515625 13.875 5.515625 27.296875 
Q 5.515625 40.765625 12.171875 48.375 
Q 18.84375 56 30.609375 56 
z
" id="DejaVuSans-111"/>
     <path d="M 45.40625 27.984375 
Q 45.40625 37.75 41.375 43.109375 
Q 37.359375 48.484375 30.078125 48.484375 
Q 22.859375 48.484375 18.828125 43.109375 
Q 14.796875 37.75 14.796875 27.984375 
Q 14.796875 18.265625 18.828125 12.890625 
Q 22.859375 7.515625 30.078125 7.515625 
Q 37.359375 7.515625 41.375 12.890625 
Q 45.40625 18.265625 45.40625 27.984375 
z
M 54.390625 6.78125 
Q 54.390625 -7.171875 48.1875 -13.984375 
Q 42 -20.796875 29.203125 -20.796875 
Q 24.46875 -20.796875 20.265625 -20.09375 
Q 16.0625 -19.390625 12.109375 -17.921875 
L 12.109375 -9.1875 
Q 16.0625 -11.328125 19.921875 -12.34375 
Q 23.78125 -13.375 27.78125 -13.375 
Q 36.625 -13.375 41.015625 -8.765625 
Q 45.40625 -4.15625 45.40625 5.171875 
L 45.40625 9.625 
Q 42.625 4.78125 38.28125 2.390625 
Q 33.9375 0 27.875 0 
Q 17.828125 0 11.671875 7.65625 
Q 5.515625 15.328125 5.515625 27.984375 
Q 5.515625 40.671875 11.671875 48.328125 
Q 17.828125 56 27.875 56 
Q 33.9375 56 38.28125 53.609375 
Q 42.625 51.21875 45.40625 46.390625 
L 45.40625 54.6875 
L 54.390625 54.6875 
z
" id="DejaVuSans-103"/>
    </defs>
    <g transform="translate(198.231562 16.318125)scale(0.12 -0.12)">
     <use xlink:href="#DejaVuSans-108"/>
     <use x="27.783203" xlink:href="#DejaVuSans-111"/>
     <use x="88.964844" xlink:href="#DejaVuSans-110"/>
     <use x="152.34375" xlink:href="#DejaVuSans-103"/>
    </g>
   </g>
   <g id="legend_1">
    <g id="patch_37">
     <path d="M 317.998438 59.674375 
L 371.58125 59.674375 
Q 373.58125 59.674375 373.58125 57.674375 
L 373.58125 29.318125 
Q 373.58125 27.318125 371.58125 27.318125 
L 317.998438 27.318125 
Q 315.998438 27.318125 315.998438 29.318125 
L 315.998438 57.674375 
Q 315.998438 59.674375 317.998438 59.674375 
z
" style="fill:#ffffff;opacity:0.8;stroke:#cccccc;stroke-linejoin:miter;"/>
    </g>
    <g id="line2d_15">
     <path d="M 319.998438 35.416562 
L 339.998438 35.416562 
" style="fill:none;stroke:#ff7f0e;stroke-linecap:square;stroke-width:1.5;"/>
    </g>
    <g id="line2d_16"/>
    <g id="text_16">
     <!-- long -->
     <g transform="translate(347.998438 38.916562)scale(0.1 -0.1)">
      <use xlink:href="#DejaVuSans-108"/>
      <use x="27.783203" xlink:href="#DejaVuSans-111"/>
      <use x="88.964844" xlink:href="#DejaVuSans-110"/>
      <use x="152.34375" xlink:href="#DejaVuSans-103"/>
     </g>
    </g>
    <g id="patch_38">
     <path d="M 319.998438 53.594687 
L 339.998438 53.594687 
L 339.998438 46.594687 
L 319.998438 46.594687 
z
" style="fill:#1f77b4;opacity:0.85;"/>
    </g>
    <g id="text_17">
     <!-- long -->
     <g transform="translate(347.998438 53.594687)scale(0.1 -0.1)">
      <use xlink:href="#DejaVuSans-108"/>
      <use x="27.783203" xlink:href="#DejaVuSans-111"/>
      <use x="88.964844" xlink:href="#DejaVuSans-110"/>
      <use x="152.34375" xlink:href="#DejaVuSans-103"/>
     </g>
    </g>
   </g>
  </g>
 </g>
 <defs>
  <clipPath id="pb470b70ca3">
   <rect height="217.44" width="334.8" x="43.78125" y="22.318125"/>
  </clipPath>
 </defs>
</svg>
