<?xml version="1.0" encoding="utf-8" standalone="no"?>
<!DOCTYPE svg PUBLIC "-//W3C//DTD SVG 1.1//EN"
  "http://www.w3.org/Graphics/SVG/1.1/DTD/svg11.dtd">
<!-- Created with matplotlib (https://matplotlib.org/) -->
<svg height="261.19625pt" version="1.1" viewBox="0 0 402.754687 261.19625" width="402.754687pt" xmlns="http://www.w3.org/2000/svg" xmlns:xlink="http://www.w3.org/1999/xlink">
 <defs>
  <style type="text/css">
*{stroke-linecap:butt;stroke-linejoin:round;}
  </style>
 </defs>
 <g id="figure_1">
  <g id="patch_1">
   <path d="M 0 261.19625 
L 402.754687 261.19625 
L 402.754687 0 
L 0 0 
z
" style="fill:none;"/>
  </g>
  <g id="axes_1">
   <g id="patch_2">
    <path d="M 60.754688 224.64 
L 395.554688 224.64 
L 395.554688 7.2 
L 60.754688 7.2 
z
" style="fill:#ffffff;"/>
   </g>
   <g id="PathCollection_1">
    <defs>
     <path d="M 0 3 
C 0.795609 3 1.55874 2.683901 2.12132 2.12132 
C 2.683901 1.55874 3 0.795609 3 0 
C 3 -0.795609 2.683901 -1.55874 2.12132 -2.12132 
C 1.55874 -2.683901 0.795609 -3 0 -3 
C -0.795609 -3 -1.55874 -2.683901 -2.12132 -2.12132 
C -2.683901 -1.55874 -3 -0.795609 -3 0 
C -3 0.795609 -2.683901 1.55874 -2.12132 2.12132 
C -1.55874 2.683901 -0.795609 3 0 3 
z
" id="md1250caaff" style="stroke:#1f77b4;"/>
    </defs>
    <g clip-path="url(#p39b72196da)">
     <use style="fill:#1f77b4;stroke:#1f77b4;" x="235.618304" xlink:href="#md1250caaff" y="126.967995"/>
     <use style="fill:#1f77b4;stroke:#1f77b4;" x="163.525777" xlink:href="#md1250caaff" y="92.507274"/>
     <use style="fill:#1f77b4;stroke:#1f77b4;" x="172.103376" xlink:href="#md1250caaff" y="91.145068"/>
     <use style="fill:#1f77b4;stroke:#1f77b4;" x="188.020443" xlink:href="#md1250caaff" y="108.750052"/>
     <use style="fill:#1f77b4;stroke:#1f77b4;" x="146.823832" xlink:href="#md1250caaff" y="79.921221"/>
     <use style="fill:#1f77b4;stroke:#1f77b4;" x="166.308556" xlink:href="#md1250caaff" y="106.18674"/>
     <use style="fill:#1f77b4;stroke:#1f77b4;" x="234.303295" xlink:href="#md1250caaff" y="86.438953"/>
     <use style="fill:#1f77b4;stroke:#1f77b4;" x="228.11936" xlink:href="#md1250caaff" y="112.553181"/>
     <use style="fill:#1f77b4;stroke:#1f77b4;" x="219.237084" xlink:href="#md1250caaff" y="116.105363"/>
     <use style="fill:#1f77b4;stroke:#1f77b4;" x="180.206271" xlink:href="#md1250caaff" y="103.442463"/>
     <use style="fill:#1f77b4;stroke:#1f77b4;" x="164.194228" xlink:href="#md1250caaff" y="77.087718"/>
     <use style="fill:#1f77b4;stroke:#1f77b4;" x="238.612406" xlink:href="#md1250caaff" y="75.447899"/>
     <use style="fill:#1f77b4;stroke:#1f77b4;" x="178.682566" xlink:href="#md1250caaff" y="82.603552"/>
     <use style="fill:#1f77b4;stroke:#1f77b4;" x="187.58376" xlink:href="#md1250caaff" y="95.74505"/>
     <use style="fill:#1f77b4;stroke:#1f77b4;" x="177.246289" xlink:href="#md1250caaff" y="101.479655"/>
     <use style="fill:#1f77b4;stroke:#1f77b4;" x="216.441259" xlink:href="#md1250caaff" y="73.335417"/>
     <use style="fill:#1f77b4;stroke:#1f77b4;" x="218.917163" xlink:href="#md1250caaff" y="125.335372"/>
     <use style="fill:#1f77b4;stroke:#1f77b4;" x="191.517217" xlink:href="#md1250caaff" y="115.663996"/>
     <use style="fill:#1f77b4;stroke:#1f77b4;" x="266.848486" xlink:href="#md1250caaff" y="62.697824"/>
     <use style="fill:#1f77b4;stroke:#1f77b4;" x="157.499724" xlink:href="#md1250caaff" y="93.421228"/>
     <use style="fill:#1f77b4;stroke:#1f77b4;" x="201.15839" xlink:href="#md1250caaff" y="99.710774"/>
     <use style="fill:#1f77b4;stroke:#1f77b4;" x="125.91601" xlink:href="#md1250caaff" y="17.083636"/>
     <use style="fill:#1f77b4;stroke:#1f77b4;" x="179.088587" xlink:href="#md1250caaff" y="102.70131"/>
     <use style="fill:#1f77b4;stroke:#1f77b4;" x="192.649541" xlink:href="#md1250caaff" y="82.737847"/>
     <use style="fill:#1f77b4;stroke:#1f77b4;" x="303.081961" xlink:href="#md1250caaff" y="116.939668"/>
     <use style="fill:#1f77b4;stroke:#1f77b4;" x="253.628675" xlink:href="#md1250caaff" y="126.950881"/>
     <use style="fill:#1f77b4;stroke:#1f77b4;" x="123.962567" xlink:href="#md1250caaff" y="90.821916"/>
     <use style="fill:#1f77b4;stroke:#1f77b4;" x="154.487898" xlink:href="#md1250caaff" y="97.592914"/>
     <use style="fill:#1f77b4;stroke:#1f77b4;" x="222.294883" xlink:href="#md1250caaff" y="55.814831"/>
     <use style="fill:#1f77b4;stroke:#1f77b4;" x="100.041377" xlink:href="#md1250caaff" y="84.905152"/>
     <use style="fill:#1f77b4;stroke:#1f77b4;" x="229.802327" xlink:href="#md1250caaff" y="79.677434"/>
     <use style="fill:#1f77b4;stroke:#1f77b4;" x="260.938861" xlink:href="#md1250caaff" y="160.880203"/>
     <use style="fill:#1f77b4;stroke:#1f77b4;" x="256.651563" xlink:href="#md1250caaff" y="93.704701"/>
     <use style="fill:#1f77b4;stroke:#1f77b4;" x="178.387047" xlink:href="#md1250caaff" y="79.574943"/>
     <use style="fill:#1f77b4;stroke:#1f77b4;" x="205.215689" xlink:href="#md1250caaff" y="111.843382"/>
     <use style="fill:#1f77b4;stroke:#1f77b4;" x="180.217251" xlink:href="#md1250caaff" y="86.076184"/>
     <use style="fill:#1f77b4;stroke:#1f77b4;" x="161.292394" xlink:href="#md1250caaff" y="108.651635"/>
     <use style="fill:#1f77b4;stroke:#1f77b4;" x="364.190097" xlink:href="#md1250caaff" y="214.756364"/>
     <use style="fill:#1f77b4;stroke:#1f77b4;" x="291.567212" xlink:href="#md1250caaff" y="79.089179"/>
     <use style="fill:#1f77b4;stroke:#1f77b4;" x="167.866972" xlink:href="#md1250caaff" y="85.61021"/>
     <use style="fill:#1f77b4;stroke:#1f77b4;" x="174.94862" xlink:href="#md1250caaff" y="102.473943"/>
     <use style="fill:#1f77b4;stroke:#1f77b4;" x="185.370863" xlink:href="#md1250caaff" y="94.39095"/>
     <use style="fill:#1f77b4;stroke:#1f77b4;" x="169.508927" xlink:href="#md1250caaff" y="78.849439"/>
     <use style="fill:#1f77b4;stroke:#1f77b4;" x="295.722048" xlink:href="#md1250caaff" y="138.497226"/>
     <use style="fill:#1f77b4;stroke:#1f77b4;" x="174.473767" xlink:href="#md1250caaff" y="91.457955"/>
     <use style="fill:#1f77b4;stroke:#1f77b4;" x="281.31485" xlink:href="#md1250caaff" y="120.130923"/>
     <use style="fill:#1f77b4;stroke:#1f77b4;" x="253.101025" xlink:href="#md1250caaff" y="64.91226"/>
     <use style="fill:#1f77b4;stroke:#1f77b4;" x="138.739252" xlink:href="#md1250caaff" y="104.649207"/>
     <use style="fill:#1f77b4;stroke:#1f77b4;" x="146.471627" xlink:href="#md1250caaff" y="76.980918"/>
     <use style="fill:#1f77b4;stroke:#1f77b4;" x="245.99377" xlink:href="#md1250caaff" y="118.111201"/>
     <use style="fill:#1f77b4;stroke:#1f77b4;" x="155.703842" xlink:href="#md1250caaff" y="94.748259"/>
     <use style="fill:#1f77b4;stroke:#1f77b4;" x="141.099452" xlink:href="#md1250caaff" y="88.840731"/>
     <use style="fill:#1f77b4;stroke:#1f77b4;" x="120.417379" xlink:href="#md1250caaff" y="78.273524"/>
     <use style="fill:#1f77b4;stroke:#1f77b4;" x="218.872276" xlink:href="#md1250caaff" y="98.86758"/>
     <use style="fill:#1f77b4;stroke:#1f77b4;" x="154.677689" xlink:href="#md1250caaff" y="92.808848"/>
     <use style="fill:#1f77b4;stroke:#1f77b4;" x="212.890218" xlink:href="#md1250caaff" y="113.155616"/>
     <use style="fill:#1f77b4;stroke:#1f77b4;" x="178.508368" xlink:href="#md1250caaff" y="65.806903"/>
     <use style="fill:#1f77b4;stroke:#1f77b4;" x="295.197119" xlink:href="#md1250caaff" y="96.603669"/>
     <use style="fill:#1f77b4;stroke:#1f77b4;" x="129.875343" xlink:href="#md1250caaff" y="71.955705"/>
     <use style="fill:#1f77b4;stroke:#1f77b4;" x="250.541448" xlink:href="#md1250caaff" y="99.724622"/>
     <use style="fill:#1f77b4;stroke:#1f77b4;" x="75.972869" xlink:href="#md1250caaff" y="65.294"/>
     <use style="fill:#1f77b4;stroke:#1f77b4;" x="268.643055" xlink:href="#md1250caaff" y="66.405737"/>
     <use style="fill:#1f77b4;stroke:#1f77b4;" x="169.800209" xlink:href="#md1250caaff" y="74.51036"/>
     <use style="fill:#1f77b4;stroke:#1f77b4;" x="221.961663" xlink:href="#md1250caaff" y="93.362477"/>
     <use style="fill:#1f77b4;stroke:#1f77b4;" x="242.08415" xlink:href="#md1250caaff" y="125.590302"/>
     <use style="fill:#1f77b4;stroke:#1f77b4;" x="241.003229" xlink:href="#md1250caaff" y="74.515382"/>
     <use style="fill:#1f77b4;stroke:#1f77b4;" x="252.028899" xlink:href="#md1250caaff" y="79.308761"/>
     <use style="fill:#1f77b4;stroke:#1f77b4;" x="143.062789" xlink:href="#md1250caaff" y="89.714605"/>
     <use style="fill:#1f77b4;stroke:#1f77b4;" x="304.548993" xlink:href="#md1250caaff" y="111.617711"/>
     <use style="fill:#1f77b4;stroke:#1f77b4;" x="292.174179" xlink:href="#md1250caaff" y="76.973761"/>
     <use style="fill:#1f77b4;stroke:#1f77b4;" x="224.323244" xlink:href="#md1250caaff" y="86.115801"/>
     <use style="fill:#1f77b4;stroke:#1f77b4;" x="282.383853" xlink:href="#md1250caaff" y="69.222696"/>
     <use style="fill:#1f77b4;stroke:#1f77b4;" x="162.229363" xlink:href="#md1250caaff" y="92.151184"/>
     <use style="fill:#1f77b4;stroke:#1f77b4;" x="94.65727" xlink:href="#md1250caaff" y="68.115857"/>
     <use style="fill:#1f77b4;stroke:#1f77b4;" x="127.269913" xlink:href="#md1250caaff" y="106.108184"/>
     <use style="fill:#1f77b4;stroke:#1f77b4;" x="201.422229" xlink:href="#md1250caaff" y="119.035925"/>
     <use style="fill:#1f77b4;stroke:#1f77b4;" x="252.127241" xlink:href="#md1250caaff" y="88.186648"/>
     <use style="fill:#1f77b4;stroke:#1f77b4;" x="230.92528" xlink:href="#md1250caaff" y="86.716848"/>
     <use style="fill:#1f77b4;stroke:#1f77b4;" x="188.510378" xlink:href="#md1250caaff" y="98.877411"/>
     <use style="fill:#1f77b4;stroke:#1f77b4;" x="240.899605" xlink:href="#md1250caaff" y="63.116085"/>
     <use style="fill:#1f77b4;stroke:#1f77b4;" x="180.610749" xlink:href="#md1250caaff" y="114.411784"/>
     <use style="fill:#1f77b4;stroke:#1f77b4;" x="259.163345" xlink:href="#md1250caaff" y="79.003904"/>
     <use style="fill:#1f77b4;stroke:#1f77b4;" x="300.75265" xlink:href="#md1250caaff" y="91.474948"/>
     <use style="fill:#1f77b4;stroke:#1f77b4;" x="264.032538" xlink:href="#md1250caaff" y="134.101628"/>
     <use style="fill:#1f77b4;stroke:#1f77b4;" x="151.485228" xlink:href="#md1250caaff" y="103.281416"/>
     <use style="fill:#1f77b4;stroke:#1f77b4;" x="144.360759" xlink:href="#md1250caaff" y="93.521259"/>
     <use style="fill:#1f77b4;stroke:#1f77b4;" x="164.759593" xlink:href="#md1250caaff" y="86.904772"/>
     <use style="fill:#1f77b4;stroke:#1f77b4;" x="207.251223" xlink:href="#md1250caaff" y="110.045791"/>
     <use style="fill:#1f77b4;stroke:#1f77b4;" x="177.722684" xlink:href="#md1250caaff" y="51.437414"/>
     <use style="fill:#1f77b4;stroke:#1f77b4;" x="228.260899" xlink:href="#md1250caaff" y="81.173197"/>
     <use style="fill:#1f77b4;stroke:#1f77b4;" x="192.936883" xlink:href="#md1250caaff" y="99.798367"/>
     <use style="fill:#1f77b4;stroke:#1f77b4;" x="174.49676" xlink:href="#md1250caaff" y="121.713268"/>
     <use style="fill:#1f77b4;stroke:#1f77b4;" x="205.926695" xlink:href="#md1250caaff" y="109.167476"/>
     <use style="fill:#1f77b4;stroke:#1f77b4;" x="176.757158" xlink:href="#md1250caaff" y="91.083676"/>
     <use style="fill:#1f77b4;stroke:#1f77b4;" x="192.888255" xlink:href="#md1250caaff" y="23.725322"/>
     <use style="fill:#1f77b4;stroke:#1f77b4;" x="178.43617" xlink:href="#md1250caaff" y="95.973915"/>
     <use style="fill:#1f77b4;stroke:#1f77b4;" x="236.978723" xlink:href="#md1250caaff" y="122.519556"/>
     <use style="fill:#1f77b4;stroke:#1f77b4;" x="170.580624" xlink:href="#md1250caaff" y="64.326758"/>
     <use style="fill:#1f77b4;stroke:#1f77b4;" x="162.957932" xlink:href="#md1250caaff" y="99.180868"/>
     <use style="fill:#1f77b4;stroke:#1f77b4;" x="268.788026" xlink:href="#md1250caaff" y="119.377921"/>
     <use style="fill:#1f77b4;stroke:#1f77b4;" x="264.279582" xlink:href="#md1250caaff" y="140.308424"/>
     <use style="fill:#1f77b4;stroke:#1f77b4;" x="226.267905" xlink:href="#md1250caaff" y="60.967309"/>
     <use style="fill:#1f77b4;stroke:#1f77b4;" x="134.169305" xlink:href="#md1250caaff" y="74.803095"/>
     <use style="fill:#1f77b4;stroke:#1f77b4;" x="165.837363" xlink:href="#md1250caaff" y="84.472074"/>
     <use style="fill:#1f77b4;stroke:#1f77b4;" x="239.762388" xlink:href="#md1250caaff" y="95.094774"/>
     <use style="fill:#1f77b4;stroke:#1f77b4;" x="173.558839" xlink:href="#md1250caaff" y="97.146021"/>
     <use style="fill:#1f77b4;stroke:#1f77b4;" x="155.932299" xlink:href="#md1250caaff" y="102.768212"/>
     <use style="fill:#1f77b4;stroke:#1f77b4;" x="187.432313" xlink:href="#md1250caaff" y="103.198344"/>
     <use style="fill:#1f77b4;stroke:#1f77b4;" x="283.067306" xlink:href="#md1250caaff" y="109.962421"/>
     <use style="fill:#1f77b4;stroke:#1f77b4;" x="210.014254" xlink:href="#md1250caaff" y="90.475786"/>
     <use style="fill:#1f77b4;stroke:#1f77b4;" x="260.169427" xlink:href="#md1250caaff" y="106.109078"/>
     <use style="fill:#1f77b4;stroke:#1f77b4;" x="255.839012" xlink:href="#md1250caaff" y="129.17196"/>
     <use style="fill:#1f77b4;stroke:#1f77b4;" x="234.566382" xlink:href="#md1250caaff" y="89.131318"/>
     <use style="fill:#1f77b4;stroke:#1f77b4;" x="159.412677" xlink:href="#md1250caaff" y="97.081747"/>
     <use style="fill:#1f77b4;stroke:#1f77b4;" x="320.824632" xlink:href="#md1250caaff" y="187.875919"/>
     <use style="fill:#1f77b4;stroke:#1f77b4;" x="365.169031" xlink:href="#md1250caaff" y="131.672503"/>
     <use style="fill:#1f77b4;stroke:#1f77b4;" x="210.803141" xlink:href="#md1250caaff" y="114.919028"/>
     <use style="fill:#1f77b4;stroke:#1f77b4;" x="162.638415" xlink:href="#md1250caaff" y="115.713075"/>
     <use style="fill:#1f77b4;stroke:#1f77b4;" x="186.701612" xlink:href="#md1250caaff" y="112.753961"/>
     <use style="fill:#1f77b4;stroke:#1f77b4;" x="217.250821" xlink:href="#md1250caaff" y="105.34609"/>
     <use style="fill:#1f77b4;stroke:#1f77b4;" x="304.329746" xlink:href="#md1250caaff" y="83.775345"/>
     <use style="fill:#1f77b4;stroke:#1f77b4;" x="176.466827" xlink:href="#md1250caaff" y="103.480689"/>
     <use style="fill:#1f77b4;stroke:#1f77b4;" x="223.021843" xlink:href="#md1250caaff" y="109.802418"/>
     <use style="fill:#1f77b4;stroke:#1f77b4;" x="223.109647" xlink:href="#md1250caaff" y="137.683517"/>
     <use style="fill:#1f77b4;stroke:#1f77b4;" x="157.094817" xlink:href="#md1250caaff" y="64.196794"/>
     <use style="fill:#1f77b4;stroke:#1f77b4;" x="184.930855" xlink:href="#md1250caaff" y="97.951572"/>
     <use style="fill:#1f77b4;stroke:#1f77b4;" x="164.293454" xlink:href="#md1250caaff" y="89.743053"/>
     <use style="fill:#1f77b4;stroke:#1f77b4;" x="131.789838" xlink:href="#md1250caaff" y="85.814771"/>
     <use style="fill:#1f77b4;stroke:#1f77b4;" x="124.604432" xlink:href="#md1250caaff" y="86.085836"/>
     <use style="fill:#1f77b4;stroke:#1f77b4;" x="253.396116" xlink:href="#md1250caaff" y="127.300249"/>
     <use style="fill:#1f77b4;stroke:#1f77b4;" x="268.59546" xlink:href="#md1250caaff" y="104.142784"/>
     <use style="fill:#1f77b4;stroke:#1f77b4;" x="181.270352" xlink:href="#md1250caaff" y="80.983324"/>
     <use style="fill:#1f77b4;stroke:#1f77b4;" x="255.232273" xlink:href="#md1250caaff" y="107.870992"/>
     <use style="fill:#1f77b4;stroke:#1f77b4;" x="237.90258" xlink:href="#md1250caaff" y="117.794216"/>
     <use style="fill:#1f77b4;stroke:#1f77b4;" x="136.350775" xlink:href="#md1250caaff" y="64.919078"/>
     <use style="fill:#1f77b4;stroke:#1f77b4;" x="275.984653" xlink:href="#md1250caaff" y="93.935225"/>
     <use style="fill:#1f77b4;stroke:#1f77b4;" x="150.252659" xlink:href="#md1250caaff" y="84.209253"/>
     <use style="fill:#1f77b4;stroke:#1f77b4;" x="163.216998" xlink:href="#md1250caaff" y="56.925921"/>
     <use style="fill:#1f77b4;stroke:#1f77b4;" x="189.033189" xlink:href="#md1250caaff" y="74.045022"/>
     <use style="fill:#1f77b4;stroke:#1f77b4;" x="229.760444" xlink:href="#md1250caaff" y="87.203382"/>
     <use style="fill:#1f77b4;stroke:#1f77b4;" x="229.529788" xlink:href="#md1250caaff" y="129.854854"/>
     <use style="fill:#1f77b4;stroke:#1f77b4;" x="229.623517" xlink:href="#md1250caaff" y="78.299908"/>
     <use style="fill:#1f77b4;stroke:#1f77b4;" x="165.969678" xlink:href="#md1250caaff" y="80.153476"/>
     <use style="fill:#1f77b4;stroke:#1f77b4;" x="246.809767" xlink:href="#md1250caaff" y="53.186712"/>
     <use style="fill:#1f77b4;stroke:#1f77b4;" x="247.299984" xlink:href="#md1250caaff" y="78.690854"/>
     <use style="fill:#1f77b4;stroke:#1f77b4;" x="280.137934" xlink:href="#md1250caaff" y="95.430374"/>
     <use style="fill:#1f77b4;stroke:#1f77b4;" x="138.727896" xlink:href="#md1250caaff" y="99.102281"/>
     <use style="fill:#1f77b4;stroke:#1f77b4;" x="193.596834" xlink:href="#md1250caaff" y="91.171524"/>
     <use style="fill:#1f77b4;stroke:#1f77b4;" x="158.248645" xlink:href="#md1250caaff" y="78.180928"/>
     <use style="fill:#1f77b4;stroke:#1f77b4;" x="164.408849" xlink:href="#md1250caaff" y="99.261725"/>
     <use style="fill:#1f77b4;stroke:#1f77b4;" x="257.9195" xlink:href="#md1250caaff" y="79.438046"/>
     <use style="fill:#1f77b4;stroke:#1f77b4;" x="224.81625" xlink:href="#md1250caaff" y="130.506098"/>
     <use style="fill:#1f77b4;stroke:#1f77b4;" x="166.716776" xlink:href="#md1250caaff" y="99.533192"/>
     <use style="fill:#1f77b4;stroke:#1f77b4;" x="164.701527" xlink:href="#md1250caaff" y="95.678943"/>
     <use style="fill:#1f77b4;stroke:#1f77b4;" x="176.852053" xlink:href="#md1250caaff" y="96.182417"/>
     <use style="fill:#1f77b4;stroke:#1f77b4;" x="295.692124" xlink:href="#md1250caaff" y="155.6621"/>
     <use style="fill:#1f77b4;stroke:#1f77b4;" x="290.177083" xlink:href="#md1250caaff" y="103.346437"/>
     <use style="fill:#1f77b4;stroke:#1f77b4;" x="234.167534" xlink:href="#md1250caaff" y="77.536253"/>
     <use style="fill:#1f77b4;stroke:#1f77b4;" x="158.630359" xlink:href="#md1250caaff" y="108.176576"/>
     <use style="fill:#1f77b4;stroke:#1f77b4;" x="251.450584" xlink:href="#md1250caaff" y="129.283417"/>
     <use style="fill:#1f77b4;stroke:#1f77b4;" x="172.09312" xlink:href="#md1250caaff" y="101.839372"/>
     <use style="fill:#1f77b4;stroke:#1f77b4;" x="380.336506" xlink:href="#md1250caaff" y="129.140746"/>
     <use style="fill:#1f77b4;stroke:#1f77b4;" x="147.132758" xlink:href="#md1250caaff" y="92.212029"/>
     <use style="fill:#1f77b4;stroke:#1f77b4;" x="189.318412" xlink:href="#md1250caaff" y="44.019271"/>
     <use style="fill:#1f77b4;stroke:#1f77b4;" x="240.496816" xlink:href="#md1250caaff" y="86.769108"/>
     <use style="fill:#1f77b4;stroke:#1f77b4;" x="167.818491" xlink:href="#md1250caaff" y="109.705908"/>
     <use style="fill:#1f77b4;stroke:#1f77b4;" x="234.457865" xlink:href="#md1250caaff" y="105.425756"/>
     <use style="fill:#1f77b4;stroke:#1f77b4;" x="108.530449" xlink:href="#md1250caaff" y="84.680248"/>
     <use style="fill:#1f77b4;stroke:#1f77b4;" x="259.951441" xlink:href="#md1250caaff" y="119.813018"/>
     <use style="fill:#1f77b4;stroke:#1f77b4;" x="198.407827" xlink:href="#md1250caaff" y="52.564505"/>
     <use style="fill:#1f77b4;stroke:#1f77b4;" x="186.404108" xlink:href="#md1250caaff" y="88.03856"/>
     <use style="fill:#1f77b4;stroke:#1f77b4;" x="164.065882" xlink:href="#md1250caaff" y="115.02301"/>
     <use style="fill:#1f77b4;stroke:#1f77b4;" x="175.045781" xlink:href="#md1250caaff" y="115.127908"/>
     <use style="fill:#1f77b4;stroke:#1f77b4;" x="312.966592" xlink:href="#md1250caaff" y="171.460448"/>
     <use style="fill:#1f77b4;stroke:#1f77b4;" x="259.220821" xlink:href="#md1250caaff" y="57.639805"/>
     <use style="fill:#1f77b4;stroke:#1f77b4;" x="303.99658" xlink:href="#md1250caaff" y="96.143954"/>
     <use style="fill:#1f77b4;stroke:#1f77b4;" x="252.201261" xlink:href="#md1250caaff" y="50.467123"/>
    </g>
   </g>
   <g id="matplotlib.axis_1">
    <g id="xtick_1">
     <g id="line2d_1">
      <defs>
       <path d="M 0 0 
L 0 3.5 
" id="m974bc06ee4" style="stroke:#000000;stroke-width:0.8;"/>
      </defs>
      <g>
       <use style="stroke:#000000;stroke-width:0.8;" x="97.668205" xlink:href="#m974bc06ee4" y="224.64"/>
      </g>
     </g>
     <g id="text_1">
      <!-- 0.4 -->
      <defs>
       <path d="M 31.78125 66.40625 
Q 24.171875 66.40625 20.328125 58.90625 
Q 16.5 51.421875 16.5 36.375 
Q 16.5 21.390625 20.328125 13.890625 
Q 24.171875 6.390625 31.78125 6.390625 
Q 39.453125 6.390625 43.28125 13.890625 
Q 47.125 21.390625 47.125 36.375 
Q 47.125 51.421875 43.28125 58.90625 
Q 39.453125 66.40625 31.78125 66.40625 
z
M 31.78125 74.21875 
Q 44.046875 74.21875 50.515625 64.515625 
Q 56.984375 54.828125 56.984375 36.375 
Q 56.984375 17.96875 50.515625 8.265625 
Q 44.046875 -1.421875 31.78125 -1.421875 
Q 19.53125 -1.421875 13.0625 8.265625 
Q 6.59375 17.96875 6.59375 36.375 
Q 6.59375 54.828125 13.0625 64.515625 
Q 19.53125 74.21875 31.78125 74.21875 
z
" id="DejaVuSans-48"/>
       <path d="M 10.6875 12.40625 
L 21 12.40625 
L 21 0 
L 10.6875 0 
z
" id="DejaVuSans-46"/>
       <path d="M 37.796875 64.3125 
L 12.890625 25.390625 
L 37.796875 25.390625 
z
M 35.203125 72.90625 
L 47.609375 72.90625 
L 47.609375 25.390625 
L 58.015625 25.390625 
L 58.015625 17.1875 
L 47.609375 17.1875 
L 47.609375 0 
L 37.796875 0 
L 37.796875 17.1875 
L 4.890625 17.1875 
L 4.890625 26.703125 
z
" id="DejaVuSans-52"/>
      </defs>
      <g transform="translate(89.716642 239.238437)scale(0.1 -0.1)">
       <use xlink:href="#DejaVuSans-48"/>
       <use x="63.623047" xlink:href="#DejaVuSans-46"/>
       <use x="95.410156" xlink:href="#DejaVuSans-52"/>
      </g>
     </g>
    </g>
    <g id="xtick_2">
     <g id="line2d_2">
      <g>
       <use style="stroke:#000000;stroke-width:0.8;" x="135.639109" xlink:href="#m974bc06ee4" y="224.64"/>
      </g>
     </g>
     <g id="text_2">
      <!-- 0.6 -->
      <defs>
       <path d="M 33.015625 40.375 
Q 26.375 40.375 22.484375 35.828125 
Q 18.609375 31.296875 18.609375 23.390625 
Q 18.609375 15.53125 22.484375 10.953125 
Q 26.375 6.390625 33.015625 6.390625 
Q 39.65625 6.390625 43.53125 10.953125 
Q 47.40625 15.53125 47.40625 23.390625 
Q 47.40625 31.296875 43.53125 35.828125 
Q 39.65625 40.375 33.015625 40.375 
z
M 52.59375 71.296875 
L 52.59375 62.3125 
Q 48.875 64.0625 45.09375 64.984375 
Q 41.3125 65.921875 37.59375 65.921875 
Q 27.828125 65.921875 22.671875 59.328125 
Q 17.53125 52.734375 16.796875 39.40625 
Q 19.671875 43.65625 24.015625 45.921875 
Q 28.375 48.1875 33.59375 48.1875 
Q 44.578125 48.1875 50.953125 41.515625 
Q 57.328125 34.859375 57.328125 23.390625 
Q 57.328125 12.15625 50.6875 5.359375 
Q 44.046875 -1.421875 33.015625 -1.421875 
Q 20.359375 -1.421875 13.671875 8.265625 
Q 6.984375 17.96875 6.984375 36.375 
Q 6.984375 53.65625 15.1875 63.9375 
Q 23.390625 74.21875 37.203125 74.21875 
Q 40.921875 74.21875 44.703125 73.484375 
Q 48.484375 72.75 52.59375 71.296875 
z
" id="DejaVuSans-54"/>
      </defs>
      <g transform="translate(127.687546 239.238437)scale(0.1 -0.1)">
       <use xlink:href="#DejaVuSans-48"/>
       <use x="63.623047" xlink:href="#DejaVuSans-46"/>
       <use x="95.410156" xlink:href="#DejaVuSans-54"/>
      </g>
     </g>
    </g>
    <g id="xtick_3">
     <g id="line2d_3">
      <g>
       <use style="stroke:#000000;stroke-width:0.8;" x="173.610013" xlink:href="#m974bc06ee4" y="224.64"/>
      </g>
     </g>
     <g id="text_3">
      <!-- 0.8 -->
      <defs>
       <path d="M 31.78125 34.625 
Q 24.75 34.625 20.71875 30.859375 
Q 16.703125 27.09375 16.703125 20.515625 
Q 16.703125 13.921875 20.71875 10.15625 
Q 24.75 6.390625 31.78125 6.390625 
Q 38.8125 6.390625 42.859375 10.171875 
Q 46.921875 13.96875 46.921875 20.515625 
Q 46.921875 27.09375 42.890625 30.859375 
Q 38.875 34.625 31.78125 34.625 
z
M 21.921875 38.8125 
Q 15.578125 40.375 12.03125 44.71875 
Q 8.5 49.078125 8.5 55.328125 
Q 8.5 64.0625 14.71875 69.140625 
Q 20.953125 74.21875 31.78125 74.21875 
Q 42.671875 74.21875 48.875 69.140625 
Q 55.078125 64.0625 55.078125 55.328125 
Q 55.078125 49.078125 51.53125 44.71875 
Q 48 40.375 41.703125 38.8125 
Q 48.828125 37.15625 52.796875 32.3125 
Q 56.78125 27.484375 56.78125 20.515625 
Q 56.78125 9.90625 50.3125 4.234375 
Q 43.84375 -1.421875 31.78125 -1.421875 
Q 19.734375 -1.421875 13.25 4.234375 
Q 6.78125 9.90625 6.78125 20.515625 
Q 6.78125 27.484375 10.78125 32.3125 
Q 14.796875 37.15625 21.921875 38.8125 
z
M 18.3125 54.390625 
Q 18.3125 48.734375 21.84375 45.5625 
Q 25.390625 42.390625 31.78125 42.390625 
Q 38.140625 42.390625 41.71875 45.5625 
Q 45.3125 48.734375 45.3125 54.390625 
Q 45.3125 60.0625 41.71875 63.234375 
Q 38.140625 66.40625 31.78125 66.40625 
Q 25.390625 66.40625 21.84375 63.234375 
Q 18.3125 60.0625 18.3125 54.390625 
z
" id="DejaVuSans-56"/>
      </defs>
      <g transform="translate(165.658451 239.238437)scale(0.1 -0.1)">
       <use xlink:href="#DejaVuSans-48"/>
       <use x="63.623047" xlink:href="#DejaVuSans-46"/>
       <use x="95.410156" xlink:href="#DejaVuSans-56"/>
      </g>
     </g>
    </g>
    <g id="xtick_4">
     <g id="line2d_4">
      <g>
       <use style="stroke:#000000;stroke-width:0.8;" x="211.580918" xlink:href="#m974bc06ee4" y="224.64"/>
      </g>
     </g>
     <g id="text_4">
      <!-- 1.0 -->
      <defs>
       <path d="M 12.40625 8.296875 
L 28.515625 8.296875 
L 28.515625 63.921875 
L 10.984375 60.40625 
L 10.984375 69.390625 
L 28.421875 72.90625 
L 38.28125 72.90625 
L 38.28125 8.296875 
L 54.390625 8.296875 
L 54.390625 0 
L 12.40625 0 
z
" id="DejaVuSans-49"/>
      </defs>
      <g transform="translate(203.629355 239.238437)scale(0.1 -0.1)">
       <use xlink:href="#DejaVuSans-49"/>
       <use x="63.623047" xlink:href="#DejaVuSans-46"/>
       <use x="95.410156" xlink:href="#DejaVuSans-48"/>
      </g>
     </g>
    </g>
    <g id="xtick_5">
     <g id="line2d_5">
      <g>
       <use style="stroke:#000000;stroke-width:0.8;" x="249.551822" xlink:href="#m974bc06ee4" y="224.64"/>
      </g>
     </g>
     <g id="text_5">
      <!-- 1.2 -->
      <defs>
       <path d="M 19.1875 8.296875 
L 53.609375 8.296875 
L 53.609375 0 
L 7.328125 0 
L 7.328125 8.296875 
Q 12.9375 14.109375 22.625 23.890625 
Q 32.328125 33.6875 34.8125 36.53125 
Q 39.546875 41.84375 41.421875 45.53125 
Q 43.3125 49.21875 43.3125 52.78125 
Q 43.3125 58.59375 39.234375 62.25 
Q 35.15625 65.921875 28.609375 65.921875 
Q 23.96875 65.921875 18.8125 64.3125 
Q 13.671875 62.703125 7.8125 59.421875 
L 7.8125 69.390625 
Q 13.765625 71.78125 18.9375 73 
Q 24.125 74.21875 28.421875 74.21875 
Q 39.75 74.21875 46.484375 68.546875 
Q 53.21875 62.890625 53.21875 53.421875 
Q 53.21875 48.921875 51.53125 44.890625 
Q 49.859375 40.875 45.40625 35.40625 
Q 44.1875 33.984375 37.640625 27.21875 
Q 31.109375 20.453125 19.1875 8.296875 
z
" id="DejaVuSans-50"/>
      </defs>
      <g transform="translate(241.600259 239.238437)scale(0.1 -0.1)">
       <use xlink:href="#DejaVuSans-49"/>
       <use x="63.623047" xlink:href="#DejaVuSans-46"/>
       <use x="95.410156" xlink:href="#DejaVuSans-50"/>
      </g>
     </g>
    </g>
    <g id="xtick_6">
     <g id="line2d_6">
      <g>
       <use style="stroke:#000000;stroke-width:0.8;" x="287.522726" xlink:href="#m974bc06ee4" y="224.64"/>
      </g>
     </g>
     <g id="text_6">
      <!-- 1.4 -->
      <g transform="translate(279.571164 239.238437)scale(0.1 -0.1)">
       <use xlink:href="#DejaVuSans-49"/>
       <use x="63.623047" xlink:href="#DejaVuSans-46"/>
       <use x="95.410156" xlink:href="#DejaVuSans-52"/>
      </g>
     </g>
    </g>
    <g id="xtick_7">
     <g id="line2d_7">
      <g>
       <use style="stroke:#000000;stroke-width:0.8;" x="325.493631" xlink:href="#m974bc06ee4" y="224.64"/>
      </g>
     </g>
     <g id="text_7">
      <!-- 1.6 -->
      <g transform="translate(317.542068 239.238437)scale(0.1 -0.1)">
       <use xlink:href="#DejaVuSans-49"/>
       <use x="63.623047" xlink:href="#DejaVuSans-46"/>
       <use x="95.410156" xlink:href="#DejaVuSans-54"/>
      </g>
     </g>
    </g>
    <g id="xtick_8">
     <g id="line2d_8">
      <g>
       <use style="stroke:#000000;stroke-width:0.8;" x="363.464535" xlink:href="#m974bc06ee4" y="224.64"/>
      </g>
     </g>
     <g id="text_8">
      <!-- 1.8 -->
      <g transform="translate(355.512972 239.238437)scale(0.1 -0.1)">
       <use xlink:href="#DejaVuSans-49"/>
       <use x="63.623047" xlink:href="#DejaVuSans-46"/>
       <use x="95.410156" xlink:href="#DejaVuSans-56"/>
      </g>
     </g>
    </g>
    <g id="text_9">
     <!-- 1e6 -->
     <defs>
      <path d="M 56.203125 29.59375 
L 56.203125 25.203125 
L 14.890625 25.203125 
Q 15.484375 15.921875 20.484375 11.0625 
Q 25.484375 6.203125 34.421875 6.203125 
Q 39.59375 6.203125 44.453125 7.46875 
Q 49.3125 8.734375 54.109375 11.28125 
L 54.109375 2.78125 
Q 49.265625 0.734375 44.1875 -0.34375 
Q 39.109375 -1.421875 33.890625 -1.421875 
Q 20.796875 -1.421875 13.15625 6.1875 
Q 5.515625 13.8125 5.515625 26.8125 
Q 5.515625 40.234375 12.765625 48.109375 
Q 20.015625 56 32.328125 56 
Q 43.359375 56 49.78125 48.890625 
Q 56.203125 41.796875 56.203125 29.59375 
z
M 47.21875 32.234375 
Q 47.125 39.59375 43.09375 43.984375 
Q 39.0625 48.390625 32.421875 48.390625 
Q 24.90625 48.390625 20.390625 44.140625 
Q 15.875 39.890625 15.1875 32.171875 
z
" id="DejaVuSans-101"/>
     </defs>
     <g transform="translate(376.676562 251.916562)scale(0.1 -0.1)">
      <use xlink:href="#DejaVuSans-49"/>
      <use x="63.623047" xlink:href="#DejaVuSans-101"/>
      <use x="125.146484" xlink:href="#DejaVuSans-54"/>
     </g>
    </g>
   </g>
   <g id="matplotlib.axis_2">
    <g id="ytick_1">
     <g id="line2d_9">
      <defs>
       <path d="M 0 0 
L -3.5 0 
" id="m8f0e8632fd" style="stroke:#000000;stroke-width:0.8;"/>
      </defs>
      <g>
       <use style="stroke:#000000;stroke-width:0.8;" x="60.754688" xlink:href="#m8f0e8632fd" y="199.784676"/>
      </g>
     </g>
     <g id="text_10">
      <!-- −800000 -->
      <defs>
       <path d="M 10.59375 35.5 
L 73.1875 35.5 
L 73.1875 27.203125 
L 10.59375 27.203125 
z
" id="DejaVuSans-8722"/>
      </defs>
      <g transform="translate(7.2 203.583895)scale(0.1 -0.1)">
       <use xlink:href="#DejaVuSans-8722"/>
       <use x="83.789062" xlink:href="#DejaVuSans-56"/>
       <use x="147.412109" xlink:href="#DejaVuSans-48"/>
       <use x="211.035156" xlink:href="#DejaVuSans-48"/>
       <use x="274.658203" xlink:href="#DejaVuSans-48"/>
       <use x="338.28125" xlink:href="#DejaVuSans-48"/>
       <use x="401.904297" xlink:href="#DejaVuSans-48"/>
      </g>
     </g>
    </g>
    <g id="ytick_2">
     <g id="line2d_10">
      <g>
       <use style="stroke:#000000;stroke-width:0.8;" x="60.754688" xlink:href="#m8f0e8632fd" y="174.605604"/>
      </g>
     </g>
     <g id="text_11">
      <!-- −600000 -->
      <g transform="translate(7.2 178.404822)scale(0.1 -0.1)">
       <use xlink:href="#DejaVuSans-8722"/>
       <use x="83.789062" xlink:href="#DejaVuSans-54"/>
       <use x="147.412109" xlink:href="#DejaVuSans-48"/>
       <use x="211.035156" xlink:href="#DejaVuSans-48"/>
       <use x="274.658203" xlink:href="#DejaVuSans-48"/>
       <use x="338.28125" xlink:href="#DejaVuSans-48"/>
       <use x="401.904297" xlink:href="#DejaVuSans-48"/>
      </g>
     </g>
    </g>
    <g id="ytick_3">
     <g id="line2d_11">
      <g>
       <use style="stroke:#000000;stroke-width:0.8;" x="60.754688" xlink:href="#m8f0e8632fd" y="149.426531"/>
      </g>
     </g>
     <g id="text_12">
      <!-- −400000 -->
      <g transform="translate(7.2 153.22575)scale(0.1 -0.1)">
       <use xlink:href="#DejaVuSans-8722"/>
       <use x="83.789062" xlink:href="#DejaVuSans-52"/>
       <use x="147.412109" xlink:href="#DejaVuSans-48"/>
       <use x="211.035156" xlink:href="#DejaVuSans-48"/>
       <use x="274.658203" xlink:href="#DejaVuSans-48"/>
       <use x="338.28125" xlink:href="#DejaVuSans-48"/>
       <use x="401.904297" xlink:href="#DejaVuSans-48"/>
      </g>
     </g>
    </g>
    <g id="ytick_4">
     <g id="line2d_12">
      <g>
       <use style="stroke:#000000;stroke-width:0.8;" x="60.754688" xlink:href="#m8f0e8632fd" y="124.247459"/>
      </g>
     </g>
     <g id="text_13">
      <!-- −200000 -->
      <g transform="translate(7.2 128.046677)scale(0.1 -0.1)">
       <use xlink:href="#DejaVuSans-8722"/>
       <use x="83.789062" xlink:href="#DejaVuSans-50"/>
       <use x="147.412109" xlink:href="#DejaVuSans-48"/>
       <use x="211.035156" xlink:href="#DejaVuSans-48"/>
       <use x="274.658203" xlink:href="#DejaVuSans-48"/>
       <use x="338.28125" xlink:href="#DejaVuSans-48"/>
       <use x="401.904297" xlink:href="#DejaVuSans-48"/>
      </g>
     </g>
    </g>
    <g id="ytick_5">
     <g id="line2d_13">
      <g>
       <use style="stroke:#000000;stroke-width:0.8;" x="60.754688" xlink:href="#m8f0e8632fd" y="99.068386"/>
      </g>
     </g>
     <g id="text_14">
      <!-- 0 -->
      <g transform="translate(47.392188 102.867605)scale(0.1 -0.1)">
       <use xlink:href="#DejaVuSans-48"/>
      </g>
     </g>
    </g>
    <g id="ytick_6">
     <g id="line2d_14">
      <g>
       <use style="stroke:#000000;stroke-width:0.8;" x="60.754688" xlink:href="#m8f0e8632fd" y="73.889314"/>
      </g>
     </g>
     <g id="text_15">
      <!-- 200000 -->
      <g transform="translate(15.579687 77.688532)scale(0.1 -0.1)">
       <use xlink:href="#DejaVuSans-50"/>
       <use x="63.623047" xlink:href="#DejaVuSans-48"/>
       <use x="127.246094" xlink:href="#DejaVuSans-48"/>
       <use x="190.869141" xlink:href="#DejaVuSans-48"/>
       <use x="254.492188" xlink:href="#DejaVuSans-48"/>
       <use x="318.115234" xlink:href="#DejaVuSans-48"/>
      </g>
     </g>
    </g>
    <g id="ytick_7">
     <g id="line2d_15">
      <g>
       <use style="stroke:#000000;stroke-width:0.8;" x="60.754688" xlink:href="#m8f0e8632fd" y="48.710241"/>
      </g>
     </g>
     <g id="text_16">
      <!-- 400000 -->
      <g transform="translate(15.579687 52.50946)scale(0.1 -0.1)">
       <use xlink:href="#DejaVuSans-52"/>
       <use x="63.623047" xlink:href="#DejaVuSans-48"/>
       <use x="127.246094" xlink:href="#DejaVuSans-48"/>
       <use x="190.869141" xlink:href="#DejaVuSans-48"/>
       <use x="254.492188" xlink:href="#DejaVuSans-48"/>
       <use x="318.115234" xlink:href="#DejaVuSans-48"/>
      </g>
     </g>
    </g>
    <g id="ytick_8">
     <g id="line2d_16">
      <g>
       <use style="stroke:#000000;stroke-width:0.8;" x="60.754688" xlink:href="#m8f0e8632fd" y="23.531168"/>
      </g>
     </g>
     <g id="text_17">
      <!-- 600000 -->
      <g transform="translate(15.579687 27.330387)scale(0.1 -0.1)">
       <use xlink:href="#DejaVuSans-54"/>
       <use x="63.623047" xlink:href="#DejaVuSans-48"/>
       <use x="127.246094" xlink:href="#DejaVuSans-48"/>
       <use x="190.869141" xlink:href="#DejaVuSans-48"/>
       <use x="254.492188" xlink:href="#DejaVuSans-48"/>
       <use x="318.115234" xlink:href="#DejaVuSans-48"/>
      </g>
     </g>
    </g>
   </g>
   <g id="line2d_17">
    <path clip-path="url(#p39b72196da)" d="M 235.618304 99.068386 
L 75.972869 99.068386 
L 380.336506 99.068386 
L 252.201261 99.068386 
" style="fill:none;stroke:#1f77b4;stroke-linecap:square;stroke-width:1.5;"/>
   </g>
   <g id="patch_3">
    <path d="M 60.754688 224.64 
L 60.754688 7.2 
" style="fill:none;stroke:#000000;stroke-linecap:square;stroke-linejoin:miter;stroke-width:0.8;"/>
   </g>
   <g id="patch_4">
    <path d="M 395.554688 224.64 
L 395.554688 7.2 
" style="fill:none;stroke:#000000;stroke-linecap:square;stroke-linejoin:miter;stroke-width:0.8;"/>
   </g>
   <g id="patch_5">
    <path d="M 60.754688 224.64 
L 395.554688 224.64 
" style="fill:none;stroke:#000000;stroke-linecap:square;stroke-linejoin:miter;stroke-width:0.8;"/>
   </g>
   <g id="patch_6">
    <path d="M 60.754688 7.2 
L 395.554688 7.2 
" style="fill:none;stroke:#000000;stroke-linecap:square;stroke-linejoin:miter;stroke-width:0.8;"/>
   </g>
  </g>
 </g>
 <defs>
  <clipPath id="p39b72196da">
   <rect height="217.44" width="334.8" x="60.754688" y="7.2"/>
  </clipPath>
 </defs>
</svg>
