<?xml version="1.0" encoding="utf-8" standalone="no"?>
<!DOCTYPE svg PUBLIC "-//W3C//DTD SVG 1.1//EN"
  "http://www.w3.org/Graphics/SVG/1.1/DTD/svg11.dtd">
<!-- Created with matplotlib (https://matplotlib.org/) -->
<svg height="263.63625pt" version="1.1" viewBox="0 0 376.240625 263.63625" width="376.240625pt" xmlns="http://www.w3.org/2000/svg" xmlns:xlink="http://www.w3.org/1999/xlink">
 <defs>
  <style type="text/css">
*{stroke-linecap:butt;stroke-linejoin:round;}
  </style>
 </defs>
 <g id="figure_1">
  <g id="patch_1">
   <path d="M 0 263.63625 
L 376.240625 263.63625 
L 376.240625 0 
L 0 0 
z
" style="fill:none;"/>
  </g>
  <g id="axes_1">
   <g id="patch_2">
    <path d="M 34.240625 239.758125 
L 369.040625 239.758125 
L 369.040625 22.318125 
L 34.240625 22.318125 
z
" style="fill:#ffffff;"/>
   </g>
   <g id="patch_3">
    <path clip-path="url(#p3d080c0e03)" d="M 125.549716 239.758125 
L 130.622443 239.758125 
L 130.622443 32.672411 
L 125.549716 32.672411 
z
" style="fill:#1f77b4;opacity:0.85;"/>
   </g>
   <g id="patch_4">
    <path clip-path="url(#p3d080c0e03)" d="M 130.622443 239.758125 
L 135.69517 239.758125 
L 135.69517 239.758125 
L 130.622443 239.758125 
z
" style="fill:#1f77b4;opacity:0.85;"/>
   </g>
   <g id="patch_5">
    <path clip-path="url(#p3d080c0e03)" d="M 135.69517 239.758125 
L 140.767898 239.758125 
L 140.767898 239.758125 
L 135.69517 239.758125 
z
" style="fill:#1f77b4;opacity:0.85;"/>
   </g>
   <g id="patch_6">
    <path clip-path="url(#p3d080c0e03)" d="M 140.767898 239.758125 
L 145.840625 239.758125 
L 145.840625 239.758125 
L 140.767898 239.758125 
z
" style="fill:#1f77b4;opacity:0.85;"/>
   </g>
   <g id="patch_7">
    <path clip-path="url(#p3d080c0e03)" d="M 145.840625 239.758125 
L 150.913352 239.758125 
L 150.913352 239.758125 
L 145.840625 239.758125 
z
" style="fill:#1f77b4;opacity:0.85;"/>
   </g>
   <g id="patch_8">
    <path clip-path="url(#p3d080c0e03)" d="M 150.913352 239.758125 
L 155.98608 239.758125 
L 155.98608 239.758125 
L 150.913352 239.758125 
z
" style="fill:#1f77b4;opacity:0.85;"/>
   </g>
   <g id="patch_9">
    <path clip-path="url(#p3d080c0e03)" d="M 155.98608 239.758125 
L 161.058807 239.758125 
L 161.058807 239.758125 
L 155.98608 239.758125 
z
" style="fill:#1f77b4;opacity:0.85;"/>
   </g>
   <g id="patch_10">
    <path clip-path="url(#p3d080c0e03)" d="M 161.058807 239.758125 
L 166.131534 239.758125 
L 166.131534 236.428914 
L 161.058807 236.428914 
z
" style="fill:#1f77b4;opacity:0.85;"/>
   </g>
   <g id="patch_11">
    <path clip-path="url(#p3d080c0e03)" d="M 166.131534 239.758125 
L 171.204261 239.758125 
L 171.204261 239.758125 
L 166.131534 239.758125 
z
" style="fill:#1f77b4;opacity:0.85;"/>
   </g>
   <g id="patch_12">
    <path clip-path="url(#p3d080c0e03)" d="M 171.204261 239.758125 
L 176.276989 239.758125 
L 176.276989 239.758125 
L 171.204261 239.758125 
z
" style="fill:#1f77b4;opacity:0.85;"/>
   </g>
   <g id="patch_13">
    <path clip-path="url(#p3d080c0e03)" d="M 176.276989 239.758125 
L 181.349716 239.758125 
L 181.349716 239.758125 
L 176.276989 239.758125 
z
" style="fill:#1f77b4;opacity:0.85;"/>
   </g>
   <g id="patch_14">
    <path clip-path="url(#p3d080c0e03)" d="M 181.349716 239.758125 
L 186.422443 239.758125 
L 186.422443 239.758125 
L 181.349716 239.758125 
z
" style="fill:#1f77b4;opacity:0.85;"/>
   </g>
   <g id="patch_15">
    <path clip-path="url(#p3d080c0e03)" d="M 186.422443 239.758125 
L 191.49517 239.758125 
L 191.49517 239.758125 
L 186.422443 239.758125 
z
" style="fill:#1f77b4;opacity:0.85;"/>
   </g>
   <g id="patch_16">
    <path clip-path="url(#p3d080c0e03)" d="M 191.49517 239.758125 
L 196.567898 239.758125 
L 196.567898 239.758125 
L 191.49517 239.758125 
z
" style="fill:#1f77b4;opacity:0.85;"/>
   </g>
   <g id="patch_17">
    <path clip-path="url(#p3d080c0e03)" d="M 196.567898 239.758125 
L 201.640625 239.758125 
L 201.640625 239.758125 
L 196.567898 239.758125 
z
" style="fill:#1f77b4;opacity:0.85;"/>
   </g>
   <g id="patch_18">
    <path clip-path="url(#p3d080c0e03)" d="M 201.640625 239.758125 
L 206.713352 239.758125 
L 206.713352 230.254475 
L 201.640625 230.254475 
z
" style="fill:#1f77b4;opacity:0.85;"/>
   </g>
   <g id="patch_19">
    <path clip-path="url(#p3d080c0e03)" d="M 206.713352 239.758125 
L 211.78608 239.758125 
L 211.78608 239.758125 
L 206.713352 239.758125 
z
" style="fill:#1f77b4;opacity:0.85;"/>
   </g>
   <g id="patch_20">
    <path clip-path="url(#p3d080c0e03)" d="M 211.78608 239.758125 
L 216.858807 239.758125 
L 216.858807 239.758125 
L 211.78608 239.758125 
z
" style="fill:#1f77b4;opacity:0.85;"/>
   </g>
   <g id="patch_21">
    <path clip-path="url(#p3d080c0e03)" d="M 216.858807 239.758125 
L 221.931534 239.758125 
L 221.931534 239.758125 
L 216.858807 239.758125 
z
" style="fill:#1f77b4;opacity:0.85;"/>
   </g>
   <g id="patch_22">
    <path clip-path="url(#p3d080c0e03)" d="M 221.931534 239.758125 
L 227.004261 239.758125 
L 227.004261 239.758125 
L 221.931534 239.758125 
z
" style="fill:#1f77b4;opacity:0.85;"/>
   </g>
   <g id="patch_23">
    <path clip-path="url(#p3d080c0e03)" d="M 227.004261 239.758125 
L 232.076989 239.758125 
L 232.076989 239.758125 
L 227.004261 239.758125 
z
" style="fill:#1f77b4;opacity:0.85;"/>
   </g>
   <g id="patch_24">
    <path clip-path="url(#p3d080c0e03)" d="M 232.076989 239.758125 
L 237.149716 239.758125 
L 237.149716 239.758125 
L 232.076989 239.758125 
z
" style="fill:#1f77b4;opacity:0.85;"/>
   </g>
   <g id="patch_25">
    <path clip-path="url(#p3d080c0e03)" d="M 237.149716 239.758125 
L 242.222443 239.758125 
L 242.222443 235.152961 
L 237.149716 235.152961 
z
" style="fill:#1f77b4;opacity:0.85;"/>
   </g>
   <g id="patch_26">
    <path clip-path="url(#p3d080c0e03)" d="M 242.222443 239.758125 
L 247.29517 239.758125 
L 247.29517 239.758125 
L 242.222443 239.758125 
z
" style="fill:#1f77b4;opacity:0.85;"/>
   </g>
   <g id="patch_27">
    <path clip-path="url(#p3d080c0e03)" d="M 247.29517 239.758125 
L 252.367898 239.758125 
L 252.367898 239.758125 
L 247.29517 239.758125 
z
" style="fill:#1f77b4;opacity:0.85;"/>
   </g>
   <g id="patch_28">
    <path clip-path="url(#p3d080c0e03)" d="M 252.367898 239.758125 
L 257.440625 239.758125 
L 257.440625 239.758125 
L 252.367898 239.758125 
z
" style="fill:#1f77b4;opacity:0.85;"/>
   </g>
   <g id="patch_29">
    <path clip-path="url(#p3d080c0e03)" d="M 257.440625 239.758125 
L 262.513352 239.758125 
L 262.513352 239.758125 
L 257.440625 239.758125 
z
" style="fill:#1f77b4;opacity:0.85;"/>
   </g>
   <g id="patch_30">
    <path clip-path="url(#p3d080c0e03)" d="M 262.513352 239.758125 
L 267.58608 239.758125 
L 267.58608 239.758125 
L 262.513352 239.758125 
z
" style="fill:#1f77b4;opacity:0.85;"/>
   </g>
   <g id="patch_31">
    <path clip-path="url(#p3d080c0e03)" d="M 267.58608 239.758125 
L 272.658807 239.758125 
L 272.658807 239.758125 
L 267.58608 239.758125 
z
" style="fill:#1f77b4;opacity:0.85;"/>
   </g>
   <g id="patch_32">
    <path clip-path="url(#p3d080c0e03)" d="M 272.658807 239.758125 
L 277.731534 239.758125 
L 277.731534 237.250217 
L 272.658807 237.250217 
z
" style="fill:#1f77b4;opacity:0.85;"/>
   </g>
   <g id="matplotlib.axis_1">
    <g id="xtick_1">
     <g id="line2d_1">
      <defs>
       <path d="M 0 0 
L 0 3.5 
" id="m4f0510f2fc" style="stroke:#000000;stroke-width:0.8;"/>
      </defs>
      <g>
       <use style="stroke:#000000;stroke-width:0.8;" x="49.458807" xlink:href="#m4f0510f2fc" y="239.758125"/>
      </g>
     </g>
     <g id="text_1">
      <!-- −2 -->
      <defs>
       <path d="M 10.59375 35.5 
L 73.1875 35.5 
L 73.1875 27.203125 
L 10.59375 27.203125 
z
" id="DejaVuSans-8722"/>
       <path d="M 19.1875 8.296875 
L 53.609375 8.296875 
L 53.609375 0 
L 7.328125 0 
L 7.328125 8.296875 
Q 12.9375 14.109375 22.625 23.890625 
Q 32.328125 33.6875 34.8125 36.53125 
Q 39.546875 41.84375 41.421875 45.53125 
Q 43.3125 49.21875 43.3125 52.78125 
Q 43.3125 58.59375 39.234375 62.25 
Q 35.15625 65.921875 28.609375 65.921875 
Q 23.96875 65.921875 18.8125 64.3125 
Q 13.671875 62.703125 7.8125 59.421875 
L 7.8125 69.390625 
Q 13.765625 71.78125 18.9375 73 
Q 24.125 74.21875 28.421875 74.21875 
Q 39.75 74.21875 46.484375 68.546875 
Q 53.21875 62.890625 53.21875 53.421875 
Q 53.21875 48.921875 51.53125 44.890625 
Q 49.859375 40.875 45.40625 35.40625 
Q 44.1875 33.984375 37.640625 27.21875 
Q 31.109375 20.453125 19.1875 8.296875 
z
" id="DejaVuSans-50"/>
      </defs>
      <g transform="translate(42.087713 254.356563)scale(0.1 -0.1)">
       <use xlink:href="#DejaVuSans-8722"/>
       <use x="83.789062" xlink:href="#DejaVuSans-50"/>
      </g>
     </g>
    </g>
    <g id="xtick_2">
     <g id="line2d_2">
      <g>
       <use style="stroke:#000000;stroke-width:0.8;" x="87.504261" xlink:href="#m4f0510f2fc" y="239.758125"/>
      </g>
     </g>
     <g id="text_2">
      <!-- −1 -->
      <defs>
       <path d="M 12.40625 8.296875 
L 28.515625 8.296875 
L 28.515625 63.921875 
L 10.984375 60.40625 
L 10.984375 69.390625 
L 28.421875 72.90625 
L 38.28125 72.90625 
L 38.28125 8.296875 
L 54.390625 8.296875 
L 54.390625 0 
L 12.40625 0 
z
" id="DejaVuSans-49"/>
      </defs>
      <g transform="translate(80.133168 254.356563)scale(0.1 -0.1)">
       <use xlink:href="#DejaVuSans-8722"/>
       <use x="83.789062" xlink:href="#DejaVuSans-49"/>
      </g>
     </g>
    </g>
    <g id="xtick_3">
     <g id="line2d_3">
      <g>
       <use style="stroke:#000000;stroke-width:0.8;" x="125.549716" xlink:href="#m4f0510f2fc" y="239.758125"/>
      </g>
     </g>
     <g id="text_3">
      <!-- 0 -->
      <defs>
       <path d="M 31.78125 66.40625 
Q 24.171875 66.40625 20.328125 58.90625 
Q 16.5 51.421875 16.5 36.375 
Q 16.5 21.390625 20.328125 13.890625 
Q 24.171875 6.390625 31.78125 6.390625 
Q 39.453125 6.390625 43.28125 13.890625 
Q 47.125 21.390625 47.125 36.375 
Q 47.125 51.421875 43.28125 58.90625 
Q 39.453125 66.40625 31.78125 66.40625 
z
M 31.78125 74.21875 
Q 44.046875 74.21875 50.515625 64.515625 
Q 56.984375 54.828125 56.984375 36.375 
Q 56.984375 17.96875 50.515625 8.265625 
Q 44.046875 -1.421875 31.78125 -1.421875 
Q 19.53125 -1.421875 13.0625 8.265625 
Q 6.59375 17.96875 6.59375 36.375 
Q 6.59375 54.828125 13.0625 64.515625 
Q 19.53125 74.21875 31.78125 74.21875 
z
" id="DejaVuSans-48"/>
      </defs>
      <g transform="translate(122.368466 254.356563)scale(0.1 -0.1)">
       <use xlink:href="#DejaVuSans-48"/>
      </g>
     </g>
    </g>
    <g id="xtick_4">
     <g id="line2d_4">
      <g>
       <use style="stroke:#000000;stroke-width:0.8;" x="163.59517" xlink:href="#m4f0510f2fc" y="239.758125"/>
      </g>
     </g>
     <g id="text_4">
      <!-- 1 -->
      <g transform="translate(160.41392 254.356563)scale(0.1 -0.1)">
       <use xlink:href="#DejaVuSans-49"/>
      </g>
     </g>
    </g>
    <g id="xtick_5">
     <g id="line2d_5">
      <g>
       <use style="stroke:#000000;stroke-width:0.8;" x="201.640625" xlink:href="#m4f0510f2fc" y="239.758125"/>
      </g>
     </g>
     <g id="text_5">
      <!-- 2 -->
      <g transform="translate(198.459375 254.356563)scale(0.1 -0.1)">
       <use xlink:href="#DejaVuSans-50"/>
      </g>
     </g>
    </g>
    <g id="xtick_6">
     <g id="line2d_6">
      <g>
       <use style="stroke:#000000;stroke-width:0.8;" x="239.68608" xlink:href="#m4f0510f2fc" y="239.758125"/>
      </g>
     </g>
     <g id="text_6">
      <!-- 3 -->
      <defs>
       <path d="M 40.578125 39.3125 
Q 47.65625 37.796875 51.625 33 
Q 55.609375 28.21875 55.609375 21.1875 
Q 55.609375 10.40625 48.1875 4.484375 
Q 40.765625 -1.421875 27.09375 -1.421875 
Q 22.515625 -1.421875 17.65625 -0.515625 
Q 12.796875 0.390625 7.625 2.203125 
L 7.625 11.71875 
Q 11.71875 9.328125 16.59375 8.109375 
Q 21.484375 6.890625 26.8125 6.890625 
Q 36.078125 6.890625 40.9375 10.546875 
Q 45.796875 14.203125 45.796875 21.1875 
Q 45.796875 27.640625 41.28125 31.265625 
Q 36.765625 34.90625 28.71875 34.90625 
L 20.21875 34.90625 
L 20.21875 43.015625 
L 29.109375 43.015625 
Q 36.375 43.015625 40.234375 45.921875 
Q 44.09375 48.828125 44.09375 54.296875 
Q 44.09375 59.90625 40.109375 62.90625 
Q 36.140625 65.921875 28.71875 65.921875 
Q 24.65625 65.921875 20.015625 65.03125 
Q 15.375 64.15625 9.8125 62.3125 
L 9.8125 71.09375 
Q 15.4375 72.65625 20.34375 73.4375 
Q 25.25 74.21875 29.59375 74.21875 
Q 40.828125 74.21875 47.359375 69.109375 
Q 53.90625 64.015625 53.90625 55.328125 
Q 53.90625 49.265625 50.4375 45.09375 
Q 46.96875 40.921875 40.578125 39.3125 
z
" id="DejaVuSans-51"/>
      </defs>
      <g transform="translate(236.50483 254.356563)scale(0.1 -0.1)">
       <use xlink:href="#DejaVuSans-51"/>
      </g>
     </g>
    </g>
    <g id="xtick_7">
     <g id="line2d_7">
      <g>
       <use style="stroke:#000000;stroke-width:0.8;" x="277.731534" xlink:href="#m4f0510f2fc" y="239.758125"/>
      </g>
     </g>
     <g id="text_7">
      <!-- 4 -->
      <defs>
       <path d="M 37.796875 64.3125 
L 12.890625 25.390625 
L 37.796875 25.390625 
z
M 35.203125 72.90625 
L 47.609375 72.90625 
L 47.609375 25.390625 
L 58.015625 25.390625 
L 58.015625 17.1875 
L 47.609375 17.1875 
L 47.609375 0 
L 37.796875 0 
L 37.796875 17.1875 
L 4.890625 17.1875 
L 4.890625 26.703125 
z
" id="DejaVuSans-52"/>
      </defs>
      <g transform="translate(274.550284 254.356563)scale(0.1 -0.1)">
       <use xlink:href="#DejaVuSans-52"/>
      </g>
     </g>
    </g>
    <g id="xtick_8">
     <g id="line2d_8">
      <g>
       <use style="stroke:#000000;stroke-width:0.8;" x="315.776989" xlink:href="#m4f0510f2fc" y="239.758125"/>
      </g>
     </g>
     <g id="text_8">
      <!-- 5 -->
      <defs>
       <path d="M 10.796875 72.90625 
L 49.515625 72.90625 
L 49.515625 64.59375 
L 19.828125 64.59375 
L 19.828125 46.734375 
Q 21.96875 47.46875 24.109375 47.828125 
Q 26.265625 48.1875 28.421875 48.1875 
Q 40.625 48.1875 47.75 41.5 
Q 54.890625 34.8125 54.890625 23.390625 
Q 54.890625 11.625 47.5625 5.09375 
Q 40.234375 -1.421875 26.90625 -1.421875 
Q 22.3125 -1.421875 17.546875 -0.640625 
Q 12.796875 0.140625 7.71875 1.703125 
L 7.71875 11.625 
Q 12.109375 9.234375 16.796875 8.0625 
Q 21.484375 6.890625 26.703125 6.890625 
Q 35.15625 6.890625 40.078125 11.328125 
Q 45.015625 15.765625 45.015625 23.390625 
Q 45.015625 31 40.078125 35.4375 
Q 35.15625 39.890625 26.703125 39.890625 
Q 22.75 39.890625 18.8125 39.015625 
Q 14.890625 38.140625 10.796875 36.28125 
z
" id="DejaVuSans-53"/>
      </defs>
      <g transform="translate(312.595739 254.356563)scale(0.1 -0.1)">
       <use xlink:href="#DejaVuSans-53"/>
      </g>
     </g>
    </g>
    <g id="xtick_9">
     <g id="line2d_9">
      <g>
       <use style="stroke:#000000;stroke-width:0.8;" x="353.822443" xlink:href="#m4f0510f2fc" y="239.758125"/>
      </g>
     </g>
     <g id="text_9">
      <!-- 6 -->
      <defs>
       <path d="M 33.015625 40.375 
Q 26.375 40.375 22.484375 35.828125 
Q 18.609375 31.296875 18.609375 23.390625 
Q 18.609375 15.53125 22.484375 10.953125 
Q 26.375 6.390625 33.015625 6.390625 
Q 39.65625 6.390625 43.53125 10.953125 
Q 47.40625 15.53125 47.40625 23.390625 
Q 47.40625 31.296875 43.53125 35.828125 
Q 39.65625 40.375 33.015625 40.375 
z
M 52.59375 71.296875 
L 52.59375 62.3125 
Q 48.875 64.0625 45.09375 64.984375 
Q 41.3125 65.921875 37.59375 65.921875 
Q 27.828125 65.921875 22.671875 59.328125 
Q 17.53125 52.734375 16.796875 39.40625 
Q 19.671875 43.65625 24.015625 45.921875 
Q 28.375 48.1875 33.59375 48.1875 
Q 44.578125 48.1875 50.953125 41.515625 
Q 57.328125 34.859375 57.328125 23.390625 
Q 57.328125 12.15625 50.6875 5.359375 
Q 44.046875 -1.421875 33.015625 -1.421875 
Q 20.359375 -1.421875 13.671875 8.265625 
Q 6.984375 17.96875 6.984375 36.375 
Q 6.984375 53.65625 15.1875 63.9375 
Q 23.390625 74.21875 37.203125 74.21875 
Q 40.921875 74.21875 44.703125 73.484375 
Q 48.484375 72.75 52.59375 71.296875 
z
" id="DejaVuSans-54"/>
      </defs>
      <g transform="translate(350.641193 254.356563)scale(0.1 -0.1)">
       <use xlink:href="#DejaVuSans-54"/>
      </g>
     </g>
    </g>
   </g>
   <g id="matplotlib.axis_2">
    <g id="ytick_1">
     <g id="line2d_10">
      <defs>
       <path d="M 0 0 
L -3.5 0 
" id="m9436f80248" style="stroke:#000000;stroke-width:0.8;"/>
      </defs>
      <g>
       <use style="stroke:#000000;stroke-width:0.8;" x="34.240625" xlink:href="#m9436f80248" y="239.758125"/>
      </g>
     </g>
     <g id="text_10">
      <!-- 0 -->
      <g transform="translate(20.878125 243.557344)scale(0.1 -0.1)">
       <use xlink:href="#DejaVuSans-48"/>
      </g>
     </g>
    </g>
    <g id="ytick_2">
     <g id="line2d_11">
      <g>
       <use style="stroke:#000000;stroke-width:0.8;" x="34.240625" xlink:href="#m9436f80248" y="209.487239"/>
      </g>
     </g>
     <g id="text_11">
      <!-- 1 -->
      <g transform="translate(20.878125 213.286457)scale(0.1 -0.1)">
       <use xlink:href="#DejaVuSans-49"/>
      </g>
     </g>
    </g>
    <g id="ytick_3">
     <g id="line2d_12">
      <g>
       <use style="stroke:#000000;stroke-width:0.8;" x="34.240625" xlink:href="#m9436f80248" y="179.216352"/>
      </g>
     </g>
     <g id="text_12">
      <!-- 2 -->
      <g transform="translate(20.878125 183.015571)scale(0.1 -0.1)">
       <use xlink:href="#DejaVuSans-50"/>
      </g>
     </g>
    </g>
    <g id="ytick_4">
     <g id="line2d_13">
      <g>
       <use style="stroke:#000000;stroke-width:0.8;" x="34.240625" xlink:href="#m9436f80248" y="148.945466"/>
      </g>
     </g>
     <g id="text_13">
      <!-- 3 -->
      <g transform="translate(20.878125 152.744685)scale(0.1 -0.1)">
       <use xlink:href="#DejaVuSans-51"/>
      </g>
     </g>
    </g>
    <g id="ytick_5">
     <g id="line2d_14">
      <g>
       <use style="stroke:#000000;stroke-width:0.8;" x="34.240625" xlink:href="#m9436f80248" y="118.67458"/>
      </g>
     </g>
     <g id="text_14">
      <!-- 4 -->
      <g transform="translate(20.878125 122.473799)scale(0.1 -0.1)">
       <use xlink:href="#DejaVuSans-52"/>
      </g>
     </g>
    </g>
    <g id="ytick_6">
     <g id="line2d_15">
      <g>
       <use style="stroke:#000000;stroke-width:0.8;" x="34.240625" xlink:href="#m9436f80248" y="88.403694"/>
      </g>
     </g>
     <g id="text_15">
      <!-- 5 -->
      <g transform="translate(20.878125 92.202912)scale(0.1 -0.1)">
       <use xlink:href="#DejaVuSans-53"/>
      </g>
     </g>
    </g>
    <g id="ytick_7">
     <g id="line2d_16">
      <g>
       <use style="stroke:#000000;stroke-width:0.8;" x="34.240625" xlink:href="#m9436f80248" y="58.132807"/>
      </g>
     </g>
     <g id="text_16">
      <!-- 6 -->
      <g transform="translate(20.878125 61.932026)scale(0.1 -0.1)">
       <use xlink:href="#DejaVuSans-54"/>
      </g>
     </g>
    </g>
    <g id="ytick_8">
     <g id="line2d_17">
      <g>
       <use style="stroke:#000000;stroke-width:0.8;" x="34.240625" xlink:href="#m9436f80248" y="27.861921"/>
      </g>
     </g>
     <g id="text_17">
      <!-- 7 -->
      <defs>
       <path d="M 8.203125 72.90625 
L 55.078125 72.90625 
L 55.078125 68.703125 
L 28.609375 0 
L 18.3125 0 
L 43.21875 64.59375 
L 8.203125 64.59375 
z
" id="DejaVuSans-55"/>
      </defs>
      <g transform="translate(20.878125 31.66114)scale(0.1 -0.1)">
       <use xlink:href="#DejaVuSans-55"/>
      </g>
     </g>
    </g>
    <g id="text_18">
     <!-- Density -->
     <defs>
      <path d="M 19.671875 64.796875 
L 19.671875 8.109375 
L 31.59375 8.109375 
Q 46.6875 8.109375 53.6875 14.9375 
Q 60.6875 21.78125 60.6875 36.53125 
Q 60.6875 51.171875 53.6875 57.984375 
Q 46.6875 64.796875 31.59375 64.796875 
z
M 9.8125 72.90625 
L 30.078125 72.90625 
Q 51.265625 72.90625 61.171875 64.09375 
Q 71.09375 55.28125 71.09375 36.53125 
Q 71.09375 17.671875 61.125 8.828125 
Q 51.171875 0 30.078125 0 
L 9.8125 0 
z
" id="DejaVuSans-68"/>
      <path d="M 56.203125 29.59375 
L 56.203125 25.203125 
L 14.890625 25.203125 
Q 15.484375 15.921875 20.484375 11.0625 
Q 25.484375 6.203125 34.421875 6.203125 
Q 39.59375 6.203125 44.453125 7.46875 
Q 49.3125 8.734375 54.109375 11.28125 
L 54.109375 2.78125 
Q 49.265625 0.734375 44.1875 -0.34375 
Q 39.109375 -1.421875 33.890625 -1.421875 
Q 20.796875 -1.421875 13.15625 6.1875 
Q 5.515625 13.8125 5.515625 26.8125 
Q 5.515625 40.234375 12.765625 48.109375 
Q 20.015625 56 32.328125 56 
Q 43.359375 56 49.78125 48.890625 
Q 56.203125 41.796875 56.203125 29.59375 
z
M 47.21875 32.234375 
Q 47.125 39.59375 43.09375 43.984375 
Q 39.0625 48.390625 32.421875 48.390625 
Q 24.90625 48.390625 20.390625 44.140625 
Q 15.875 39.890625 15.1875 32.171875 
z
" id="DejaVuSans-101"/>
      <path d="M 54.890625 33.015625 
L 54.890625 0 
L 45.90625 0 
L 45.90625 32.71875 
Q 45.90625 40.484375 42.875 44.328125 
Q 39.84375 48.1875 33.796875 48.1875 
Q 26.515625 48.1875 22.3125 43.546875 
Q 18.109375 38.921875 18.109375 30.90625 
L 18.109375 0 
L 9.078125 0 
L 9.078125 54.6875 
L 18.109375 54.6875 
L 18.109375 46.1875 
Q 21.34375 51.125 25.703125 53.5625 
Q 30.078125 56 35.796875 56 
Q 45.21875 56 50.046875 50.171875 
Q 54.890625 44.34375 54.890625 33.015625 
z
" id="DejaVuSans-110"/>
      <path d="M 44.28125 53.078125 
L 44.28125 44.578125 
Q 40.484375 46.53125 36.375 47.5 
Q 32.28125 48.484375 27.875 48.484375 
Q 21.1875 48.484375 17.84375 46.4375 
Q 14.5 44.390625 14.5 40.28125 
Q 14.5 37.15625 16.890625 35.375 
Q 19.28125 33.59375 26.515625 31.984375 
L 29.59375 31.296875 
Q 39.15625 29.25 43.1875 25.515625 
Q 47.21875 21.78125 47.21875 15.09375 
Q 47.21875 7.46875 41.1875 3.015625 
Q 35.15625 -1.421875 24.609375 -1.421875 
Q 20.21875 -1.421875 15.453125 -0.5625 
Q 10.6875 0.296875 5.421875 2 
L 5.421875 11.28125 
Q 10.40625 8.6875 15.234375 7.390625 
Q 20.0625 6.109375 24.8125 6.109375 
Q 31.15625 6.109375 34.5625 8.28125 
Q 37.984375 10.453125 37.984375 14.40625 
Q 37.984375 18.0625 35.515625 20.015625 
Q 33.0625 21.96875 24.703125 23.78125 
L 21.578125 24.515625 
Q 13.234375 26.265625 9.515625 29.90625 
Q 5.8125 33.546875 5.8125 39.890625 
Q 5.8125 47.609375 11.28125 51.796875 
Q 16.75 56 26.8125 56 
Q 31.78125 56 36.171875 55.265625 
Q 40.578125 54.546875 44.28125 53.078125 
z
" id="DejaVuSans-115"/>
      <path d="M 9.421875 54.6875 
L 18.40625 54.6875 
L 18.40625 0 
L 9.421875 0 
z
M 9.421875 75.984375 
L 18.40625 75.984375 
L 18.40625 64.59375 
L 9.421875 64.59375 
z
" id="DejaVuSans-105"/>
      <path d="M 18.3125 70.21875 
L 18.3125 54.6875 
L 36.8125 54.6875 
L 36.8125 47.703125 
L 18.3125 47.703125 
L 18.3125 18.015625 
Q 18.3125 11.328125 20.140625 9.421875 
Q 21.96875 7.515625 27.59375 7.515625 
L 36.8125 7.515625 
L 36.8125 0 
L 27.59375 0 
Q 17.1875 0 13.234375 3.875 
Q 9.28125 7.765625 9.28125 18.015625 
L 9.28125 47.703125 
L 2.6875 47.703125 
L 2.6875 54.6875 
L 9.28125 54.6875 
L 9.28125 70.21875 
z
" id="DejaVuSans-116"/>
      <path d="M 32.171875 -5.078125 
Q 28.375 -14.84375 24.75 -17.8125 
Q 21.140625 -20.796875 15.09375 -20.796875 
L 7.90625 -20.796875 
L 7.90625 -13.28125 
L 13.1875 -13.28125 
Q 16.890625 -13.28125 18.9375 -11.515625 
Q 21 -9.765625 23.484375 -3.21875 
L 25.09375 0.875 
L 2.984375 54.6875 
L 12.5 54.6875 
L 29.59375 11.921875 
L 46.6875 54.6875 
L 56.203125 54.6875 
z
" id="DejaVuSans-121"/>
     </defs>
     <g transform="translate(14.798437 150.046719)rotate(-90)scale(0.1 -0.1)">
      <use xlink:href="#DejaVuSans-68"/>
      <use x="77.001953" xlink:href="#DejaVuSans-101"/>
      <use x="138.525391" xlink:href="#DejaVuSans-110"/>
      <use x="201.904297" xlink:href="#DejaVuSans-115"/>
      <use x="254.003906" xlink:href="#DejaVuSans-105"/>
      <use x="281.787109" xlink:href="#DejaVuSans-116"/>
      <use x="320.996094" xlink:href="#DejaVuSans-121"/>
     </g>
    </g>
   </g>
   <g id="line2d_18">
    <path clip-path="url(#p3d080c0e03)" d="M 49.458807 239.758125 
L 111.001804 239.653423 
L 112.220478 239.439556 
L 113.134482 239.06961 
L 113.743819 238.641649 
L 114.353156 237.991181 
L 114.962492 237.028938 
L 115.571829 235.643967 
L 116.181166 233.705193 
L 116.790502 231.066763 
L 117.399839 227.578131 
L 118.009175 223.099335 
L 118.92318 214.29963 
L 119.837185 202.92355 
L 121.055858 184.399793 
L 123.188537 150.399055 
L 124.102541 139.607909 
L 124.711878 134.934979 
L 125.016546 133.491037 
L 125.321215 132.68027 
L 125.625883 132.517376 
L 125.930551 133.005316 
L 126.23522 134.135228 
L 126.844556 138.228337 
L 127.453893 144.507889 
L 128.367898 157.064956 
L 132.023917 212.579948 
L 132.937922 221.811115 
L 133.851927 228.538004 
L 134.461264 231.800241 
L 135.0706 234.249606 
L 135.679937 236.0367 
L 136.289274 237.304428 
L 136.89861 238.17917 
L 137.507947 238.766481 
L 138.421952 239.286573 
L 139.335957 239.545832 
L 140.859298 239.708412 
L 144.515318 239.757293 
L 154.264704 239.658519 
L 156.70205 239.394413 
L 158.834728 238.937241 
L 162.490748 238.101275 
L 164.014089 238.043626 
L 165.537431 238.234165 
L 167.974777 238.83811 
L 170.412124 239.381758 
L 172.544802 239.633009 
L 175.591485 239.742652 
L 186.559544 239.755261 
L 190.8249 239.651414 
L 192.65291 239.408868 
L 194.176252 238.964454 
L 195.394925 238.386283 
L 196.918266 237.386927 
L 199.660281 235.429024 
L 200.574286 235.015614 
L 201.488291 234.8394 
L 202.402296 234.92831 
L 203.316301 235.26817 
L 204.534974 236.01684 
L 208.190994 238.55073 
L 209.409667 239.076378 
L 210.933008 239.467104 
L 212.761018 239.672393 
L 216.112369 239.752959 
L 228.908438 239.705005 
L 231.345785 239.513739 
L 233.173795 239.163449 
L 235.306473 238.485505 
L 238.048487 237.573427 
L 239.267161 237.386527 
L 240.485834 237.422306 
L 241.704507 237.670819 
L 243.837185 238.401605 
L 246.274532 239.18257 
L 248.102541 239.523744 
L 250.539888 239.707795 
L 255.414581 239.757403 
L 268.819986 239.661751 
L 271.257333 239.428984 
L 273.999347 238.934995 
L 276.436694 238.52855 
L 277.960035 238.461361 
L 279.788045 238.62717 
L 286.795416 239.670018 
L 290.756104 239.753106 
L 321.222935 239.758125 
L 353.822443 239.758125 
L 353.822443 239.758125 
" style="fill:none;stroke:#ff7f0e;stroke-linecap:square;stroke-width:1.5;"/>
   </g>
   <g id="patch_33">
    <path d="M 34.240625 239.758125 
L 34.240625 22.318125 
" style="fill:none;stroke:#000000;stroke-linecap:square;stroke-linejoin:miter;stroke-width:0.8;"/>
   </g>
   <g id="patch_34">
    <path d="M 369.040625 239.758125 
L 369.040625 22.318125 
" style="fill:none;stroke:#000000;stroke-linecap:square;stroke-linejoin:miter;stroke-width:0.8;"/>
   </g>
   <g id="patch_35">
    <path d="M 34.240625 239.758125 
L 369.040625 239.758125 
" style="fill:none;stroke:#000000;stroke-linecap:square;stroke-linejoin:miter;stroke-width:0.8;"/>
   </g>
   <g id="patch_36">
    <path d="M 34.240625 22.318125 
L 369.040625 22.318125 
" style="fill:none;stroke:#000000;stroke-linecap:square;stroke-linejoin:miter;stroke-width:0.8;"/>
   </g>
   <g id="text_19">
    <!-- view -->
    <defs>
     <path d="M 2.984375 54.6875 
L 12.5 54.6875 
L 29.59375 8.796875 
L 46.6875 54.6875 
L 56.203125 54.6875 
L 35.6875 0 
L 23.484375 0 
z
" id="DejaVuSans-118"/>
     <path d="M 4.203125 54.6875 
L 13.1875 54.6875 
L 24.421875 12.015625 
L 35.59375 54.6875 
L 46.1875 54.6875 
L 57.421875 12.015625 
L 68.609375 54.6875 
L 77.59375 54.6875 
L 63.28125 0 
L 52.6875 0 
L 40.921875 44.828125 
L 29.109375 0 
L 18.5 0 
z
" id="DejaVuSans-119"/>
    </defs>
    <g transform="translate(187.82375 16.318125)scale(0.12 -0.12)">
     <use xlink:href="#DejaVuSans-118"/>
     <use x="59.179688" xlink:href="#DejaVuSans-105"/>
     <use x="86.962891" xlink:href="#DejaVuSans-101"/>
     <use x="148.486328" xlink:href="#DejaVuSans-119"/>
    </g>
   </g>
   <g id="legend_1">
    <g id="patch_37">
     <path d="M 307.0125 59.674375 
L 362.040625 59.674375 
Q 364.040625 59.674375 364.040625 57.674375 
L 364.040625 29.318125 
Q 364.040625 27.318125 362.040625 27.318125 
L 307.0125 27.318125 
Q 305.0125 27.318125 305.0125 29.318125 
L 305.0125 57.674375 
Q 305.0125 59.674375 307.0125 59.674375 
z
" style="fill:#ffffff;opacity:0.8;stroke:#cccccc;stroke-linejoin:miter;"/>
    </g>
    <g id="line2d_19">
     <path d="M 309.0125 35.416562 
L 329.0125 35.416562 
" style="fill:none;stroke:#ff7f0e;stroke-linecap:square;stroke-width:1.5;"/>
    </g>
    <g id="line2d_20"/>
    <g id="text_20">
     <!-- view -->
     <g transform="translate(337.0125 38.916562)scale(0.1 -0.1)">
      <use xlink:href="#DejaVuSans-118"/>
      <use x="59.179688" xlink:href="#DejaVuSans-105"/>
      <use x="86.962891" xlink:href="#DejaVuSans-101"/>
      <use x="148.486328" xlink:href="#DejaVuSans-119"/>
     </g>
    </g>
    <g id="patch_38">
     <path d="M 309.0125 53.594687 
L 329.0125 53.594687 
L 329.0125 46.594687 
L 309.0125 46.594687 
z
" style="fill:#1f77b4;opacity:0.85;"/>
    </g>
    <g id="text_21">
     <!-- view -->
     <g transform="translate(337.0125 53.594687)scale(0.1 -0.1)">
      <use xlink:href="#DejaVuSans-118"/>
      <use x="59.179688" xlink:href="#DejaVuSans-105"/>
      <use x="86.962891" xlink:href="#DejaVuSans-101"/>
      <use x="148.486328" xlink:href="#DejaVuSans-119"/>
     </g>
    </g>
   </g>
  </g>
 </g>
 <defs>
  <clipPath id="p3d080c0e03">
   <rect height="217.44" width="334.8" x="34.240625" y="22.318125"/>
  </clipPath>
 </defs>
</svg>
