<?xml version="1.0" encoding="utf-8" standalone="no"?>
<!DOCTYPE svg PUBLIC "-//W3C//DTD SVG 1.1//EN"
  "http://www.w3.org/Graphics/SVG/1.1/DTD/svg11.dtd">
<!-- Created with matplotlib (https://matplotlib.org/) -->
<svg height="263.63625pt" version="1.1" viewBox="0 0 376.240625 263.63625" width="376.240625pt" xmlns="http://www.w3.org/2000/svg" xmlns:xlink="http://www.w3.org/1999/xlink">
 <defs>
  <style type="text/css">
*{stroke-linecap:butt;stroke-linejoin:round;}
  </style>
 </defs>
 <g id="figure_1">
  <g id="patch_1">
   <path d="M 0 263.63625 
L 376.240625 263.63625 
L 376.240625 0 
L 0 0 
z
" style="fill:none;"/>
  </g>
  <g id="axes_1">
   <g id="patch_2">
    <path d="M 34.240625 239.758125 
L 369.040625 239.758125 
L 369.040625 22.318125 
L 34.240625 22.318125 
z
" style="fill:#ffffff;"/>
   </g>
   <g id="patch_3">
    <path clip-path="url(#p9be6fc5d2d)" d="M 125.549716 239.758125 
L 130.622443 239.758125 
L 130.622443 239.366503 
L 125.549716 239.366503 
z
" style="fill:#1f77b4;opacity:0.85;"/>
   </g>
   <g id="patch_4">
    <path clip-path="url(#p9be6fc5d2d)" d="M 130.622443 239.758125 
L 135.69517 239.758125 
L 135.69517 239.758125 
L 130.622443 239.758125 
z
" style="fill:#1f77b4;opacity:0.85;"/>
   </g>
   <g id="patch_5">
    <path clip-path="url(#p9be6fc5d2d)" d="M 135.69517 239.758125 
L 140.767898 239.758125 
L 140.767898 239.758125 
L 135.69517 239.758125 
z
" style="fill:#1f77b4;opacity:0.85;"/>
   </g>
   <g id="patch_6">
    <path clip-path="url(#p9be6fc5d2d)" d="M 140.767898 239.758125 
L 145.840625 239.758125 
L 145.840625 239.758125 
L 140.767898 239.758125 
z
" style="fill:#1f77b4;opacity:0.85;"/>
   </g>
   <g id="patch_7">
    <path clip-path="url(#p9be6fc5d2d)" d="M 145.840625 239.758125 
L 150.913352 239.758125 
L 150.913352 239.758125 
L 145.840625 239.758125 
z
" style="fill:#1f77b4;opacity:0.85;"/>
   </g>
   <g id="patch_8">
    <path clip-path="url(#p9be6fc5d2d)" d="M 150.913352 239.758125 
L 155.98608 239.758125 
L 155.98608 239.758125 
L 150.913352 239.758125 
z
" style="fill:#1f77b4;opacity:0.85;"/>
   </g>
   <g id="patch_9">
    <path clip-path="url(#p9be6fc5d2d)" d="M 155.98608 239.758125 
L 161.058807 239.758125 
L 161.058807 239.758125 
L 155.98608 239.758125 
z
" style="fill:#1f77b4;opacity:0.85;"/>
   </g>
   <g id="patch_10">
    <path clip-path="url(#p9be6fc5d2d)" d="M 161.058807 239.758125 
L 166.131534 239.758125 
L 166.131534 237.078604 
L 161.058807 237.078604 
z
" style="fill:#1f77b4;opacity:0.85;"/>
   </g>
   <g id="patch_11">
    <path clip-path="url(#p9be6fc5d2d)" d="M 166.131534 239.758125 
L 171.204261 239.758125 
L 171.204261 239.758125 
L 166.131534 239.758125 
z
" style="fill:#1f77b4;opacity:0.85;"/>
   </g>
   <g id="patch_12">
    <path clip-path="url(#p9be6fc5d2d)" d="M 171.204261 239.758125 
L 176.276989 239.758125 
L 176.276989 239.758125 
L 171.204261 239.758125 
z
" style="fill:#1f77b4;opacity:0.85;"/>
   </g>
   <g id="patch_13">
    <path clip-path="url(#p9be6fc5d2d)" d="M 176.276989 239.758125 
L 181.349716 239.758125 
L 181.349716 239.758125 
L 176.276989 239.758125 
z
" style="fill:#1f77b4;opacity:0.85;"/>
   </g>
   <g id="patch_14">
    <path clip-path="url(#p9be6fc5d2d)" d="M 181.349716 239.758125 
L 186.422443 239.758125 
L 186.422443 239.758125 
L 181.349716 239.758125 
z
" style="fill:#1f77b4;opacity:0.85;"/>
   </g>
   <g id="patch_15">
    <path clip-path="url(#p9be6fc5d2d)" d="M 186.422443 239.758125 
L 191.49517 239.758125 
L 191.49517 239.758125 
L 186.422443 239.758125 
z
" style="fill:#1f77b4;opacity:0.85;"/>
   </g>
   <g id="patch_16">
    <path clip-path="url(#p9be6fc5d2d)" d="M 191.49517 239.758125 
L 196.567898 239.758125 
L 196.567898 239.758125 
L 191.49517 239.758125 
z
" style="fill:#1f77b4;opacity:0.85;"/>
   </g>
   <g id="patch_17">
    <path clip-path="url(#p9be6fc5d2d)" d="M 196.567898 239.758125 
L 201.640625 239.758125 
L 201.640625 239.758125 
L 196.567898 239.758125 
z
" style="fill:#1f77b4;opacity:0.85;"/>
   </g>
   <g id="patch_18">
    <path clip-path="url(#p9be6fc5d2d)" d="M 201.640625 239.758125 
L 206.713352 239.758125 
L 206.713352 32.672411 
L 201.640625 32.672411 
z
" style="fill:#1f77b4;opacity:0.85;"/>
   </g>
   <g id="patch_19">
    <path clip-path="url(#p9be6fc5d2d)" d="M 206.713352 239.758125 
L 211.78608 239.758125 
L 211.78608 239.758125 
L 206.713352 239.758125 
z
" style="fill:#1f77b4;opacity:0.85;"/>
   </g>
   <g id="patch_20">
    <path clip-path="url(#p9be6fc5d2d)" d="M 211.78608 239.758125 
L 216.858807 239.758125 
L 216.858807 239.758125 
L 211.78608 239.758125 
z
" style="fill:#1f77b4;opacity:0.85;"/>
   </g>
   <g id="patch_21">
    <path clip-path="url(#p9be6fc5d2d)" d="M 216.858807 239.758125 
L 221.931534 239.758125 
L 221.931534 239.758125 
L 216.858807 239.758125 
z
" style="fill:#1f77b4;opacity:0.85;"/>
   </g>
   <g id="patch_22">
    <path clip-path="url(#p9be6fc5d2d)" d="M 221.931534 239.758125 
L 227.004261 239.758125 
L 227.004261 239.758125 
L 221.931534 239.758125 
z
" style="fill:#1f77b4;opacity:0.85;"/>
   </g>
   <g id="patch_23">
    <path clip-path="url(#p9be6fc5d2d)" d="M 227.004261 239.758125 
L 232.076989 239.758125 
L 232.076989 239.758125 
L 227.004261 239.758125 
z
" style="fill:#1f77b4;opacity:0.85;"/>
   </g>
   <g id="patch_24">
    <path clip-path="url(#p9be6fc5d2d)" d="M 232.076989 239.758125 
L 237.149716 239.758125 
L 237.149716 239.758125 
L 232.076989 239.758125 
z
" style="fill:#1f77b4;opacity:0.85;"/>
   </g>
   <g id="patch_25">
    <path clip-path="url(#p9be6fc5d2d)" d="M 237.149716 239.758125 
L 242.222443 239.758125 
L 242.222443 155.909744 
L 237.149716 155.909744 
z
" style="fill:#1f77b4;opacity:0.85;"/>
   </g>
   <g id="patch_26">
    <path clip-path="url(#p9be6fc5d2d)" d="M 242.222443 239.758125 
L 247.29517 239.758125 
L 247.29517 239.758125 
L 242.222443 239.758125 
z
" style="fill:#1f77b4;opacity:0.85;"/>
   </g>
   <g id="patch_27">
    <path clip-path="url(#p9be6fc5d2d)" d="M 247.29517 239.758125 
L 252.367898 239.758125 
L 252.367898 239.758125 
L 247.29517 239.758125 
z
" style="fill:#1f77b4;opacity:0.85;"/>
   </g>
   <g id="patch_28">
    <path clip-path="url(#p9be6fc5d2d)" d="M 252.367898 239.758125 
L 257.440625 239.758125 
L 257.440625 239.758125 
L 252.367898 239.758125 
z
" style="fill:#1f77b4;opacity:0.85;"/>
   </g>
   <g id="patch_29">
    <path clip-path="url(#p9be6fc5d2d)" d="M 257.440625 239.758125 
L 262.513352 239.758125 
L 262.513352 239.758125 
L 257.440625 239.758125 
z
" style="fill:#1f77b4;opacity:0.85;"/>
   </g>
   <g id="patch_30">
    <path clip-path="url(#p9be6fc5d2d)" d="M 262.513352 239.758125 
L 267.58608 239.758125 
L 267.58608 239.758125 
L 262.513352 239.758125 
z
" style="fill:#1f77b4;opacity:0.85;"/>
   </g>
   <g id="patch_31">
    <path clip-path="url(#p9be6fc5d2d)" d="M 267.58608 239.758125 
L 272.658807 239.758125 
L 272.658807 239.758125 
L 267.58608 239.758125 
z
" style="fill:#1f77b4;opacity:0.85;"/>
   </g>
   <g id="patch_32">
    <path clip-path="url(#p9be6fc5d2d)" d="M 272.658807 239.758125 
L 277.731534 239.758125 
L 277.731534 214.694302 
L 272.658807 214.694302 
z
" style="fill:#1f77b4;opacity:0.85;"/>
   </g>
   <g id="matplotlib.axis_1">
    <g id="xtick_1">
     <g id="line2d_1">
      <defs>
       <path d="M 0 0 
L 0 3.5 
" id="mc4066a66ae" style="stroke:#000000;stroke-width:0.8;"/>
      </defs>
      <g>
       <use style="stroke:#000000;stroke-width:0.8;" x="49.458807" xlink:href="#mc4066a66ae" y="239.758125"/>
      </g>
     </g>
     <g id="text_1">
      <!-- −1 -->
      <defs>
       <path d="M 10.59375 35.5 
L 73.1875 35.5 
L 73.1875 27.203125 
L 10.59375 27.203125 
z
" id="DejaVuSans-8722"/>
       <path d="M 12.40625 8.296875 
L 28.515625 8.296875 
L 28.515625 63.921875 
L 10.984375 60.40625 
L 10.984375 69.390625 
L 28.421875 72.90625 
L 38.28125 72.90625 
L 38.28125 8.296875 
L 54.390625 8.296875 
L 54.390625 0 
L 12.40625 0 
z
" id="DejaVuSans-49"/>
      </defs>
      <g transform="translate(42.087713 254.356563)scale(0.1 -0.1)">
       <use xlink:href="#DejaVuSans-8722"/>
       <use x="83.789062" xlink:href="#DejaVuSans-49"/>
      </g>
     </g>
    </g>
    <g id="xtick_2">
     <g id="line2d_2">
      <g>
       <use style="stroke:#000000;stroke-width:0.8;" x="87.504261" xlink:href="#mc4066a66ae" y="239.758125"/>
      </g>
     </g>
     <g id="text_2">
      <!-- 0 -->
      <defs>
       <path d="M 31.78125 66.40625 
Q 24.171875 66.40625 20.328125 58.90625 
Q 16.5 51.421875 16.5 36.375 
Q 16.5 21.390625 20.328125 13.890625 
Q 24.171875 6.390625 31.78125 6.390625 
Q 39.453125 6.390625 43.28125 13.890625 
Q 47.125 21.390625 47.125 36.375 
Q 47.125 51.421875 43.28125 58.90625 
Q 39.453125 66.40625 31.78125 66.40625 
z
M 31.78125 74.21875 
Q 44.046875 74.21875 50.515625 64.515625 
Q 56.984375 54.828125 56.984375 36.375 
Q 56.984375 17.96875 50.515625 8.265625 
Q 44.046875 -1.421875 31.78125 -1.421875 
Q 19.53125 -1.421875 13.0625 8.265625 
Q 6.59375 17.96875 6.59375 36.375 
Q 6.59375 54.828125 13.0625 64.515625 
Q 19.53125 74.21875 31.78125 74.21875 
z
" id="DejaVuSans-48"/>
      </defs>
      <g transform="translate(84.323011 254.356563)scale(0.1 -0.1)">
       <use xlink:href="#DejaVuSans-48"/>
      </g>
     </g>
    </g>
    <g id="xtick_3">
     <g id="line2d_3">
      <g>
       <use style="stroke:#000000;stroke-width:0.8;" x="125.549716" xlink:href="#mc4066a66ae" y="239.758125"/>
      </g>
     </g>
     <g id="text_3">
      <!-- 1 -->
      <g transform="translate(122.368466 254.356563)scale(0.1 -0.1)">
       <use xlink:href="#DejaVuSans-49"/>
      </g>
     </g>
    </g>
    <g id="xtick_4">
     <g id="line2d_4">
      <g>
       <use style="stroke:#000000;stroke-width:0.8;" x="163.59517" xlink:href="#mc4066a66ae" y="239.758125"/>
      </g>
     </g>
     <g id="text_4">
      <!-- 2 -->
      <defs>
       <path d="M 19.1875 8.296875 
L 53.609375 8.296875 
L 53.609375 0 
L 7.328125 0 
L 7.328125 8.296875 
Q 12.9375 14.109375 22.625 23.890625 
Q 32.328125 33.6875 34.8125 36.53125 
Q 39.546875 41.84375 41.421875 45.53125 
Q 43.3125 49.21875 43.3125 52.78125 
Q 43.3125 58.59375 39.234375 62.25 
Q 35.15625 65.921875 28.609375 65.921875 
Q 23.96875 65.921875 18.8125 64.3125 
Q 13.671875 62.703125 7.8125 59.421875 
L 7.8125 69.390625 
Q 13.765625 71.78125 18.9375 73 
Q 24.125 74.21875 28.421875 74.21875 
Q 39.75 74.21875 46.484375 68.546875 
Q 53.21875 62.890625 53.21875 53.421875 
Q 53.21875 48.921875 51.53125 44.890625 
Q 49.859375 40.875 45.40625 35.40625 
Q 44.1875 33.984375 37.640625 27.21875 
Q 31.109375 20.453125 19.1875 8.296875 
z
" id="DejaVuSans-50"/>
      </defs>
      <g transform="translate(160.41392 254.356563)scale(0.1 -0.1)">
       <use xlink:href="#DejaVuSans-50"/>
      </g>
     </g>
    </g>
    <g id="xtick_5">
     <g id="line2d_5">
      <g>
       <use style="stroke:#000000;stroke-width:0.8;" x="201.640625" xlink:href="#mc4066a66ae" y="239.758125"/>
      </g>
     </g>
     <g id="text_5">
      <!-- 3 -->
      <defs>
       <path d="M 40.578125 39.3125 
Q 47.65625 37.796875 51.625 33 
Q 55.609375 28.21875 55.609375 21.1875 
Q 55.609375 10.40625 48.1875 4.484375 
Q 40.765625 -1.421875 27.09375 -1.421875 
Q 22.515625 -1.421875 17.65625 -0.515625 
Q 12.796875 0.390625 7.625 2.203125 
L 7.625 11.71875 
Q 11.71875 9.328125 16.59375 8.109375 
Q 21.484375 6.890625 26.8125 6.890625 
Q 36.078125 6.890625 40.9375 10.546875 
Q 45.796875 14.203125 45.796875 21.1875 
Q 45.796875 27.640625 41.28125 31.265625 
Q 36.765625 34.90625 28.71875 34.90625 
L 20.21875 34.90625 
L 20.21875 43.015625 
L 29.109375 43.015625 
Q 36.375 43.015625 40.234375 45.921875 
Q 44.09375 48.828125 44.09375 54.296875 
Q 44.09375 59.90625 40.109375 62.90625 
Q 36.140625 65.921875 28.71875 65.921875 
Q 24.65625 65.921875 20.015625 65.03125 
Q 15.375 64.15625 9.8125 62.3125 
L 9.8125 71.09375 
Q 15.4375 72.65625 20.34375 73.4375 
Q 25.25 74.21875 29.59375 74.21875 
Q 40.828125 74.21875 47.359375 69.109375 
Q 53.90625 64.015625 53.90625 55.328125 
Q 53.90625 49.265625 50.4375 45.09375 
Q 46.96875 40.921875 40.578125 39.3125 
z
" id="DejaVuSans-51"/>
      </defs>
      <g transform="translate(198.459375 254.356563)scale(0.1 -0.1)">
       <use xlink:href="#DejaVuSans-51"/>
      </g>
     </g>
    </g>
    <g id="xtick_6">
     <g id="line2d_6">
      <g>
       <use style="stroke:#000000;stroke-width:0.8;" x="239.68608" xlink:href="#mc4066a66ae" y="239.758125"/>
      </g>
     </g>
     <g id="text_6">
      <!-- 4 -->
      <defs>
       <path d="M 37.796875 64.3125 
L 12.890625 25.390625 
L 37.796875 25.390625 
z
M 35.203125 72.90625 
L 47.609375 72.90625 
L 47.609375 25.390625 
L 58.015625 25.390625 
L 58.015625 17.1875 
L 47.609375 17.1875 
L 47.609375 0 
L 37.796875 0 
L 37.796875 17.1875 
L 4.890625 17.1875 
L 4.890625 26.703125 
z
" id="DejaVuSans-52"/>
      </defs>
      <g transform="translate(236.50483 254.356563)scale(0.1 -0.1)">
       <use xlink:href="#DejaVuSans-52"/>
      </g>
     </g>
    </g>
    <g id="xtick_7">
     <g id="line2d_7">
      <g>
       <use style="stroke:#000000;stroke-width:0.8;" x="277.731534" xlink:href="#mc4066a66ae" y="239.758125"/>
      </g>
     </g>
     <g id="text_7">
      <!-- 5 -->
      <defs>
       <path d="M 10.796875 72.90625 
L 49.515625 72.90625 
L 49.515625 64.59375 
L 19.828125 64.59375 
L 19.828125 46.734375 
Q 21.96875 47.46875 24.109375 47.828125 
Q 26.265625 48.1875 28.421875 48.1875 
Q 40.625 48.1875 47.75 41.5 
Q 54.890625 34.8125 54.890625 23.390625 
Q 54.890625 11.625 47.5625 5.09375 
Q 40.234375 -1.421875 26.90625 -1.421875 
Q 22.3125 -1.421875 17.546875 -0.640625 
Q 12.796875 0.140625 7.71875 1.703125 
L 7.71875 11.625 
Q 12.109375 9.234375 16.796875 8.0625 
Q 21.484375 6.890625 26.703125 6.890625 
Q 35.15625 6.890625 40.078125 11.328125 
Q 45.015625 15.765625 45.015625 23.390625 
Q 45.015625 31 40.078125 35.4375 
Q 35.15625 39.890625 26.703125 39.890625 
Q 22.75 39.890625 18.8125 39.015625 
Q 14.890625 38.140625 10.796875 36.28125 
z
" id="DejaVuSans-53"/>
      </defs>
      <g transform="translate(274.550284 254.356563)scale(0.1 -0.1)">
       <use xlink:href="#DejaVuSans-53"/>
      </g>
     </g>
    </g>
    <g id="xtick_8">
     <g id="line2d_8">
      <g>
       <use style="stroke:#000000;stroke-width:0.8;" x="315.776989" xlink:href="#mc4066a66ae" y="239.758125"/>
      </g>
     </g>
     <g id="text_8">
      <!-- 6 -->
      <defs>
       <path d="M 33.015625 40.375 
Q 26.375 40.375 22.484375 35.828125 
Q 18.609375 31.296875 18.609375 23.390625 
Q 18.609375 15.53125 22.484375 10.953125 
Q 26.375 6.390625 33.015625 6.390625 
Q 39.65625 6.390625 43.53125 10.953125 
Q 47.40625 15.53125 47.40625 23.390625 
Q 47.40625 31.296875 43.53125 35.828125 
Q 39.65625 40.375 33.015625 40.375 
z
M 52.59375 71.296875 
L 52.59375 62.3125 
Q 48.875 64.0625 45.09375 64.984375 
Q 41.3125 65.921875 37.59375 65.921875 
Q 27.828125 65.921875 22.671875 59.328125 
Q 17.53125 52.734375 16.796875 39.40625 
Q 19.671875 43.65625 24.015625 45.921875 
Q 28.375 48.1875 33.59375 48.1875 
Q 44.578125 48.1875 50.953125 41.515625 
Q 57.328125 34.859375 57.328125 23.390625 
Q 57.328125 12.15625 50.6875 5.359375 
Q 44.046875 -1.421875 33.015625 -1.421875 
Q 20.359375 -1.421875 13.671875 8.265625 
Q 6.984375 17.96875 6.984375 36.375 
Q 6.984375 53.65625 15.1875 63.9375 
Q 23.390625 74.21875 37.203125 74.21875 
Q 40.921875 74.21875 44.703125 73.484375 
Q 48.484375 72.75 52.59375 71.296875 
z
" id="DejaVuSans-54"/>
      </defs>
      <g transform="translate(312.595739 254.356563)scale(0.1 -0.1)">
       <use xlink:href="#DejaVuSans-54"/>
      </g>
     </g>
    </g>
    <g id="xtick_9">
     <g id="line2d_9">
      <g>
       <use style="stroke:#000000;stroke-width:0.8;" x="353.822443" xlink:href="#mc4066a66ae" y="239.758125"/>
      </g>
     </g>
     <g id="text_9">
      <!-- 7 -->
      <defs>
       <path d="M 8.203125 72.90625 
L 55.078125 72.90625 
L 55.078125 68.703125 
L 28.609375 0 
L 18.3125 0 
L 43.21875 64.59375 
L 8.203125 64.59375 
z
" id="DejaVuSans-55"/>
      </defs>
      <g transform="translate(350.641193 254.356563)scale(0.1 -0.1)">
       <use xlink:href="#DejaVuSans-55"/>
      </g>
     </g>
    </g>
   </g>
   <g id="matplotlib.axis_2">
    <g id="ytick_1">
     <g id="line2d_10">
      <defs>
       <path d="M 0 0 
L -3.5 0 
" id="mcd526cfc26" style="stroke:#000000;stroke-width:0.8;"/>
      </defs>
      <g>
       <use style="stroke:#000000;stroke-width:0.8;" x="34.240625" xlink:href="#mcd526cfc26" y="239.758125"/>
      </g>
     </g>
     <g id="text_10">
      <!-- 0 -->
      <g transform="translate(20.878125 243.557344)scale(0.1 -0.1)">
       <use xlink:href="#DejaVuSans-48"/>
      </g>
     </g>
    </g>
    <g id="ytick_2">
     <g id="line2d_11">
      <g>
       <use style="stroke:#000000;stroke-width:0.8;" x="34.240625" xlink:href="#mcd526cfc26" y="197.215584"/>
      </g>
     </g>
     <g id="text_11">
      <!-- 1 -->
      <g transform="translate(20.878125 201.014802)scale(0.1 -0.1)">
       <use xlink:href="#DejaVuSans-49"/>
      </g>
     </g>
    </g>
    <g id="ytick_3">
     <g id="line2d_12">
      <g>
       <use style="stroke:#000000;stroke-width:0.8;" x="34.240625" xlink:href="#mcd526cfc26" y="154.673042"/>
      </g>
     </g>
     <g id="text_12">
      <!-- 2 -->
      <g transform="translate(20.878125 158.472261)scale(0.1 -0.1)">
       <use xlink:href="#DejaVuSans-50"/>
      </g>
     </g>
    </g>
    <g id="ytick_4">
     <g id="line2d_13">
      <g>
       <use style="stroke:#000000;stroke-width:0.8;" x="34.240625" xlink:href="#mcd526cfc26" y="112.130501"/>
      </g>
     </g>
     <g id="text_13">
      <!-- 3 -->
      <g transform="translate(20.878125 115.929719)scale(0.1 -0.1)">
       <use xlink:href="#DejaVuSans-51"/>
      </g>
     </g>
    </g>
    <g id="ytick_5">
     <g id="line2d_14">
      <g>
       <use style="stroke:#000000;stroke-width:0.8;" x="34.240625" xlink:href="#mcd526cfc26" y="69.587959"/>
      </g>
     </g>
     <g id="text_14">
      <!-- 4 -->
      <g transform="translate(20.878125 73.387178)scale(0.1 -0.1)">
       <use xlink:href="#DejaVuSans-52"/>
      </g>
     </g>
    </g>
    <g id="ytick_6">
     <g id="line2d_15">
      <g>
       <use style="stroke:#000000;stroke-width:0.8;" x="34.240625" xlink:href="#mcd526cfc26" y="27.045418"/>
      </g>
     </g>
     <g id="text_15">
      <!-- 5 -->
      <g transform="translate(20.878125 30.844636)scale(0.1 -0.1)">
       <use xlink:href="#DejaVuSans-53"/>
      </g>
     </g>
    </g>
    <g id="text_16">
     <!-- Density -->
     <defs>
      <path d="M 19.671875 64.796875 
L 19.671875 8.109375 
L 31.59375 8.109375 
Q 46.6875 8.109375 53.6875 14.9375 
Q 60.6875 21.78125 60.6875 36.53125 
Q 60.6875 51.171875 53.6875 57.984375 
Q 46.6875 64.796875 31.59375 64.796875 
z
M 9.8125 72.90625 
L 30.078125 72.90625 
Q 51.265625 72.90625 61.171875 64.09375 
Q 71.09375 55.28125 71.09375 36.53125 
Q 71.09375 17.671875 61.125 8.828125 
Q 51.171875 0 30.078125 0 
L 9.8125 0 
z
" id="DejaVuSans-68"/>
      <path d="M 56.203125 29.59375 
L 56.203125 25.203125 
L 14.890625 25.203125 
Q 15.484375 15.921875 20.484375 11.0625 
Q 25.484375 6.203125 34.421875 6.203125 
Q 39.59375 6.203125 44.453125 7.46875 
Q 49.3125 8.734375 54.109375 11.28125 
L 54.109375 2.78125 
Q 49.265625 0.734375 44.1875 -0.34375 
Q 39.109375 -1.421875 33.890625 -1.421875 
Q 20.796875 -1.421875 13.15625 6.1875 
Q 5.515625 13.8125 5.515625 26.8125 
Q 5.515625 40.234375 12.765625 48.109375 
Q 20.015625 56 32.328125 56 
Q 43.359375 56 49.78125 48.890625 
Q 56.203125 41.796875 56.203125 29.59375 
z
M 47.21875 32.234375 
Q 47.125 39.59375 43.09375 43.984375 
Q 39.0625 48.390625 32.421875 48.390625 
Q 24.90625 48.390625 20.390625 44.140625 
Q 15.875 39.890625 15.1875 32.171875 
z
" id="DejaVuSans-101"/>
      <path d="M 54.890625 33.015625 
L 54.890625 0 
L 45.90625 0 
L 45.90625 32.71875 
Q 45.90625 40.484375 42.875 44.328125 
Q 39.84375 48.1875 33.796875 48.1875 
Q 26.515625 48.1875 22.3125 43.546875 
Q 18.109375 38.921875 18.109375 30.90625 
L 18.109375 0 
L 9.078125 0 
L 9.078125 54.6875 
L 18.109375 54.6875 
L 18.109375 46.1875 
Q 21.34375 51.125 25.703125 53.5625 
Q 30.078125 56 35.796875 56 
Q 45.21875 56 50.046875 50.171875 
Q 54.890625 44.34375 54.890625 33.015625 
z
" id="DejaVuSans-110"/>
      <path d="M 44.28125 53.078125 
L 44.28125 44.578125 
Q 40.484375 46.53125 36.375 47.5 
Q 32.28125 48.484375 27.875 48.484375 
Q 21.1875 48.484375 17.84375 46.4375 
Q 14.5 44.390625 14.5 40.28125 
Q 14.5 37.15625 16.890625 35.375 
Q 19.28125 33.59375 26.515625 31.984375 
L 29.59375 31.296875 
Q 39.15625 29.25 43.1875 25.515625 
Q 47.21875 21.78125 47.21875 15.09375 
Q 47.21875 7.46875 41.1875 3.015625 
Q 35.15625 -1.421875 24.609375 -1.421875 
Q 20.21875 -1.421875 15.453125 -0.5625 
Q 10.6875 0.296875 5.421875 2 
L 5.421875 11.28125 
Q 10.40625 8.6875 15.234375 7.390625 
Q 20.0625 6.109375 24.8125 6.109375 
Q 31.15625 6.109375 34.5625 8.28125 
Q 37.984375 10.453125 37.984375 14.40625 
Q 37.984375 18.0625 35.515625 20.015625 
Q 33.0625 21.96875 24.703125 23.78125 
L 21.578125 24.515625 
Q 13.234375 26.265625 9.515625 29.90625 
Q 5.8125 33.546875 5.8125 39.890625 
Q 5.8125 47.609375 11.28125 51.796875 
Q 16.75 56 26.8125 56 
Q 31.78125 56 36.171875 55.265625 
Q 40.578125 54.546875 44.28125 53.078125 
z
" id="DejaVuSans-115"/>
      <path d="M 9.421875 54.6875 
L 18.40625 54.6875 
L 18.40625 0 
L 9.421875 0 
z
M 9.421875 75.984375 
L 18.40625 75.984375 
L 18.40625 64.59375 
L 9.421875 64.59375 
z
" id="DejaVuSans-105"/>
      <path d="M 18.3125 70.21875 
L 18.3125 54.6875 
L 36.8125 54.6875 
L 36.8125 47.703125 
L 18.3125 47.703125 
L 18.3125 18.015625 
Q 18.3125 11.328125 20.140625 9.421875 
Q 21.96875 7.515625 27.59375 7.515625 
L 36.8125 7.515625 
L 36.8125 0 
L 27.59375 0 
Q 17.1875 0 13.234375 3.875 
Q 9.28125 7.765625 9.28125 18.015625 
L 9.28125 47.703125 
L 2.6875 47.703125 
L 2.6875 54.6875 
L 9.28125 54.6875 
L 9.28125 70.21875 
z
" id="DejaVuSans-116"/>
      <path d="M 32.171875 -5.078125 
Q 28.375 -14.84375 24.75 -17.8125 
Q 21.140625 -20.796875 15.09375 -20.796875 
L 7.90625 -20.796875 
L 7.90625 -13.28125 
L 13.1875 -13.28125 
Q 16.890625 -13.28125 18.9375 -11.515625 
Q 21 -9.765625 23.484375 -3.21875 
L 25.09375 0.875 
L 2.984375 54.6875 
L 12.5 54.6875 
L 29.59375 11.921875 
L 46.6875 54.6875 
L 56.203125 54.6875 
z
" id="DejaVuSans-121"/>
     </defs>
     <g transform="translate(14.798437 150.046719)rotate(-90)scale(0.1 -0.1)">
      <use xlink:href="#DejaVuSans-68"/>
      <use x="77.001953" xlink:href="#DejaVuSans-101"/>
      <use x="138.525391" xlink:href="#DejaVuSans-110"/>
      <use x="201.904297" xlink:href="#DejaVuSans-115"/>
      <use x="254.003906" xlink:href="#DejaVuSans-105"/>
      <use x="281.787109" xlink:href="#DejaVuSans-116"/>
      <use x="320.996094" xlink:href="#DejaVuSans-121"/>
     </g>
    </g>
   </g>
   <g id="line2d_16">
    <path clip-path="url(#p9be6fc5d2d)" d="M 49.458807 239.758125 
L 121.055858 239.657219 
L 126.844556 239.551445 
L 140.55463 239.758089 
L 155.178709 239.660949 
L 157.311387 239.430991 
L 159.444065 238.983789 
L 162.490748 238.318765 
L 164.014089 238.259377 
L 165.537431 238.454217 
L 171.630797 239.634269 
L 174.67748 239.745138 
L 185.950207 239.74967 
L 188.387554 239.628309 
L 189.606227 239.330053 
L 190.215564 239.013595 
L 190.8249 238.499894 
L 191.434237 237.69202 
L 192.043573 236.46159 
L 192.65291 234.647469 
L 193.262247 232.059571 
L 193.871583 228.489911 
L 194.48092 223.732515 
L 195.090256 217.612519 
L 196.004261 205.671431 
L 196.918266 190.578229 
L 199.964949 135.151808 
L 200.574286 128.161128 
L 201.183623 124.077502 
L 201.488291 123.243018 
L 201.792959 123.243018 
L 202.097627 124.077502 
L 202.402296 125.728585 
L 203.011632 131.32399 
L 203.620969 139.567248 
L 204.534974 155.442269 
L 206.97232 200.963275 
L 207.886325 214.004307 
L 208.80033 223.732515 
L 209.409667 228.489911 
L 210.019003 232.059571 
L 210.62834 234.647469 
L 211.237677 236.46159 
L 211.847013 237.69202 
L 212.45635 238.499894 
L 213.065686 239.013595 
L 213.979691 239.437016 
L 215.198365 239.663506 
L 217.331043 239.74967 
L 226.166424 239.718254 
L 227.994433 239.520658 
L 228.908438 239.232189 
L 229.822443 238.666263 
L 230.43178 238.043973 
L 231.041116 237.143288 
L 231.650453 235.882396 
L 232.25979 234.176306 
L 232.869126 231.947036 
L 233.783131 227.506233 
L 234.697136 221.74454 
L 236.220478 210.098704 
L 237.439151 200.923108 
L 238.353156 195.678074 
L 238.962492 193.486683 
L 239.267161 192.858856 
L 239.571829 192.562961 
L 239.876497 192.605346 
L 240.181166 192.985099 
L 240.485834 193.694085 
L 241.09517 196.03308 
L 241.704507 199.42963 
L 242.618512 205.910946 
L 245.055858 224.296124 
L 245.969863 229.521363 
L 246.883868 233.405328 
L 247.797873 236.062629 
L 248.40721 237.27383 
L 249.016546 238.135392 
L 249.625883 238.728203 
L 250.539888 239.264692 
L 251.453893 239.536531 
L 252.977234 239.70758 
L 256.328586 239.757085 
L 266.38264 239.661754 
L 267.905981 239.422133 
L 268.819986 239.106049 
L 269.733991 238.571883 
L 270.647996 237.735321 
L 271.562001 236.524873 
L 272.476006 234.913828 
L 273.694679 232.247956 
L 275.522689 228.073104 
L 276.436694 226.530634 
L 277.04603 225.897972 
L 277.655367 225.646661 
L 278.264704 225.79799 
L 278.87404 226.339108 
L 279.483377 227.224829 
L 280.397382 229.038736 
L 283.444065 235.768363 
L 284.35807 237.179973 
L 285.272075 238.196505 
L 286.18608 238.871484 
L 287.100084 239.286252 
L 288.318758 239.574093 
L 290.146768 239.721997 
L 294.716792 239.757926 
L 353.822443 239.758125 
L 353.822443 239.758125 
" style="fill:none;stroke:#ff7f0e;stroke-linecap:square;stroke-width:1.5;"/>
   </g>
   <g id="patch_33">
    <path d="M 34.240625 239.758125 
L 34.240625 22.318125 
" style="fill:none;stroke:#000000;stroke-linecap:square;stroke-linejoin:miter;stroke-width:0.8;"/>
   </g>
   <g id="patch_34">
    <path d="M 369.040625 239.758125 
L 369.040625 22.318125 
" style="fill:none;stroke:#000000;stroke-linecap:square;stroke-linejoin:miter;stroke-width:0.8;"/>
   </g>
   <g id="patch_35">
    <path d="M 34.240625 239.758125 
L 369.040625 239.758125 
" style="fill:none;stroke:#000000;stroke-linecap:square;stroke-linejoin:miter;stroke-width:0.8;"/>
   </g>
   <g id="patch_36">
    <path d="M 34.240625 22.318125 
L 369.040625 22.318125 
" style="fill:none;stroke:#000000;stroke-linecap:square;stroke-linejoin:miter;stroke-width:0.8;"/>
   </g>
   <g id="text_17">
    <!-- condition -->
    <defs>
     <path d="M 48.78125 52.59375 
L 48.78125 44.1875 
Q 44.96875 46.296875 41.140625 47.34375 
Q 37.3125 48.390625 33.40625 48.390625 
Q 24.65625 48.390625 19.8125 42.84375 
Q 14.984375 37.3125 14.984375 27.296875 
Q 14.984375 17.28125 19.8125 11.734375 
Q 24.65625 6.203125 33.40625 6.203125 
Q 37.3125 6.203125 41.140625 7.25 
Q 44.96875 8.296875 48.78125 10.40625 
L 48.78125 2.09375 
Q 45.015625 0.34375 40.984375 -0.53125 
Q 36.96875 -1.421875 32.421875 -1.421875 
Q 20.0625 -1.421875 12.78125 6.34375 
Q 5.515625 14.109375 5.515625 27.296875 
Q 5.515625 40.671875 12.859375 48.328125 
Q 20.21875 56 33.015625 56 
Q 37.15625 56 41.109375 55.140625 
Q 45.0625 54.296875 48.78125 52.59375 
z
" id="DejaVuSans-99"/>
     <path d="M 30.609375 48.390625 
Q 23.390625 48.390625 19.1875 42.75 
Q 14.984375 37.109375 14.984375 27.296875 
Q 14.984375 17.484375 19.15625 11.84375 
Q 23.34375 6.203125 30.609375 6.203125 
Q 37.796875 6.203125 41.984375 11.859375 
Q 46.1875 17.53125 46.1875 27.296875 
Q 46.1875 37.015625 41.984375 42.703125 
Q 37.796875 48.390625 30.609375 48.390625 
z
M 30.609375 56 
Q 42.328125 56 49.015625 48.375 
Q 55.71875 40.765625 55.71875 27.296875 
Q 55.71875 13.875 49.015625 6.21875 
Q 42.328125 -1.421875 30.609375 -1.421875 
Q 18.84375 -1.421875 12.171875 6.21875 
Q 5.515625 13.875 5.515625 27.296875 
Q 5.515625 40.765625 12.171875 48.375 
Q 18.84375 56 30.609375 56 
z
" id="DejaVuSans-111"/>
     <path d="M 45.40625 46.390625 
L 45.40625 75.984375 
L 54.390625 75.984375 
L 54.390625 0 
L 45.40625 0 
L 45.40625 8.203125 
Q 42.578125 3.328125 38.25 0.953125 
Q 33.9375 -1.421875 27.875 -1.421875 
Q 17.96875 -1.421875 11.734375 6.484375 
Q 5.515625 14.40625 5.515625 27.296875 
Q 5.515625 40.1875 11.734375 48.09375 
Q 17.96875 56 27.875 56 
Q 33.9375 56 38.25 53.625 
Q 42.578125 51.265625 45.40625 46.390625 
z
M 14.796875 27.296875 
Q 14.796875 17.390625 18.875 11.75 
Q 22.953125 6.109375 30.078125 6.109375 
Q 37.203125 6.109375 41.296875 11.75 
Q 45.40625 17.390625 45.40625 27.296875 
Q 45.40625 37.203125 41.296875 42.84375 
Q 37.203125 48.484375 30.078125 48.484375 
Q 22.953125 48.484375 18.875 42.84375 
Q 14.796875 37.203125 14.796875 27.296875 
z
" id="DejaVuSans-100"/>
    </defs>
    <g transform="translate(173.899063 16.318125)scale(0.12 -0.12)">
     <use xlink:href="#DejaVuSans-99"/>
     <use x="54.980469" xlink:href="#DejaVuSans-111"/>
     <use x="116.162109" xlink:href="#DejaVuSans-110"/>
     <use x="179.541016" xlink:href="#DejaVuSans-100"/>
     <use x="243.017578" xlink:href="#DejaVuSans-105"/>
     <use x="270.800781" xlink:href="#DejaVuSans-116"/>
     <use x="310.009766" xlink:href="#DejaVuSans-105"/>
     <use x="337.792969" xlink:href="#DejaVuSans-111"/>
     <use x="398.974609" xlink:href="#DejaVuSans-110"/>
    </g>
   </g>
   <g id="legend_1">
    <g id="patch_37">
     <path d="M 283.804688 59.674375 
L 362.040625 59.674375 
Q 364.040625 59.674375 364.040625 57.674375 
L 364.040625 29.318125 
Q 364.040625 27.318125 362.040625 27.318125 
L 283.804688 27.318125 
Q 281.804688 27.318125 281.804688 29.318125 
L 281.804688 57.674375 
Q 281.804688 59.674375 283.804688 59.674375 
z
" style="fill:#ffffff;opacity:0.8;stroke:#cccccc;stroke-linejoin:miter;"/>
    </g>
    <g id="line2d_17">
     <path d="M 285.804688 35.416562 
L 305.804688 35.416562 
" style="fill:none;stroke:#ff7f0e;stroke-linecap:square;stroke-width:1.5;"/>
    </g>
    <g id="line2d_18"/>
    <g id="text_18">
     <!-- condition -->
     <g transform="translate(313.804688 38.916562)scale(0.1 -0.1)">
      <use xlink:href="#DejaVuSans-99"/>
      <use x="54.980469" xlink:href="#DejaVuSans-111"/>
      <use x="116.162109" xlink:href="#DejaVuSans-110"/>
      <use x="179.541016" xlink:href="#DejaVuSans-100"/>
      <use x="243.017578" xlink:href="#DejaVuSans-105"/>
      <use x="270.800781" xlink:href="#DejaVuSans-116"/>
      <use x="310.009766" xlink:href="#DejaVuSans-105"/>
      <use x="337.792969" xlink:href="#DejaVuSans-111"/>
      <use x="398.974609" xlink:href="#DejaVuSans-110"/>
     </g>
    </g>
    <g id="patch_38">
     <path d="M 285.804688 53.594687 
L 305.804688 53.594687 
L 305.804688 46.594687 
L 285.804688 46.594687 
z
" style="fill:#1f77b4;opacity:0.85;"/>
    </g>
    <g id="text_19">
     <!-- condition -->
     <g transform="translate(313.804688 53.594687)scale(0.1 -0.1)">
      <use xlink:href="#DejaVuSans-99"/>
      <use x="54.980469" xlink:href="#DejaVuSans-111"/>
      <use x="116.162109" xlink:href="#DejaVuSans-110"/>
      <use x="179.541016" xlink:href="#DejaVuSans-100"/>
      <use x="243.017578" xlink:href="#DejaVuSans-105"/>
      <use x="270.800781" xlink:href="#DejaVuSans-116"/>
      <use x="310.009766" xlink:href="#DejaVuSans-105"/>
      <use x="337.792969" xlink:href="#DejaVuSans-111"/>
      <use x="398.974609" xlink:href="#DejaVuSans-110"/>
     </g>
    </g>
   </g>
  </g>
 </g>
 <defs>
  <clipPath id="p9be6fc5d2d">
   <rect height="217.44" width="334.8" x="34.240625" y="22.318125"/>
  </clipPath>
 </defs>
</svg>
