<?xml version="1.0" encoding="utf-8" standalone="no"?>
<!DOCTYPE svg PUBLIC "-//W3C//DTD SVG 1.1//EN"
  "http://www.w3.org/Graphics/SVG/1.1/DTD/svg11.dtd">
<!-- Created with matplotlib (https://matplotlib.org/) -->
<svg height="264.131875pt" version="1.1" viewBox="0 0 418.368437 264.131875" width="418.368437pt" xmlns="http://www.w3.org/2000/svg" xmlns:xlink="http://www.w3.org/1999/xlink">
 <defs>
  <style type="text/css">
*{stroke-linecap:butt;stroke-linejoin:round;}
  </style>
 </defs>
 <g id="figure_1">
  <g id="patch_1">
   <path d="M 0 264.131875 
L 418.368437 264.131875 
L 418.368437 0 
L 0 0 
z
" style="fill:none;"/>
  </g>
  <g id="axes_1">
   <g id="patch_2">
    <path d="M 76.368437 224.64 
L 411.168438 224.64 
L 411.168438 7.2 
L 76.368437 7.2 
z
" style="fill:#ffffff;"/>
   </g>
   <g id="PathCollection_1">
    <defs>
     <path d="M 0 3 
C 0.795609 3 1.55874 2.683901 2.12132 2.12132 
C 2.683901 1.55874 3 0.795609 3 0 
C 3 -0.795609 2.683901 -1.55874 2.12132 -2.12132 
C 1.55874 -2.683901 0.795609 -3 0 -3 
C -0.795609 -3 -1.55874 -2.683901 -2.12132 -2.12132 
C -2.683901 -1.55874 -3 -0.795609 -3 0 
C -3 0.795609 -2.683901 1.55874 -2.12132 2.12132 
C -1.55874 2.683901 -0.795609 3 0 3 
z
" id="m349a48ffa9" style="stroke:#1f77b4;"/>
    </defs>
    <g clip-path="url(#p1c406102fb)">
     <use style="fill:#1f77b4;stroke:#1f77b4;" x="251.232054" xlink:href="#m349a48ffa9" y="126.967995"/>
     <use style="fill:#1f77b4;stroke:#1f77b4;" x="179.139527" xlink:href="#m349a48ffa9" y="92.507274"/>
     <use style="fill:#1f77b4;stroke:#1f77b4;" x="187.717126" xlink:href="#m349a48ffa9" y="91.145068"/>
     <use style="fill:#1f77b4;stroke:#1f77b4;" x="203.634193" xlink:href="#m349a48ffa9" y="108.750052"/>
     <use style="fill:#1f77b4;stroke:#1f77b4;" x="162.437582" xlink:href="#m349a48ffa9" y="79.921221"/>
     <use style="fill:#1f77b4;stroke:#1f77b4;" x="181.922306" xlink:href="#m349a48ffa9" y="106.18674"/>
     <use style="fill:#1f77b4;stroke:#1f77b4;" x="249.917045" xlink:href="#m349a48ffa9" y="86.438953"/>
     <use style="fill:#1f77b4;stroke:#1f77b4;" x="243.73311" xlink:href="#m349a48ffa9" y="112.553181"/>
     <use style="fill:#1f77b4;stroke:#1f77b4;" x="234.850834" xlink:href="#m349a48ffa9" y="116.105363"/>
     <use style="fill:#1f77b4;stroke:#1f77b4;" x="195.820021" xlink:href="#m349a48ffa9" y="103.442463"/>
     <use style="fill:#1f77b4;stroke:#1f77b4;" x="179.807978" xlink:href="#m349a48ffa9" y="77.087718"/>
     <use style="fill:#1f77b4;stroke:#1f77b4;" x="254.226156" xlink:href="#m349a48ffa9" y="75.447899"/>
     <use style="fill:#1f77b4;stroke:#1f77b4;" x="194.296316" xlink:href="#m349a48ffa9" y="82.603552"/>
     <use style="fill:#1f77b4;stroke:#1f77b4;" x="203.19751" xlink:href="#m349a48ffa9" y="95.74505"/>
     <use style="fill:#1f77b4;stroke:#1f77b4;" x="192.860039" xlink:href="#m349a48ffa9" y="101.479655"/>
     <use style="fill:#1f77b4;stroke:#1f77b4;" x="232.055009" xlink:href="#m349a48ffa9" y="73.335417"/>
     <use style="fill:#1f77b4;stroke:#1f77b4;" x="234.530913" xlink:href="#m349a48ffa9" y="125.335372"/>
     <use style="fill:#1f77b4;stroke:#1f77b4;" x="207.130967" xlink:href="#m349a48ffa9" y="115.663996"/>
     <use style="fill:#1f77b4;stroke:#1f77b4;" x="282.462236" xlink:href="#m349a48ffa9" y="62.697824"/>
     <use style="fill:#1f77b4;stroke:#1f77b4;" x="173.113474" xlink:href="#m349a48ffa9" y="93.421228"/>
     <use style="fill:#1f77b4;stroke:#1f77b4;" x="216.77214" xlink:href="#m349a48ffa9" y="99.710774"/>
     <use style="fill:#1f77b4;stroke:#1f77b4;" x="141.52976" xlink:href="#m349a48ffa9" y="17.083636"/>
     <use style="fill:#1f77b4;stroke:#1f77b4;" x="194.702337" xlink:href="#m349a48ffa9" y="102.70131"/>
     <use style="fill:#1f77b4;stroke:#1f77b4;" x="208.263291" xlink:href="#m349a48ffa9" y="82.737847"/>
     <use style="fill:#1f77b4;stroke:#1f77b4;" x="318.695711" xlink:href="#m349a48ffa9" y="116.939668"/>
     <use style="fill:#1f77b4;stroke:#1f77b4;" x="269.242425" xlink:href="#m349a48ffa9" y="126.950881"/>
     <use style="fill:#1f77b4;stroke:#1f77b4;" x="139.576317" xlink:href="#m349a48ffa9" y="90.821916"/>
     <use style="fill:#1f77b4;stroke:#1f77b4;" x="170.101648" xlink:href="#m349a48ffa9" y="97.592914"/>
     <use style="fill:#1f77b4;stroke:#1f77b4;" x="237.908633" xlink:href="#m349a48ffa9" y="55.814831"/>
     <use style="fill:#1f77b4;stroke:#1f77b4;" x="115.655127" xlink:href="#m349a48ffa9" y="84.905152"/>
     <use style="fill:#1f77b4;stroke:#1f77b4;" x="245.416077" xlink:href="#m349a48ffa9" y="79.677434"/>
     <use style="fill:#1f77b4;stroke:#1f77b4;" x="276.552611" xlink:href="#m349a48ffa9" y="160.880203"/>
     <use style="fill:#1f77b4;stroke:#1f77b4;" x="272.265313" xlink:href="#m349a48ffa9" y="93.704701"/>
     <use style="fill:#1f77b4;stroke:#1f77b4;" x="194.000797" xlink:href="#m349a48ffa9" y="79.574943"/>
     <use style="fill:#1f77b4;stroke:#1f77b4;" x="220.829439" xlink:href="#m349a48ffa9" y="111.843382"/>
     <use style="fill:#1f77b4;stroke:#1f77b4;" x="195.831001" xlink:href="#m349a48ffa9" y="86.076184"/>
     <use style="fill:#1f77b4;stroke:#1f77b4;" x="176.906144" xlink:href="#m349a48ffa9" y="108.651635"/>
     <use style="fill:#1f77b4;stroke:#1f77b4;" x="379.803847" xlink:href="#m349a48ffa9" y="214.756364"/>
     <use style="fill:#1f77b4;stroke:#1f77b4;" x="307.180962" xlink:href="#m349a48ffa9" y="79.089179"/>
     <use style="fill:#1f77b4;stroke:#1f77b4;" x="183.480722" xlink:href="#m349a48ffa9" y="85.61021"/>
     <use style="fill:#1f77b4;stroke:#1f77b4;" x="190.56237" xlink:href="#m349a48ffa9" y="102.473943"/>
     <use style="fill:#1f77b4;stroke:#1f77b4;" x="200.984613" xlink:href="#m349a48ffa9" y="94.39095"/>
     <use style="fill:#1f77b4;stroke:#1f77b4;" x="185.122677" xlink:href="#m349a48ffa9" y="78.849439"/>
     <use style="fill:#1f77b4;stroke:#1f77b4;" x="311.335798" xlink:href="#m349a48ffa9" y="138.497226"/>
     <use style="fill:#1f77b4;stroke:#1f77b4;" x="190.087517" xlink:href="#m349a48ffa9" y="91.457955"/>
     <use style="fill:#1f77b4;stroke:#1f77b4;" x="296.9286" xlink:href="#m349a48ffa9" y="120.130923"/>
     <use style="fill:#1f77b4;stroke:#1f77b4;" x="268.714775" xlink:href="#m349a48ffa9" y="64.91226"/>
     <use style="fill:#1f77b4;stroke:#1f77b4;" x="154.353002" xlink:href="#m349a48ffa9" y="104.649207"/>
     <use style="fill:#1f77b4;stroke:#1f77b4;" x="162.085377" xlink:href="#m349a48ffa9" y="76.980918"/>
     <use style="fill:#1f77b4;stroke:#1f77b4;" x="261.60752" xlink:href="#m349a48ffa9" y="118.111201"/>
     <use style="fill:#1f77b4;stroke:#1f77b4;" x="171.317592" xlink:href="#m349a48ffa9" y="94.748259"/>
     <use style="fill:#1f77b4;stroke:#1f77b4;" x="156.713202" xlink:href="#m349a48ffa9" y="88.840731"/>
     <use style="fill:#1f77b4;stroke:#1f77b4;" x="136.031129" xlink:href="#m349a48ffa9" y="78.273524"/>
     <use style="fill:#1f77b4;stroke:#1f77b4;" x="234.486026" xlink:href="#m349a48ffa9" y="98.86758"/>
     <use style="fill:#1f77b4;stroke:#1f77b4;" x="170.291439" xlink:href="#m349a48ffa9" y="92.808848"/>
     <use style="fill:#1f77b4;stroke:#1f77b4;" x="228.503968" xlink:href="#m349a48ffa9" y="113.155616"/>
     <use style="fill:#1f77b4;stroke:#1f77b4;" x="194.122118" xlink:href="#m349a48ffa9" y="65.806903"/>
     <use style="fill:#1f77b4;stroke:#1f77b4;" x="310.810869" xlink:href="#m349a48ffa9" y="96.603669"/>
     <use style="fill:#1f77b4;stroke:#1f77b4;" x="145.489093" xlink:href="#m349a48ffa9" y="71.955705"/>
     <use style="fill:#1f77b4;stroke:#1f77b4;" x="266.155198" xlink:href="#m349a48ffa9" y="99.724622"/>
     <use style="fill:#1f77b4;stroke:#1f77b4;" x="91.586619" xlink:href="#m349a48ffa9" y="65.294"/>
     <use style="fill:#1f77b4;stroke:#1f77b4;" x="284.256805" xlink:href="#m349a48ffa9" y="66.405737"/>
     <use style="fill:#1f77b4;stroke:#1f77b4;" x="185.413959" xlink:href="#m349a48ffa9" y="74.51036"/>
     <use style="fill:#1f77b4;stroke:#1f77b4;" x="237.575413" xlink:href="#m349a48ffa9" y="93.362477"/>
     <use style="fill:#1f77b4;stroke:#1f77b4;" x="257.6979" xlink:href="#m349a48ffa9" y="125.590302"/>
     <use style="fill:#1f77b4;stroke:#1f77b4;" x="256.616979" xlink:href="#m349a48ffa9" y="74.515382"/>
     <use style="fill:#1f77b4;stroke:#1f77b4;" x="267.642649" xlink:href="#m349a48ffa9" y="79.308761"/>
     <use style="fill:#1f77b4;stroke:#1f77b4;" x="158.676539" xlink:href="#m349a48ffa9" y="89.714605"/>
     <use style="fill:#1f77b4;stroke:#1f77b4;" x="320.162743" xlink:href="#m349a48ffa9" y="111.617711"/>
     <use style="fill:#1f77b4;stroke:#1f77b4;" x="307.787929" xlink:href="#m349a48ffa9" y="76.973761"/>
     <use style="fill:#1f77b4;stroke:#1f77b4;" x="239.936994" xlink:href="#m349a48ffa9" y="86.115801"/>
     <use style="fill:#1f77b4;stroke:#1f77b4;" x="297.997603" xlink:href="#m349a48ffa9" y="69.222696"/>
     <use style="fill:#1f77b4;stroke:#1f77b4;" x="177.843113" xlink:href="#m349a48ffa9" y="92.151184"/>
     <use style="fill:#1f77b4;stroke:#1f77b4;" x="110.27102" xlink:href="#m349a48ffa9" y="68.115857"/>
     <use style="fill:#1f77b4;stroke:#1f77b4;" x="142.883663" xlink:href="#m349a48ffa9" y="106.108184"/>
     <use style="fill:#1f77b4;stroke:#1f77b4;" x="217.035979" xlink:href="#m349a48ffa9" y="119.035925"/>
     <use style="fill:#1f77b4;stroke:#1f77b4;" x="267.740991" xlink:href="#m349a48ffa9" y="88.186648"/>
     <use style="fill:#1f77b4;stroke:#1f77b4;" x="246.53903" xlink:href="#m349a48ffa9" y="86.716848"/>
     <use style="fill:#1f77b4;stroke:#1f77b4;" x="204.124128" xlink:href="#m349a48ffa9" y="98.877411"/>
     <use style="fill:#1f77b4;stroke:#1f77b4;" x="256.513355" xlink:href="#m349a48ffa9" y="63.116085"/>
     <use style="fill:#1f77b4;stroke:#1f77b4;" x="196.224499" xlink:href="#m349a48ffa9" y="114.411784"/>
     <use style="fill:#1f77b4;stroke:#1f77b4;" x="274.777095" xlink:href="#m349a48ffa9" y="79.003904"/>
     <use style="fill:#1f77b4;stroke:#1f77b4;" x="316.3664" xlink:href="#m349a48ffa9" y="91.474948"/>
     <use style="fill:#1f77b4;stroke:#1f77b4;" x="279.646288" xlink:href="#m349a48ffa9" y="134.101628"/>
     <use style="fill:#1f77b4;stroke:#1f77b4;" x="167.098978" xlink:href="#m349a48ffa9" y="103.281416"/>
     <use style="fill:#1f77b4;stroke:#1f77b4;" x="159.974509" xlink:href="#m349a48ffa9" y="93.521259"/>
     <use style="fill:#1f77b4;stroke:#1f77b4;" x="180.373343" xlink:href="#m349a48ffa9" y="86.904772"/>
     <use style="fill:#1f77b4;stroke:#1f77b4;" x="222.864973" xlink:href="#m349a48ffa9" y="110.045791"/>
     <use style="fill:#1f77b4;stroke:#1f77b4;" x="193.336434" xlink:href="#m349a48ffa9" y="51.437414"/>
     <use style="fill:#1f77b4;stroke:#1f77b4;" x="243.874649" xlink:href="#m349a48ffa9" y="81.173197"/>
     <use style="fill:#1f77b4;stroke:#1f77b4;" x="208.550633" xlink:href="#m349a48ffa9" y="99.798367"/>
     <use style="fill:#1f77b4;stroke:#1f77b4;" x="190.11051" xlink:href="#m349a48ffa9" y="121.713268"/>
     <use style="fill:#1f77b4;stroke:#1f77b4;" x="221.540445" xlink:href="#m349a48ffa9" y="109.167476"/>
     <use style="fill:#1f77b4;stroke:#1f77b4;" x="192.370908" xlink:href="#m349a48ffa9" y="91.083676"/>
     <use style="fill:#1f77b4;stroke:#1f77b4;" x="208.502005" xlink:href="#m349a48ffa9" y="23.725322"/>
     <use style="fill:#1f77b4;stroke:#1f77b4;" x="194.04992" xlink:href="#m349a48ffa9" y="95.973915"/>
     <use style="fill:#1f77b4;stroke:#1f77b4;" x="252.592473" xlink:href="#m349a48ffa9" y="122.519556"/>
     <use style="fill:#1f77b4;stroke:#1f77b4;" x="186.194374" xlink:href="#m349a48ffa9" y="64.326758"/>
     <use style="fill:#1f77b4;stroke:#1f77b4;" x="178.571682" xlink:href="#m349a48ffa9" y="99.180868"/>
     <use style="fill:#1f77b4;stroke:#1f77b4;" x="284.401776" xlink:href="#m349a48ffa9" y="119.377921"/>
     <use style="fill:#1f77b4;stroke:#1f77b4;" x="279.893332" xlink:href="#m349a48ffa9" y="140.308424"/>
     <use style="fill:#1f77b4;stroke:#1f77b4;" x="241.881655" xlink:href="#m349a48ffa9" y="60.967309"/>
     <use style="fill:#1f77b4;stroke:#1f77b4;" x="149.783055" xlink:href="#m349a48ffa9" y="74.803095"/>
     <use style="fill:#1f77b4;stroke:#1f77b4;" x="181.451113" xlink:href="#m349a48ffa9" y="84.472074"/>
     <use style="fill:#1f77b4;stroke:#1f77b4;" x="255.376138" xlink:href="#m349a48ffa9" y="95.094774"/>
     <use style="fill:#1f77b4;stroke:#1f77b4;" x="189.172589" xlink:href="#m349a48ffa9" y="97.146021"/>
     <use style="fill:#1f77b4;stroke:#1f77b4;" x="171.546049" xlink:href="#m349a48ffa9" y="102.768212"/>
     <use style="fill:#1f77b4;stroke:#1f77b4;" x="203.046063" xlink:href="#m349a48ffa9" y="103.198344"/>
     <use style="fill:#1f77b4;stroke:#1f77b4;" x="298.681056" xlink:href="#m349a48ffa9" y="109.962421"/>
     <use style="fill:#1f77b4;stroke:#1f77b4;" x="225.628004" xlink:href="#m349a48ffa9" y="90.475786"/>
     <use style="fill:#1f77b4;stroke:#1f77b4;" x="275.783177" xlink:href="#m349a48ffa9" y="106.109078"/>
     <use style="fill:#1f77b4;stroke:#1f77b4;" x="271.452762" xlink:href="#m349a48ffa9" y="129.17196"/>
     <use style="fill:#1f77b4;stroke:#1f77b4;" x="250.180132" xlink:href="#m349a48ffa9" y="89.131318"/>
     <use style="fill:#1f77b4;stroke:#1f77b4;" x="175.026427" xlink:href="#m349a48ffa9" y="97.081747"/>
     <use style="fill:#1f77b4;stroke:#1f77b4;" x="336.438382" xlink:href="#m349a48ffa9" y="187.875919"/>
     <use style="fill:#1f77b4;stroke:#1f77b4;" x="380.782781" xlink:href="#m349a48ffa9" y="131.672503"/>
     <use style="fill:#1f77b4;stroke:#1f77b4;" x="226.416891" xlink:href="#m349a48ffa9" y="114.919028"/>
     <use style="fill:#1f77b4;stroke:#1f77b4;" x="178.252165" xlink:href="#m349a48ffa9" y="115.713075"/>
     <use style="fill:#1f77b4;stroke:#1f77b4;" x="202.315362" xlink:href="#m349a48ffa9" y="112.753961"/>
     <use style="fill:#1f77b4;stroke:#1f77b4;" x="232.864571" xlink:href="#m349a48ffa9" y="105.34609"/>
     <use style="fill:#1f77b4;stroke:#1f77b4;" x="319.943496" xlink:href="#m349a48ffa9" y="83.775345"/>
     <use style="fill:#1f77b4;stroke:#1f77b4;" x="192.080577" xlink:href="#m349a48ffa9" y="103.480689"/>
     <use style="fill:#1f77b4;stroke:#1f77b4;" x="238.635593" xlink:href="#m349a48ffa9" y="109.802418"/>
     <use style="fill:#1f77b4;stroke:#1f77b4;" x="238.723397" xlink:href="#m349a48ffa9" y="137.683517"/>
     <use style="fill:#1f77b4;stroke:#1f77b4;" x="172.708567" xlink:href="#m349a48ffa9" y="64.196794"/>
     <use style="fill:#1f77b4;stroke:#1f77b4;" x="200.544605" xlink:href="#m349a48ffa9" y="97.951572"/>
     <use style="fill:#1f77b4;stroke:#1f77b4;" x="179.907204" xlink:href="#m349a48ffa9" y="89.743053"/>
     <use style="fill:#1f77b4;stroke:#1f77b4;" x="147.403588" xlink:href="#m349a48ffa9" y="85.814771"/>
     <use style="fill:#1f77b4;stroke:#1f77b4;" x="140.218182" xlink:href="#m349a48ffa9" y="86.085836"/>
     <use style="fill:#1f77b4;stroke:#1f77b4;" x="269.009866" xlink:href="#m349a48ffa9" y="127.300249"/>
     <use style="fill:#1f77b4;stroke:#1f77b4;" x="284.20921" xlink:href="#m349a48ffa9" y="104.142784"/>
     <use style="fill:#1f77b4;stroke:#1f77b4;" x="196.884102" xlink:href="#m349a48ffa9" y="80.983324"/>
     <use style="fill:#1f77b4;stroke:#1f77b4;" x="270.846023" xlink:href="#m349a48ffa9" y="107.870992"/>
     <use style="fill:#1f77b4;stroke:#1f77b4;" x="253.51633" xlink:href="#m349a48ffa9" y="117.794216"/>
     <use style="fill:#1f77b4;stroke:#1f77b4;" x="151.964525" xlink:href="#m349a48ffa9" y="64.919078"/>
     <use style="fill:#1f77b4;stroke:#1f77b4;" x="291.598403" xlink:href="#m349a48ffa9" y="93.935225"/>
     <use style="fill:#1f77b4;stroke:#1f77b4;" x="165.866409" xlink:href="#m349a48ffa9" y="84.209253"/>
     <use style="fill:#1f77b4;stroke:#1f77b4;" x="178.830748" xlink:href="#m349a48ffa9" y="56.925921"/>
     <use style="fill:#1f77b4;stroke:#1f77b4;" x="204.646939" xlink:href="#m349a48ffa9" y="74.045022"/>
     <use style="fill:#1f77b4;stroke:#1f77b4;" x="245.374194" xlink:href="#m349a48ffa9" y="87.203382"/>
     <use style="fill:#1f77b4;stroke:#1f77b4;" x="245.143538" xlink:href="#m349a48ffa9" y="129.854854"/>
     <use style="fill:#1f77b4;stroke:#1f77b4;" x="245.237267" xlink:href="#m349a48ffa9" y="78.299908"/>
     <use style="fill:#1f77b4;stroke:#1f77b4;" x="181.583428" xlink:href="#m349a48ffa9" y="80.153476"/>
     <use style="fill:#1f77b4;stroke:#1f77b4;" x="262.423517" xlink:href="#m349a48ffa9" y="53.186712"/>
     <use style="fill:#1f77b4;stroke:#1f77b4;" x="262.913734" xlink:href="#m349a48ffa9" y="78.690854"/>
     <use style="fill:#1f77b4;stroke:#1f77b4;" x="295.751684" xlink:href="#m349a48ffa9" y="95.430374"/>
     <use style="fill:#1f77b4;stroke:#1f77b4;" x="154.341646" xlink:href="#m349a48ffa9" y="99.102281"/>
     <use style="fill:#1f77b4;stroke:#1f77b4;" x="209.210584" xlink:href="#m349a48ffa9" y="91.171524"/>
     <use style="fill:#1f77b4;stroke:#1f77b4;" x="173.862395" xlink:href="#m349a48ffa9" y="78.180928"/>
     <use style="fill:#1f77b4;stroke:#1f77b4;" x="180.022599" xlink:href="#m349a48ffa9" y="99.261725"/>
     <use style="fill:#1f77b4;stroke:#1f77b4;" x="273.53325" xlink:href="#m349a48ffa9" y="79.438046"/>
     <use style="fill:#1f77b4;stroke:#1f77b4;" x="240.43" xlink:href="#m349a48ffa9" y="130.506098"/>
     <use style="fill:#1f77b4;stroke:#1f77b4;" x="182.330526" xlink:href="#m349a48ffa9" y="99.533192"/>
     <use style="fill:#1f77b4;stroke:#1f77b4;" x="180.315277" xlink:href="#m349a48ffa9" y="95.678943"/>
     <use style="fill:#1f77b4;stroke:#1f77b4;" x="192.465803" xlink:href="#m349a48ffa9" y="96.182417"/>
     <use style="fill:#1f77b4;stroke:#1f77b4;" x="311.305874" xlink:href="#m349a48ffa9" y="155.6621"/>
     <use style="fill:#1f77b4;stroke:#1f77b4;" x="305.790833" xlink:href="#m349a48ffa9" y="103.346437"/>
     <use style="fill:#1f77b4;stroke:#1f77b4;" x="249.781284" xlink:href="#m349a48ffa9" y="77.536253"/>
     <use style="fill:#1f77b4;stroke:#1f77b4;" x="174.244109" xlink:href="#m349a48ffa9" y="108.176576"/>
     <use style="fill:#1f77b4;stroke:#1f77b4;" x="267.064334" xlink:href="#m349a48ffa9" y="129.283417"/>
     <use style="fill:#1f77b4;stroke:#1f77b4;" x="187.70687" xlink:href="#m349a48ffa9" y="101.839372"/>
     <use style="fill:#1f77b4;stroke:#1f77b4;" x="395.950256" xlink:href="#m349a48ffa9" y="129.140746"/>
     <use style="fill:#1f77b4;stroke:#1f77b4;" x="162.746508" xlink:href="#m349a48ffa9" y="92.212029"/>
     <use style="fill:#1f77b4;stroke:#1f77b4;" x="204.932162" xlink:href="#m349a48ffa9" y="44.019271"/>
     <use style="fill:#1f77b4;stroke:#1f77b4;" x="256.110566" xlink:href="#m349a48ffa9" y="86.769108"/>
     <use style="fill:#1f77b4;stroke:#1f77b4;" x="183.432241" xlink:href="#m349a48ffa9" y="109.705908"/>
     <use style="fill:#1f77b4;stroke:#1f77b4;" x="250.071615" xlink:href="#m349a48ffa9" y="105.425756"/>
     <use style="fill:#1f77b4;stroke:#1f77b4;" x="124.144199" xlink:href="#m349a48ffa9" y="84.680248"/>
     <use style="fill:#1f77b4;stroke:#1f77b4;" x="275.565191" xlink:href="#m349a48ffa9" y="119.813018"/>
     <use style="fill:#1f77b4;stroke:#1f77b4;" x="214.021577" xlink:href="#m349a48ffa9" y="52.564505"/>
     <use style="fill:#1f77b4;stroke:#1f77b4;" x="202.017858" xlink:href="#m349a48ffa9" y="88.03856"/>
     <use style="fill:#1f77b4;stroke:#1f77b4;" x="179.679632" xlink:href="#m349a48ffa9" y="115.02301"/>
     <use style="fill:#1f77b4;stroke:#1f77b4;" x="190.659531" xlink:href="#m349a48ffa9" y="115.127908"/>
     <use style="fill:#1f77b4;stroke:#1f77b4;" x="328.580342" xlink:href="#m349a48ffa9" y="171.460448"/>
     <use style="fill:#1f77b4;stroke:#1f77b4;" x="274.834571" xlink:href="#m349a48ffa9" y="57.639805"/>
     <use style="fill:#1f77b4;stroke:#1f77b4;" x="319.61033" xlink:href="#m349a48ffa9" y="96.143954"/>
     <use style="fill:#1f77b4;stroke:#1f77b4;" x="267.815011" xlink:href="#m349a48ffa9" y="50.467123"/>
    </g>
   </g>
   <g id="matplotlib.axis_1">
    <g id="xtick_1">
     <g id="line2d_1">
      <defs>
       <path d="M 0 0 
L 0 3.5 
" id="m8171a8701c" style="stroke:#000000;stroke-width:0.8;"/>
      </defs>
      <g>
       <use style="stroke:#000000;stroke-width:0.8;" x="113.281955" xlink:href="#m8171a8701c" y="224.64"/>
      </g>
     </g>
     <g id="text_1">
      <!-- 0.4 -->
      <defs>
       <path d="M 31.78125 66.40625 
Q 24.171875 66.40625 20.328125 58.90625 
Q 16.5 51.421875 16.5 36.375 
Q 16.5 21.390625 20.328125 13.890625 
Q 24.171875 6.390625 31.78125 6.390625 
Q 39.453125 6.390625 43.28125 13.890625 
Q 47.125 21.390625 47.125 36.375 
Q 47.125 51.421875 43.28125 58.90625 
Q 39.453125 66.40625 31.78125 66.40625 
z
M 31.78125 74.21875 
Q 44.046875 74.21875 50.515625 64.515625 
Q 56.984375 54.828125 56.984375 36.375 
Q 56.984375 17.96875 50.515625 8.265625 
Q 44.046875 -1.421875 31.78125 -1.421875 
Q 19.53125 -1.421875 13.0625 8.265625 
Q 6.59375 17.96875 6.59375 36.375 
Q 6.59375 54.828125 13.0625 64.515625 
Q 19.53125 74.21875 31.78125 74.21875 
z
" id="DejaVuSans-48"/>
       <path d="M 10.6875 12.40625 
L 21 12.40625 
L 21 0 
L 10.6875 0 
z
" id="DejaVuSans-46"/>
       <path d="M 37.796875 64.3125 
L 12.890625 25.390625 
L 37.796875 25.390625 
z
M 35.203125 72.90625 
L 47.609375 72.90625 
L 47.609375 25.390625 
L 58.015625 25.390625 
L 58.015625 17.1875 
L 47.609375 17.1875 
L 47.609375 0 
L 37.796875 0 
L 37.796875 17.1875 
L 4.890625 17.1875 
L 4.890625 26.703125 
z
" id="DejaVuSans-52"/>
      </defs>
      <g transform="translate(105.330392 239.238437)scale(0.1 -0.1)">
       <use xlink:href="#DejaVuSans-48"/>
       <use x="63.623047" xlink:href="#DejaVuSans-46"/>
       <use x="95.410156" xlink:href="#DejaVuSans-52"/>
      </g>
     </g>
    </g>
    <g id="xtick_2">
     <g id="line2d_2">
      <g>
       <use style="stroke:#000000;stroke-width:0.8;" x="151.252859" xlink:href="#m8171a8701c" y="224.64"/>
      </g>
     </g>
     <g id="text_2">
      <!-- 0.6 -->
      <defs>
       <path d="M 33.015625 40.375 
Q 26.375 40.375 22.484375 35.828125 
Q 18.609375 31.296875 18.609375 23.390625 
Q 18.609375 15.53125 22.484375 10.953125 
Q 26.375 6.390625 33.015625 6.390625 
Q 39.65625 6.390625 43.53125 10.953125 
Q 47.40625 15.53125 47.40625 23.390625 
Q 47.40625 31.296875 43.53125 35.828125 
Q 39.65625 40.375 33.015625 40.375 
z
M 52.59375 71.296875 
L 52.59375 62.3125 
Q 48.875 64.0625 45.09375 64.984375 
Q 41.3125 65.921875 37.59375 65.921875 
Q 27.828125 65.921875 22.671875 59.328125 
Q 17.53125 52.734375 16.796875 39.40625 
Q 19.671875 43.65625 24.015625 45.921875 
Q 28.375 48.1875 33.59375 48.1875 
Q 44.578125 48.1875 50.953125 41.515625 
Q 57.328125 34.859375 57.328125 23.390625 
Q 57.328125 12.15625 50.6875 5.359375 
Q 44.046875 -1.421875 33.015625 -1.421875 
Q 20.359375 -1.421875 13.671875 8.265625 
Q 6.984375 17.96875 6.984375 36.375 
Q 6.984375 53.65625 15.1875 63.9375 
Q 23.390625 74.21875 37.203125 74.21875 
Q 40.921875 74.21875 44.703125 73.484375 
Q 48.484375 72.75 52.59375 71.296875 
z
" id="DejaVuSans-54"/>
      </defs>
      <g transform="translate(143.301296 239.238437)scale(0.1 -0.1)">
       <use xlink:href="#DejaVuSans-48"/>
       <use x="63.623047" xlink:href="#DejaVuSans-46"/>
       <use x="95.410156" xlink:href="#DejaVuSans-54"/>
      </g>
     </g>
    </g>
    <g id="xtick_3">
     <g id="line2d_3">
      <g>
       <use style="stroke:#000000;stroke-width:0.8;" x="189.223763" xlink:href="#m8171a8701c" y="224.64"/>
      </g>
     </g>
     <g id="text_3">
      <!-- 0.8 -->
      <defs>
       <path d="M 31.78125 34.625 
Q 24.75 34.625 20.71875 30.859375 
Q 16.703125 27.09375 16.703125 20.515625 
Q 16.703125 13.921875 20.71875 10.15625 
Q 24.75 6.390625 31.78125 6.390625 
Q 38.8125 6.390625 42.859375 10.171875 
Q 46.921875 13.96875 46.921875 20.515625 
Q 46.921875 27.09375 42.890625 30.859375 
Q 38.875 34.625 31.78125 34.625 
z
M 21.921875 38.8125 
Q 15.578125 40.375 12.03125 44.71875 
Q 8.5 49.078125 8.5 55.328125 
Q 8.5 64.0625 14.71875 69.140625 
Q 20.953125 74.21875 31.78125 74.21875 
Q 42.671875 74.21875 48.875 69.140625 
Q 55.078125 64.0625 55.078125 55.328125 
Q 55.078125 49.078125 51.53125 44.71875 
Q 48 40.375 41.703125 38.8125 
Q 48.828125 37.15625 52.796875 32.3125 
Q 56.78125 27.484375 56.78125 20.515625 
Q 56.78125 9.90625 50.3125 4.234375 
Q 43.84375 -1.421875 31.78125 -1.421875 
Q 19.734375 -1.421875 13.25 4.234375 
Q 6.78125 9.90625 6.78125 20.515625 
Q 6.78125 27.484375 10.78125 32.3125 
Q 14.796875 37.15625 21.921875 38.8125 
z
M 18.3125 54.390625 
Q 18.3125 48.734375 21.84375 45.5625 
Q 25.390625 42.390625 31.78125 42.390625 
Q 38.140625 42.390625 41.71875 45.5625 
Q 45.3125 48.734375 45.3125 54.390625 
Q 45.3125 60.0625 41.71875 63.234375 
Q 38.140625 66.40625 31.78125 66.40625 
Q 25.390625 66.40625 21.84375 63.234375 
Q 18.3125 60.0625 18.3125 54.390625 
z
" id="DejaVuSans-56"/>
      </defs>
      <g transform="translate(181.272201 239.238437)scale(0.1 -0.1)">
       <use xlink:href="#DejaVuSans-48"/>
       <use x="63.623047" xlink:href="#DejaVuSans-46"/>
       <use x="95.410156" xlink:href="#DejaVuSans-56"/>
      </g>
     </g>
    </g>
    <g id="xtick_4">
     <g id="line2d_4">
      <g>
       <use style="stroke:#000000;stroke-width:0.8;" x="227.194668" xlink:href="#m8171a8701c" y="224.64"/>
      </g>
     </g>
     <g id="text_4">
      <!-- 1.0 -->
      <defs>
       <path d="M 12.40625 8.296875 
L 28.515625 8.296875 
L 28.515625 63.921875 
L 10.984375 60.40625 
L 10.984375 69.390625 
L 28.421875 72.90625 
L 38.28125 72.90625 
L 38.28125 8.296875 
L 54.390625 8.296875 
L 54.390625 0 
L 12.40625 0 
z
" id="DejaVuSans-49"/>
      </defs>
      <g transform="translate(219.243105 239.238437)scale(0.1 -0.1)">
       <use xlink:href="#DejaVuSans-49"/>
       <use x="63.623047" xlink:href="#DejaVuSans-46"/>
       <use x="95.410156" xlink:href="#DejaVuSans-48"/>
      </g>
     </g>
    </g>
    <g id="xtick_5">
     <g id="line2d_5">
      <g>
       <use style="stroke:#000000;stroke-width:0.8;" x="265.165572" xlink:href="#m8171a8701c" y="224.64"/>
      </g>
     </g>
     <g id="text_5">
      <!-- 1.2 -->
      <defs>
       <path d="M 19.1875 8.296875 
L 53.609375 8.296875 
L 53.609375 0 
L 7.328125 0 
L 7.328125 8.296875 
Q 12.9375 14.109375 22.625 23.890625 
Q 32.328125 33.6875 34.8125 36.53125 
Q 39.546875 41.84375 41.421875 45.53125 
Q 43.3125 49.21875 43.3125 52.78125 
Q 43.3125 58.59375 39.234375 62.25 
Q 35.15625 65.921875 28.609375 65.921875 
Q 23.96875 65.921875 18.8125 64.3125 
Q 13.671875 62.703125 7.8125 59.421875 
L 7.8125 69.390625 
Q 13.765625 71.78125 18.9375 73 
Q 24.125 74.21875 28.421875 74.21875 
Q 39.75 74.21875 46.484375 68.546875 
Q 53.21875 62.890625 53.21875 53.421875 
Q 53.21875 48.921875 51.53125 44.890625 
Q 49.859375 40.875 45.40625 35.40625 
Q 44.1875 33.984375 37.640625 27.21875 
Q 31.109375 20.453125 19.1875 8.296875 
z
" id="DejaVuSans-50"/>
      </defs>
      <g transform="translate(257.214009 239.238437)scale(0.1 -0.1)">
       <use xlink:href="#DejaVuSans-49"/>
       <use x="63.623047" xlink:href="#DejaVuSans-46"/>
       <use x="95.410156" xlink:href="#DejaVuSans-50"/>
      </g>
     </g>
    </g>
    <g id="xtick_6">
     <g id="line2d_6">
      <g>
       <use style="stroke:#000000;stroke-width:0.8;" x="303.136476" xlink:href="#m8171a8701c" y="224.64"/>
      </g>
     </g>
     <g id="text_6">
      <!-- 1.4 -->
      <g transform="translate(295.184914 239.238437)scale(0.1 -0.1)">
       <use xlink:href="#DejaVuSans-49"/>
       <use x="63.623047" xlink:href="#DejaVuSans-46"/>
       <use x="95.410156" xlink:href="#DejaVuSans-52"/>
      </g>
     </g>
    </g>
    <g id="xtick_7">
     <g id="line2d_7">
      <g>
       <use style="stroke:#000000;stroke-width:0.8;" x="341.107381" xlink:href="#m8171a8701c" y="224.64"/>
      </g>
     </g>
     <g id="text_7">
      <!-- 1.6 -->
      <g transform="translate(333.155818 239.238437)scale(0.1 -0.1)">
       <use xlink:href="#DejaVuSans-49"/>
       <use x="63.623047" xlink:href="#DejaVuSans-46"/>
       <use x="95.410156" xlink:href="#DejaVuSans-54"/>
      </g>
     </g>
    </g>
    <g id="xtick_8">
     <g id="line2d_8">
      <g>
       <use style="stroke:#000000;stroke-width:0.8;" x="379.078285" xlink:href="#m8171a8701c" y="224.64"/>
      </g>
     </g>
     <g id="text_8">
      <!-- 1.8 -->
      <g transform="translate(371.126722 239.238437)scale(0.1 -0.1)">
       <use xlink:href="#DejaVuSans-49"/>
       <use x="63.623047" xlink:href="#DejaVuSans-46"/>
       <use x="95.410156" xlink:href="#DejaVuSans-56"/>
      </g>
     </g>
    </g>
    <g id="text_9">
     <!-- Home Price Actual -->
     <defs>
      <path d="M 9.8125 72.90625 
L 19.671875 72.90625 
L 19.671875 43.015625 
L 55.515625 43.015625 
L 55.515625 72.90625 
L 65.375 72.90625 
L 65.375 0 
L 55.515625 0 
L 55.515625 34.71875 
L 19.671875 34.71875 
L 19.671875 0 
L 9.8125 0 
z
" id="DejaVuSans-72"/>
      <path d="M 30.609375 48.390625 
Q 23.390625 48.390625 19.1875 42.75 
Q 14.984375 37.109375 14.984375 27.296875 
Q 14.984375 17.484375 19.15625 11.84375 
Q 23.34375 6.203125 30.609375 6.203125 
Q 37.796875 6.203125 41.984375 11.859375 
Q 46.1875 17.53125 46.1875 27.296875 
Q 46.1875 37.015625 41.984375 42.703125 
Q 37.796875 48.390625 30.609375 48.390625 
z
M 30.609375 56 
Q 42.328125 56 49.015625 48.375 
Q 55.71875 40.765625 55.71875 27.296875 
Q 55.71875 13.875 49.015625 6.21875 
Q 42.328125 -1.421875 30.609375 -1.421875 
Q 18.84375 -1.421875 12.171875 6.21875 
Q 5.515625 13.875 5.515625 27.296875 
Q 5.515625 40.765625 12.171875 48.375 
Q 18.84375 56 30.609375 56 
z
" id="DejaVuSans-111"/>
      <path d="M 52 44.1875 
Q 55.375 50.25 60.0625 53.125 
Q 64.75 56 71.09375 56 
Q 79.640625 56 84.28125 50.015625 
Q 88.921875 44.046875 88.921875 33.015625 
L 88.921875 0 
L 79.890625 0 
L 79.890625 32.71875 
Q 79.890625 40.578125 77.09375 44.375 
Q 74.3125 48.1875 68.609375 48.1875 
Q 61.625 48.1875 57.5625 43.546875 
Q 53.515625 38.921875 53.515625 30.90625 
L 53.515625 0 
L 44.484375 0 
L 44.484375 32.71875 
Q 44.484375 40.625 41.703125 44.40625 
Q 38.921875 48.1875 33.109375 48.1875 
Q 26.21875 48.1875 22.15625 43.53125 
Q 18.109375 38.875 18.109375 30.90625 
L 18.109375 0 
L 9.078125 0 
L 9.078125 54.6875 
L 18.109375 54.6875 
L 18.109375 46.1875 
Q 21.1875 51.21875 25.484375 53.609375 
Q 29.78125 56 35.6875 56 
Q 41.65625 56 45.828125 52.96875 
Q 50 49.953125 52 44.1875 
z
" id="DejaVuSans-109"/>
      <path d="M 56.203125 29.59375 
L 56.203125 25.203125 
L 14.890625 25.203125 
Q 15.484375 15.921875 20.484375 11.0625 
Q 25.484375 6.203125 34.421875 6.203125 
Q 39.59375 6.203125 44.453125 7.46875 
Q 49.3125 8.734375 54.109375 11.28125 
L 54.109375 2.78125 
Q 49.265625 0.734375 44.1875 -0.34375 
Q 39.109375 -1.421875 33.890625 -1.421875 
Q 20.796875 -1.421875 13.15625 6.1875 
Q 5.515625 13.8125 5.515625 26.8125 
Q 5.515625 40.234375 12.765625 48.109375 
Q 20.015625 56 32.328125 56 
Q 43.359375 56 49.78125 48.890625 
Q 56.203125 41.796875 56.203125 29.59375 
z
M 47.21875 32.234375 
Q 47.125 39.59375 43.09375 43.984375 
Q 39.0625 48.390625 32.421875 48.390625 
Q 24.90625 48.390625 20.390625 44.140625 
Q 15.875 39.890625 15.1875 32.171875 
z
" id="DejaVuSans-101"/>
      <path id="DejaVuSans-32"/>
      <path d="M 19.671875 64.796875 
L 19.671875 37.40625 
L 32.078125 37.40625 
Q 38.96875 37.40625 42.71875 40.96875 
Q 46.484375 44.53125 46.484375 51.125 
Q 46.484375 57.671875 42.71875 61.234375 
Q 38.96875 64.796875 32.078125 64.796875 
z
M 9.8125 72.90625 
L 32.078125 72.90625 
Q 44.34375 72.90625 50.609375 67.359375 
Q 56.890625 61.8125 56.890625 51.125 
Q 56.890625 40.328125 50.609375 34.8125 
Q 44.34375 29.296875 32.078125 29.296875 
L 19.671875 29.296875 
L 19.671875 0 
L 9.8125 0 
z
" id="DejaVuSans-80"/>
      <path d="M 41.109375 46.296875 
Q 39.59375 47.171875 37.8125 47.578125 
Q 36.03125 48 33.890625 48 
Q 26.265625 48 22.1875 43.046875 
Q 18.109375 38.09375 18.109375 28.8125 
L 18.109375 0 
L 9.078125 0 
L 9.078125 54.6875 
L 18.109375 54.6875 
L 18.109375 46.1875 
Q 20.953125 51.171875 25.484375 53.578125 
Q 30.03125 56 36.53125 56 
Q 37.453125 56 38.578125 55.875 
Q 39.703125 55.765625 41.0625 55.515625 
z
" id="DejaVuSans-114"/>
      <path d="M 9.421875 54.6875 
L 18.40625 54.6875 
L 18.40625 0 
L 9.421875 0 
z
M 9.421875 75.984375 
L 18.40625 75.984375 
L 18.40625 64.59375 
L 9.421875 64.59375 
z
" id="DejaVuSans-105"/>
      <path d="M 48.78125 52.59375 
L 48.78125 44.1875 
Q 44.96875 46.296875 41.140625 47.34375 
Q 37.3125 48.390625 33.40625 48.390625 
Q 24.65625 48.390625 19.8125 42.84375 
Q 14.984375 37.3125 14.984375 27.296875 
Q 14.984375 17.28125 19.8125 11.734375 
Q 24.65625 6.203125 33.40625 6.203125 
Q 37.3125 6.203125 41.140625 7.25 
Q 44.96875 8.296875 48.78125 10.40625 
L 48.78125 2.09375 
Q 45.015625 0.34375 40.984375 -0.53125 
Q 36.96875 -1.421875 32.421875 -1.421875 
Q 20.0625 -1.421875 12.78125 6.34375 
Q 5.515625 14.109375 5.515625 27.296875 
Q 5.515625 40.671875 12.859375 48.328125 
Q 20.21875 56 33.015625 56 
Q 37.15625 56 41.109375 55.140625 
Q 45.0625 54.296875 48.78125 52.59375 
z
" id="DejaVuSans-99"/>
      <path d="M 34.1875 63.1875 
L 20.796875 26.90625 
L 47.609375 26.90625 
z
M 28.609375 72.90625 
L 39.796875 72.90625 
L 67.578125 0 
L 57.328125 0 
L 50.6875 18.703125 
L 17.828125 18.703125 
L 11.1875 0 
L 0.78125 0 
z
" id="DejaVuSans-65"/>
      <path d="M 18.3125 70.21875 
L 18.3125 54.6875 
L 36.8125 54.6875 
L 36.8125 47.703125 
L 18.3125 47.703125 
L 18.3125 18.015625 
Q 18.3125 11.328125 20.140625 9.421875 
Q 21.96875 7.515625 27.59375 7.515625 
L 36.8125 7.515625 
L 36.8125 0 
L 27.59375 0 
Q 17.1875 0 13.234375 3.875 
Q 9.28125 7.765625 9.28125 18.015625 
L 9.28125 47.703125 
L 2.6875 47.703125 
L 2.6875 54.6875 
L 9.28125 54.6875 
L 9.28125 70.21875 
z
" id="DejaVuSans-116"/>
      <path d="M 8.5 21.578125 
L 8.5 54.6875 
L 17.484375 54.6875 
L 17.484375 21.921875 
Q 17.484375 14.15625 20.5 10.265625 
Q 23.53125 6.390625 29.59375 6.390625 
Q 36.859375 6.390625 41.078125 11.03125 
Q 45.3125 15.671875 45.3125 23.6875 
L 45.3125 54.6875 
L 54.296875 54.6875 
L 54.296875 0 
L 45.3125 0 
L 45.3125 8.40625 
Q 42.046875 3.421875 37.71875 1 
Q 33.40625 -1.421875 27.6875 -1.421875 
Q 18.265625 -1.421875 13.375 4.4375 
Q 8.5 10.296875 8.5 21.578125 
z
M 31.109375 56 
z
" id="DejaVuSans-117"/>
      <path d="M 34.28125 27.484375 
Q 23.390625 27.484375 19.1875 25 
Q 14.984375 22.515625 14.984375 16.5 
Q 14.984375 11.71875 18.140625 8.90625 
Q 21.296875 6.109375 26.703125 6.109375 
Q 34.1875 6.109375 38.703125 11.40625 
Q 43.21875 16.703125 43.21875 25.484375 
L 43.21875 27.484375 
z
M 52.203125 31.203125 
L 52.203125 0 
L 43.21875 0 
L 43.21875 8.296875 
Q 40.140625 3.328125 35.546875 0.953125 
Q 30.953125 -1.421875 24.3125 -1.421875 
Q 15.921875 -1.421875 10.953125 3.296875 
Q 6 8.015625 6 15.921875 
Q 6 25.140625 12.171875 29.828125 
Q 18.359375 34.515625 30.609375 34.515625 
L 43.21875 34.515625 
L 43.21875 35.40625 
Q 43.21875 41.609375 39.140625 45 
Q 35.0625 48.390625 27.6875 48.390625 
Q 23 48.390625 18.546875 47.265625 
Q 14.109375 46.140625 10.015625 43.890625 
L 10.015625 52.203125 
Q 14.9375 54.109375 19.578125 55.046875 
Q 24.21875 56 28.609375 56 
Q 40.484375 56 46.34375 49.84375 
Q 52.203125 43.703125 52.203125 31.203125 
z
" id="DejaVuSans-97"/>
      <path d="M 9.421875 75.984375 
L 18.40625 75.984375 
L 18.40625 0 
L 9.421875 0 
z
" id="DejaVuSans-108"/>
     </defs>
     <g transform="translate(188.800938 254.43625)scale(0.12 -0.12)">
      <use xlink:href="#DejaVuSans-72"/>
      <use x="75.195312" xlink:href="#DejaVuSans-111"/>
      <use x="136.376953" xlink:href="#DejaVuSans-109"/>
      <use x="233.789062" xlink:href="#DejaVuSans-101"/>
      <use x="295.3125" xlink:href="#DejaVuSans-32"/>
      <use x="327.099609" xlink:href="#DejaVuSans-80"/>
      <use x="385.652344" xlink:href="#DejaVuSans-114"/>
      <use x="426.765625" xlink:href="#DejaVuSans-105"/>
      <use x="454.548828" xlink:href="#DejaVuSans-99"/>
      <use x="509.529297" xlink:href="#DejaVuSans-101"/>
      <use x="571.052734" xlink:href="#DejaVuSans-32"/>
      <use x="602.839844" xlink:href="#DejaVuSans-65"/>
      <use x="669.498047" xlink:href="#DejaVuSans-99"/>
      <use x="724.478516" xlink:href="#DejaVuSans-116"/>
      <use x="763.6875" xlink:href="#DejaVuSans-117"/>
      <use x="827.066406" xlink:href="#DejaVuSans-97"/>
      <use x="888.345703" xlink:href="#DejaVuSans-108"/>
     </g>
    </g>
    <g id="text_10">
     <!-- 1e6 -->
     <g transform="translate(392.290313 251.916562)scale(0.1 -0.1)">
      <use xlink:href="#DejaVuSans-49"/>
      <use x="63.623047" xlink:href="#DejaVuSans-101"/>
      <use x="125.146484" xlink:href="#DejaVuSans-54"/>
     </g>
    </g>
   </g>
   <g id="matplotlib.axis_2">
    <g id="ytick_1">
     <g id="line2d_9">
      <defs>
       <path d="M 0 0 
L -3.5 0 
" id="m501614719b" style="stroke:#000000;stroke-width:0.8;"/>
      </defs>
      <g>
       <use style="stroke:#000000;stroke-width:0.8;" x="76.368437" xlink:href="#m501614719b" y="199.784676"/>
      </g>
     </g>
     <g id="text_11">
      <!-- −800000 -->
      <defs>
       <path d="M 10.59375 35.5 
L 73.1875 35.5 
L 73.1875 27.203125 
L 10.59375 27.203125 
z
" id="DejaVuSans-8722"/>
      </defs>
      <g transform="translate(22.81375 203.583895)scale(0.1 -0.1)">
       <use xlink:href="#DejaVuSans-8722"/>
       <use x="83.789062" xlink:href="#DejaVuSans-56"/>
       <use x="147.412109" xlink:href="#DejaVuSans-48"/>
       <use x="211.035156" xlink:href="#DejaVuSans-48"/>
       <use x="274.658203" xlink:href="#DejaVuSans-48"/>
       <use x="338.28125" xlink:href="#DejaVuSans-48"/>
       <use x="401.904297" xlink:href="#DejaVuSans-48"/>
      </g>
     </g>
    </g>
    <g id="ytick_2">
     <g id="line2d_10">
      <g>
       <use style="stroke:#000000;stroke-width:0.8;" x="76.368437" xlink:href="#m501614719b" y="174.605604"/>
      </g>
     </g>
     <g id="text_12">
      <!-- −600000 -->
      <g transform="translate(22.81375 178.404822)scale(0.1 -0.1)">
       <use xlink:href="#DejaVuSans-8722"/>
       <use x="83.789062" xlink:href="#DejaVuSans-54"/>
       <use x="147.412109" xlink:href="#DejaVuSans-48"/>
       <use x="211.035156" xlink:href="#DejaVuSans-48"/>
       <use x="274.658203" xlink:href="#DejaVuSans-48"/>
       <use x="338.28125" xlink:href="#DejaVuSans-48"/>
       <use x="401.904297" xlink:href="#DejaVuSans-48"/>
      </g>
     </g>
    </g>
    <g id="ytick_3">
     <g id="line2d_11">
      <g>
       <use style="stroke:#000000;stroke-width:0.8;" x="76.368437" xlink:href="#m501614719b" y="149.426531"/>
      </g>
     </g>
     <g id="text_13">
      <!-- −400000 -->
      <g transform="translate(22.81375 153.22575)scale(0.1 -0.1)">
       <use xlink:href="#DejaVuSans-8722"/>
       <use x="83.789062" xlink:href="#DejaVuSans-52"/>
       <use x="147.412109" xlink:href="#DejaVuSans-48"/>
       <use x="211.035156" xlink:href="#DejaVuSans-48"/>
       <use x="274.658203" xlink:href="#DejaVuSans-48"/>
       <use x="338.28125" xlink:href="#DejaVuSans-48"/>
       <use x="401.904297" xlink:href="#DejaVuSans-48"/>
      </g>
     </g>
    </g>
    <g id="ytick_4">
     <g id="line2d_12">
      <g>
       <use style="stroke:#000000;stroke-width:0.8;" x="76.368437" xlink:href="#m501614719b" y="124.247459"/>
      </g>
     </g>
     <g id="text_14">
      <!-- −200000 -->
      <g transform="translate(22.81375 128.046677)scale(0.1 -0.1)">
       <use xlink:href="#DejaVuSans-8722"/>
       <use x="83.789062" xlink:href="#DejaVuSans-50"/>
       <use x="147.412109" xlink:href="#DejaVuSans-48"/>
       <use x="211.035156" xlink:href="#DejaVuSans-48"/>
       <use x="274.658203" xlink:href="#DejaVuSans-48"/>
       <use x="338.28125" xlink:href="#DejaVuSans-48"/>
       <use x="401.904297" xlink:href="#DejaVuSans-48"/>
      </g>
     </g>
    </g>
    <g id="ytick_5">
     <g id="line2d_13">
      <g>
       <use style="stroke:#000000;stroke-width:0.8;" x="76.368437" xlink:href="#m501614719b" y="99.068386"/>
      </g>
     </g>
     <g id="text_15">
      <!-- 0 -->
      <g transform="translate(63.005938 102.867605)scale(0.1 -0.1)">
       <use xlink:href="#DejaVuSans-48"/>
      </g>
     </g>
    </g>
    <g id="ytick_6">
     <g id="line2d_14">
      <g>
       <use style="stroke:#000000;stroke-width:0.8;" x="76.368437" xlink:href="#m501614719b" y="73.889314"/>
      </g>
     </g>
     <g id="text_16">
      <!-- 200000 -->
      <g transform="translate(31.193437 77.688532)scale(0.1 -0.1)">
       <use xlink:href="#DejaVuSans-50"/>
       <use x="63.623047" xlink:href="#DejaVuSans-48"/>
       <use x="127.246094" xlink:href="#DejaVuSans-48"/>
       <use x="190.869141" xlink:href="#DejaVuSans-48"/>
       <use x="254.492188" xlink:href="#DejaVuSans-48"/>
       <use x="318.115234" xlink:href="#DejaVuSans-48"/>
      </g>
     </g>
    </g>
    <g id="ytick_7">
     <g id="line2d_15">
      <g>
       <use style="stroke:#000000;stroke-width:0.8;" x="76.368437" xlink:href="#m501614719b" y="48.710241"/>
      </g>
     </g>
     <g id="text_17">
      <!-- 400000 -->
      <g transform="translate(31.193437 52.50946)scale(0.1 -0.1)">
       <use xlink:href="#DejaVuSans-52"/>
       <use x="63.623047" xlink:href="#DejaVuSans-48"/>
       <use x="127.246094" xlink:href="#DejaVuSans-48"/>
       <use x="190.869141" xlink:href="#DejaVuSans-48"/>
       <use x="254.492188" xlink:href="#DejaVuSans-48"/>
       <use x="318.115234" xlink:href="#DejaVuSans-48"/>
      </g>
     </g>
    </g>
    <g id="ytick_8">
     <g id="line2d_16">
      <g>
       <use style="stroke:#000000;stroke-width:0.8;" x="76.368437" xlink:href="#m501614719b" y="23.531168"/>
      </g>
     </g>
     <g id="text_18">
      <!-- 600000 -->
      <g transform="translate(31.193437 27.330387)scale(0.1 -0.1)">
       <use xlink:href="#DejaVuSans-54"/>
       <use x="63.623047" xlink:href="#DejaVuSans-48"/>
       <use x="127.246094" xlink:href="#DejaVuSans-48"/>
       <use x="190.869141" xlink:href="#DejaVuSans-48"/>
       <use x="254.492188" xlink:href="#DejaVuSans-48"/>
       <use x="318.115234" xlink:href="#DejaVuSans-48"/>
      </g>
     </g>
    </g>
    <g id="text_19">
     <!-- Residual Amount -->
     <defs>
      <path d="M 44.390625 34.1875 
Q 47.5625 33.109375 50.5625 29.59375 
Q 53.5625 26.078125 56.59375 19.921875 
L 66.609375 0 
L 56 0 
L 46.6875 18.703125 
Q 43.0625 26.03125 39.671875 28.421875 
Q 36.28125 30.8125 30.421875 30.8125 
L 19.671875 30.8125 
L 19.671875 0 
L 9.8125 0 
L 9.8125 72.90625 
L 32.078125 72.90625 
Q 44.578125 72.90625 50.734375 67.671875 
Q 56.890625 62.453125 56.890625 51.90625 
Q 56.890625 45.015625 53.6875 40.46875 
Q 50.484375 35.9375 44.390625 34.1875 
z
M 19.671875 64.796875 
L 19.671875 38.921875 
L 32.078125 38.921875 
Q 39.203125 38.921875 42.84375 42.21875 
Q 46.484375 45.515625 46.484375 51.90625 
Q 46.484375 58.296875 42.84375 61.546875 
Q 39.203125 64.796875 32.078125 64.796875 
z
" id="DejaVuSans-82"/>
      <path d="M 44.28125 53.078125 
L 44.28125 44.578125 
Q 40.484375 46.53125 36.375 47.5 
Q 32.28125 48.484375 27.875 48.484375 
Q 21.1875 48.484375 17.84375 46.4375 
Q 14.5 44.390625 14.5 40.28125 
Q 14.5 37.15625 16.890625 35.375 
Q 19.28125 33.59375 26.515625 31.984375 
L 29.59375 31.296875 
Q 39.15625 29.25 43.1875 25.515625 
Q 47.21875 21.78125 47.21875 15.09375 
Q 47.21875 7.46875 41.1875 3.015625 
Q 35.15625 -1.421875 24.609375 -1.421875 
Q 20.21875 -1.421875 15.453125 -0.5625 
Q 10.6875 0.296875 5.421875 2 
L 5.421875 11.28125 
Q 10.40625 8.6875 15.234375 7.390625 
Q 20.0625 6.109375 24.8125 6.109375 
Q 31.15625 6.109375 34.5625 8.28125 
Q 37.984375 10.453125 37.984375 14.40625 
Q 37.984375 18.0625 35.515625 20.015625 
Q 33.0625 21.96875 24.703125 23.78125 
L 21.578125 24.515625 
Q 13.234375 26.265625 9.515625 29.90625 
Q 5.8125 33.546875 5.8125 39.890625 
Q 5.8125 47.609375 11.28125 51.796875 
Q 16.75 56 26.8125 56 
Q 31.78125 56 36.171875 55.265625 
Q 40.578125 54.546875 44.28125 53.078125 
z
" id="DejaVuSans-115"/>
      <path d="M 45.40625 46.390625 
L 45.40625 75.984375 
L 54.390625 75.984375 
L 54.390625 0 
L 45.40625 0 
L 45.40625 8.203125 
Q 42.578125 3.328125 38.25 0.953125 
Q 33.9375 -1.421875 27.875 -1.421875 
Q 17.96875 -1.421875 11.734375 6.484375 
Q 5.515625 14.40625 5.515625 27.296875 
Q 5.515625 40.1875 11.734375 48.09375 
Q 17.96875 56 27.875 56 
Q 33.9375 56 38.25 53.625 
Q 42.578125 51.265625 45.40625 46.390625 
z
M 14.796875 27.296875 
Q 14.796875 17.390625 18.875 11.75 
Q 22.953125 6.109375 30.078125 6.109375 
Q 37.203125 6.109375 41.296875 11.75 
Q 45.40625 17.390625 45.40625 27.296875 
Q 45.40625 37.203125 41.296875 42.84375 
Q 37.203125 48.484375 30.078125 48.484375 
Q 22.953125 48.484375 18.875 42.84375 
Q 14.796875 37.203125 14.796875 27.296875 
z
" id="DejaVuSans-100"/>
      <path d="M 54.890625 33.015625 
L 54.890625 0 
L 45.90625 0 
L 45.90625 32.71875 
Q 45.90625 40.484375 42.875 44.328125 
Q 39.84375 48.1875 33.796875 48.1875 
Q 26.515625 48.1875 22.3125 43.546875 
Q 18.109375 38.921875 18.109375 30.90625 
L 18.109375 0 
L 9.078125 0 
L 9.078125 54.6875 
L 18.109375 54.6875 
L 18.109375 46.1875 
Q 21.34375 51.125 25.703125 53.5625 
Q 30.078125 56 35.796875 56 
Q 45.21875 56 50.046875 50.171875 
Q 54.890625 44.34375 54.890625 33.015625 
z
" id="DejaVuSans-110"/>
     </defs>
     <g transform="translate(16.318125 166.742812)rotate(-90)scale(0.12 -0.12)">
      <use xlink:href="#DejaVuSans-82"/>
      <use x="64.982422" xlink:href="#DejaVuSans-101"/>
      <use x="126.505859" xlink:href="#DejaVuSans-115"/>
      <use x="178.605469" xlink:href="#DejaVuSans-105"/>
      <use x="206.388672" xlink:href="#DejaVuSans-100"/>
      <use x="269.865234" xlink:href="#DejaVuSans-117"/>
      <use x="333.244141" xlink:href="#DejaVuSans-97"/>
      <use x="394.523438" xlink:href="#DejaVuSans-108"/>
      <use x="422.306641" xlink:href="#DejaVuSans-32"/>
      <use x="454.09375" xlink:href="#DejaVuSans-65"/>
      <use x="522.501953" xlink:href="#DejaVuSans-109"/>
      <use x="619.914062" xlink:href="#DejaVuSans-111"/>
      <use x="681.095703" xlink:href="#DejaVuSans-117"/>
      <use x="744.474609" xlink:href="#DejaVuSans-110"/>
      <use x="807.853516" xlink:href="#DejaVuSans-116"/>
     </g>
    </g>
   </g>
   <g id="line2d_17">
    <path clip-path="url(#p1c406102fb)" d="M 251.232054 99.068386 
L 91.586619 99.068386 
L 395.950256 99.068386 
L 267.815011 99.068386 
" style="fill:none;stroke:#1f77b4;stroke-linecap:square;stroke-width:1.5;"/>
   </g>
   <g id="patch_3">
    <path d="M 76.368437 224.64 
L 76.368437 7.2 
" style="fill:none;stroke:#000000;stroke-linecap:square;stroke-linejoin:miter;stroke-width:0.8;"/>
   </g>
   <g id="patch_4">
    <path d="M 411.168438 224.64 
L 411.168438 7.2 
" style="fill:none;stroke:#000000;stroke-linecap:square;stroke-linejoin:miter;stroke-width:0.8;"/>
   </g>
   <g id="patch_5">
    <path d="M 76.368437 224.64 
L 411.168438 224.64 
" style="fill:none;stroke:#000000;stroke-linecap:square;stroke-linejoin:miter;stroke-width:0.8;"/>
   </g>
   <g id="patch_6">
    <path d="M 76.368437 7.2 
L 411.168438 7.2 
" style="fill:none;stroke:#000000;stroke-linecap:square;stroke-linejoin:miter;stroke-width:0.8;"/>
   </g>
  </g>
 </g>
 <defs>
  <clipPath id="p1c406102fb">
   <rect height="217.44" width="334.8" x="76.368437" y="7.2"/>
  </clipPath>
 </defs>
</svg>
