<?xml version="1.0" encoding="utf-8" standalone="no"?>
<!DOCTYPE svg PUBLIC "-//W3C//DTD SVG 1.1//EN"
  "http://www.w3.org/Graphics/SVG/1.1/DTD/svg11.dtd">
<!-- Created with matplotlib (https://matplotlib.org/) -->
<svg height="263.63625pt" version="1.1" viewBox="0 0 404.86875 263.63625" width="404.86875pt" xmlns="http://www.w3.org/2000/svg" xmlns:xlink="http://www.w3.org/1999/xlink">
 <defs>
  <style type="text/css">
*{stroke-linecap:butt;stroke-linejoin:round;}
  </style>
 </defs>
 <g id="figure_1">
  <g id="patch_1">
   <path d="M 0 263.63625 
L 404.86875 263.63625 
L 404.86875 0 
L 0 0 
z
" style="fill:none;"/>
  </g>
  <g id="axes_1">
   <g id="patch_2">
    <path d="M 62.86875 239.758125 
L 397.66875 239.758125 
L 397.66875 22.318125 
L 62.86875 22.318125 
z
" style="fill:#ffffff;"/>
   </g>
   <g id="patch_3">
    <path clip-path="url(#p7b2d176c6e)" d="M 154.177841 239.758125 
L 159.250568 239.758125 
L 159.250568 235.663787 
L 154.177841 235.663787 
z
" style="fill:#1f77b4;opacity:0.85;"/>
   </g>
   <g id="patch_4">
    <path clip-path="url(#p7b2d176c6e)" d="M 159.250568 239.758125 
L 164.323295 239.758125 
L 164.323295 196.269614 
L 159.250568 196.269614 
z
" style="fill:#1f77b4;opacity:0.85;"/>
   </g>
   <g id="patch_5">
    <path clip-path="url(#p7b2d176c6e)" d="M 164.323295 239.758125 
L 169.396023 239.758125 
L 169.396023 128.87902 
L 164.323295 128.87902 
z
" style="fill:#1f77b4;opacity:0.85;"/>
   </g>
   <g id="patch_6">
    <path clip-path="url(#p7b2d176c6e)" d="M 169.396023 239.758125 
L 174.46875 239.758125 
L 174.46875 66.8 
L 169.396023 66.8 
z
" style="fill:#1f77b4;opacity:0.85;"/>
   </g>
   <g id="patch_7">
    <path clip-path="url(#p7b2d176c6e)" d="M 174.46875 239.758125 
L 179.541477 239.758125 
L 179.541477 37.697001 
L 174.46875 37.697001 
z
" style="fill:#1f77b4;opacity:0.85;"/>
   </g>
   <g id="patch_8">
    <path clip-path="url(#p7b2d176c6e)" d="M 179.541477 239.758125 
L 184.614205 239.758125 
L 184.614205 36.369108 
L 179.541477 36.369108 
z
" style="fill:#1f77b4;opacity:0.85;"/>
   </g>
   <g id="patch_9">
    <path clip-path="url(#p7b2d176c6e)" d="M 184.614205 239.758125 
L 189.686932 239.758125 
L 189.686932 43.229891 
L 184.614205 43.229891 
z
" style="fill:#1f77b4;opacity:0.85;"/>
   </g>
   <g id="patch_10">
    <path clip-path="url(#p7b2d176c6e)" d="M 189.686932 239.758125 
L 194.759659 239.758125 
L 194.759659 58.832639 
L 189.686932 58.832639 
z
" style="fill:#1f77b4;opacity:0.85;"/>
   </g>
   <g id="patch_11">
    <path clip-path="url(#p7b2d176c6e)" d="M 194.759659 239.758125 
L 199.832386 239.758125 
L 199.832386 94.353789 
L 194.759659 94.353789 
z
" style="fill:#1f77b4;opacity:0.85;"/>
   </g>
   <g id="patch_12">
    <path clip-path="url(#p7b2d176c6e)" d="M 199.832386 239.758125 
L 204.905114 239.758125 
L 204.905114 122.682184 
L 199.832386 122.682184 
z
" style="fill:#1f77b4;opacity:0.85;"/>
   </g>
   <g id="patch_13">
    <path clip-path="url(#p7b2d176c6e)" d="M 204.905114 239.758125 
L 209.977841 239.758125 
L 209.977841 148.90808 
L 204.905114 148.90808 
z
" style="fill:#1f77b4;opacity:0.85;"/>
   </g>
   <g id="patch_14">
    <path clip-path="url(#p7b2d176c6e)" d="M 209.977841 239.758125 
L 215.050568 239.758125 
L 215.050568 166.060037 
L 209.977841 166.060037 
z
" style="fill:#1f77b4;opacity:0.85;"/>
   </g>
   <g id="patch_15">
    <path clip-path="url(#p7b2d176c6e)" d="M 215.050568 239.758125 
L 220.123295 239.758125 
L 220.123295 187.195675 
L 215.050568 187.195675 
z
" style="fill:#1f77b4;opacity:0.85;"/>
   </g>
   <g id="patch_16">
    <path clip-path="url(#p7b2d176c6e)" d="M 220.123295 239.758125 
L 225.196023 239.758125 
L 225.196023 201.138556 
L 220.123295 201.138556 
z
" style="fill:#1f77b4;opacity:0.85;"/>
   </g>
   <g id="patch_17">
    <path clip-path="url(#p7b2d176c6e)" d="M 225.196023 239.758125 
L 230.26875 239.758125 
L 230.26875 213.97486 
L 225.196023 213.97486 
z
" style="fill:#1f77b4;opacity:0.85;"/>
   </g>
   <g id="patch_18">
    <path clip-path="url(#p7b2d176c6e)" d="M 230.26875 239.758125 
L 235.341477 239.758125 
L 235.341477 221.167616 
L 230.26875 221.167616 
z
" style="fill:#1f77b4;opacity:0.85;"/>
   </g>
   <g id="patch_19">
    <path clip-path="url(#p7b2d176c6e)" d="M 235.341477 239.758125 
L 240.414205 239.758125 
L 240.414205 228.249715 
L 235.341477 228.249715 
z
" style="fill:#1f77b4;opacity:0.85;"/>
   </g>
   <g id="patch_20">
    <path clip-path="url(#p7b2d176c6e)" d="M 240.414205 239.758125 
L 245.486932 239.758125 
L 245.486932 231.458791 
L 240.414205 231.458791 
z
" style="fill:#1f77b4;opacity:0.85;"/>
   </g>
   <g id="patch_21">
    <path clip-path="url(#p7b2d176c6e)" d="M 245.486932 239.758125 
L 250.559659 239.758125 
L 250.559659 233.008 
L 245.486932 233.008 
z
" style="fill:#1f77b4;opacity:0.85;"/>
   </g>
   <g id="patch_22">
    <path clip-path="url(#p7b2d176c6e)" d="M 250.559659 239.758125 
L 255.632386 239.758125 
L 255.632386 237.102338 
L 250.559659 237.102338 
z
" style="fill:#1f77b4;opacity:0.85;"/>
   </g>
   <g id="patch_23">
    <path clip-path="url(#p7b2d176c6e)" d="M 255.632386 239.758125 
L 260.705114 239.758125 
L 260.705114 238.319574 
L 255.632386 238.319574 
z
" style="fill:#1f77b4;opacity:0.85;"/>
   </g>
   <g id="patch_24">
    <path clip-path="url(#p7b2d176c6e)" d="M 260.705114 239.758125 
L 265.777841 239.758125 
L 265.777841 237.9876 
L 260.705114 237.9876 
z
" style="fill:#1f77b4;opacity:0.85;"/>
   </g>
   <g id="patch_25">
    <path clip-path="url(#p7b2d176c6e)" d="M 265.777841 239.758125 
L 270.850568 239.758125 
L 270.850568 238.540889 
L 265.777841 238.540889 
z
" style="fill:#1f77b4;opacity:0.85;"/>
   </g>
   <g id="patch_26">
    <path clip-path="url(#p7b2d176c6e)" d="M 270.850568 239.758125 
L 275.923295 239.758125 
L 275.923295 238.651547 
L 270.850568 238.651547 
z
" style="fill:#1f77b4;opacity:0.85;"/>
   </g>
   <g id="patch_27">
    <path clip-path="url(#p7b2d176c6e)" d="M 275.923295 239.758125 
L 280.996023 239.758125 
L 280.996023 238.98352 
L 275.923295 238.98352 
z
" style="fill:#1f77b4;opacity:0.85;"/>
   </g>
   <g id="patch_28">
    <path clip-path="url(#p7b2d176c6e)" d="M 280.996023 239.758125 
L 286.06875 239.758125 
L 286.06875 239.758125 
L 280.996023 239.758125 
z
" style="fill:#1f77b4;opacity:0.85;"/>
   </g>
   <g id="patch_29">
    <path clip-path="url(#p7b2d176c6e)" d="M 286.06875 239.758125 
L 291.141477 239.758125 
L 291.141477 239.536809 
L 286.06875 239.536809 
z
" style="fill:#1f77b4;opacity:0.85;"/>
   </g>
   <g id="patch_30">
    <path clip-path="url(#p7b2d176c6e)" d="M 291.141477 239.758125 
L 296.214205 239.758125 
L 296.214205 239.647467 
L 291.141477 239.647467 
z
" style="fill:#1f77b4;opacity:0.85;"/>
   </g>
   <g id="patch_31">
    <path clip-path="url(#p7b2d176c6e)" d="M 296.214205 239.758125 
L 301.286932 239.758125 
L 301.286932 239.758125 
L 296.214205 239.758125 
z
" style="fill:#1f77b4;opacity:0.85;"/>
   </g>
   <g id="patch_32">
    <path clip-path="url(#p7b2d176c6e)" d="M 301.286932 239.758125 
L 306.359659 239.758125 
L 306.359659 239.536809 
L 301.286932 239.536809 
z
" style="fill:#1f77b4;opacity:0.85;"/>
   </g>
   <g id="matplotlib.axis_1">
    <g id="xtick_1">
     <g id="line2d_1">
      <defs>
       <path d="M 0 0 
L 0 3.5 
" id="mfe89ae7858" style="stroke:#000000;stroke-width:0.8;"/>
      </defs>
      <g>
       <use style="stroke:#000000;stroke-width:0.8;" x="102.505791" xlink:href="#mfe89ae7858" y="239.758125"/>
      </g>
     </g>
     <g id="text_1">
      <!-- −2000 -->
      <defs>
       <path d="M 10.59375 35.5 
L 73.1875 35.5 
L 73.1875 27.203125 
L 10.59375 27.203125 
z
" id="DejaVuSans-8722"/>
       <path d="M 19.1875 8.296875 
L 53.609375 8.296875 
L 53.609375 0 
L 7.328125 0 
L 7.328125 8.296875 
Q 12.9375 14.109375 22.625 23.890625 
Q 32.328125 33.6875 34.8125 36.53125 
Q 39.546875 41.84375 41.421875 45.53125 
Q 43.3125 49.21875 43.3125 52.78125 
Q 43.3125 58.59375 39.234375 62.25 
Q 35.15625 65.921875 28.609375 65.921875 
Q 23.96875 65.921875 18.8125 64.3125 
Q 13.671875 62.703125 7.8125 59.421875 
L 7.8125 69.390625 
Q 13.765625 71.78125 18.9375 73 
Q 24.125 74.21875 28.421875 74.21875 
Q 39.75 74.21875 46.484375 68.546875 
Q 53.21875 62.890625 53.21875 53.421875 
Q 53.21875 48.921875 51.53125 44.890625 
Q 49.859375 40.875 45.40625 35.40625 
Q 44.1875 33.984375 37.640625 27.21875 
Q 31.109375 20.453125 19.1875 8.296875 
z
" id="DejaVuSans-50"/>
       <path d="M 31.78125 66.40625 
Q 24.171875 66.40625 20.328125 58.90625 
Q 16.5 51.421875 16.5 36.375 
Q 16.5 21.390625 20.328125 13.890625 
Q 24.171875 6.390625 31.78125 6.390625 
Q 39.453125 6.390625 43.28125 13.890625 
Q 47.125 21.390625 47.125 36.375 
Q 47.125 51.421875 43.28125 58.90625 
Q 39.453125 66.40625 31.78125 66.40625 
z
M 31.78125 74.21875 
Q 44.046875 74.21875 50.515625 64.515625 
Q 56.984375 54.828125 56.984375 36.375 
Q 56.984375 17.96875 50.515625 8.265625 
Q 44.046875 -1.421875 31.78125 -1.421875 
Q 19.53125 -1.421875 13.0625 8.265625 
Q 6.59375 17.96875 6.59375 36.375 
Q 6.59375 54.828125 13.0625 64.515625 
Q 19.53125 74.21875 31.78125 74.21875 
z
" id="DejaVuSans-48"/>
      </defs>
      <g transform="translate(85.590947 254.356563)scale(0.1 -0.1)">
       <use xlink:href="#DejaVuSans-8722"/>
       <use x="83.789062" xlink:href="#DejaVuSans-50"/>
       <use x="147.412109" xlink:href="#DejaVuSans-48"/>
       <use x="211.035156" xlink:href="#DejaVuSans-48"/>
       <use x="274.658203" xlink:href="#DejaVuSans-48"/>
      </g>
     </g>
    </g>
    <g id="xtick_2">
     <g id="line2d_2">
      <g>
       <use style="stroke:#000000;stroke-width:0.8;" x="146.110896" xlink:href="#mfe89ae7858" y="239.758125"/>
      </g>
     </g>
     <g id="text_2">
      <!-- 0 -->
      <g transform="translate(142.929646 254.356563)scale(0.1 -0.1)">
       <use xlink:href="#DejaVuSans-48"/>
      </g>
     </g>
    </g>
    <g id="xtick_3">
     <g id="line2d_3">
      <g>
       <use style="stroke:#000000;stroke-width:0.8;" x="189.716002" xlink:href="#mfe89ae7858" y="239.758125"/>
      </g>
     </g>
     <g id="text_3">
      <!-- 2000 -->
      <g transform="translate(176.991002 254.356563)scale(0.1 -0.1)">
       <use xlink:href="#DejaVuSans-50"/>
       <use x="63.623047" xlink:href="#DejaVuSans-48"/>
       <use x="127.246094" xlink:href="#DejaVuSans-48"/>
       <use x="190.869141" xlink:href="#DejaVuSans-48"/>
      </g>
     </g>
    </g>
    <g id="xtick_4">
     <g id="line2d_4">
      <g>
       <use style="stroke:#000000;stroke-width:0.8;" x="233.321107" xlink:href="#mfe89ae7858" y="239.758125"/>
      </g>
     </g>
     <g id="text_4">
      <!-- 4000 -->
      <defs>
       <path d="M 37.796875 64.3125 
L 12.890625 25.390625 
L 37.796875 25.390625 
z
M 35.203125 72.90625 
L 47.609375 72.90625 
L 47.609375 25.390625 
L 58.015625 25.390625 
L 58.015625 17.1875 
L 47.609375 17.1875 
L 47.609375 0 
L 37.796875 0 
L 37.796875 17.1875 
L 4.890625 17.1875 
L 4.890625 26.703125 
z
" id="DejaVuSans-52"/>
      </defs>
      <g transform="translate(220.596107 254.356563)scale(0.1 -0.1)">
       <use xlink:href="#DejaVuSans-52"/>
       <use x="63.623047" xlink:href="#DejaVuSans-48"/>
       <use x="127.246094" xlink:href="#DejaVuSans-48"/>
       <use x="190.869141" xlink:href="#DejaVuSans-48"/>
      </g>
     </g>
    </g>
    <g id="xtick_5">
     <g id="line2d_5">
      <g>
       <use style="stroke:#000000;stroke-width:0.8;" x="276.926213" xlink:href="#mfe89ae7858" y="239.758125"/>
      </g>
     </g>
     <g id="text_5">
      <!-- 6000 -->
      <defs>
       <path d="M 33.015625 40.375 
Q 26.375 40.375 22.484375 35.828125 
Q 18.609375 31.296875 18.609375 23.390625 
Q 18.609375 15.53125 22.484375 10.953125 
Q 26.375 6.390625 33.015625 6.390625 
Q 39.65625 6.390625 43.53125 10.953125 
Q 47.40625 15.53125 47.40625 23.390625 
Q 47.40625 31.296875 43.53125 35.828125 
Q 39.65625 40.375 33.015625 40.375 
z
M 52.59375 71.296875 
L 52.59375 62.3125 
Q 48.875 64.0625 45.09375 64.984375 
Q 41.3125 65.921875 37.59375 65.921875 
Q 27.828125 65.921875 22.671875 59.328125 
Q 17.53125 52.734375 16.796875 39.40625 
Q 19.671875 43.65625 24.015625 45.921875 
Q 28.375 48.1875 33.59375 48.1875 
Q 44.578125 48.1875 50.953125 41.515625 
Q 57.328125 34.859375 57.328125 23.390625 
Q 57.328125 12.15625 50.6875 5.359375 
Q 44.046875 -1.421875 33.015625 -1.421875 
Q 20.359375 -1.421875 13.671875 8.265625 
Q 6.984375 17.96875 6.984375 36.375 
Q 6.984375 53.65625 15.1875 63.9375 
Q 23.390625 74.21875 37.203125 74.21875 
Q 40.921875 74.21875 44.703125 73.484375 
Q 48.484375 72.75 52.59375 71.296875 
z
" id="DejaVuSans-54"/>
      </defs>
      <g transform="translate(264.201213 254.356563)scale(0.1 -0.1)">
       <use xlink:href="#DejaVuSans-54"/>
       <use x="63.623047" xlink:href="#DejaVuSans-48"/>
       <use x="127.246094" xlink:href="#DejaVuSans-48"/>
       <use x="190.869141" xlink:href="#DejaVuSans-48"/>
      </g>
     </g>
    </g>
    <g id="xtick_6">
     <g id="line2d_6">
      <g>
       <use style="stroke:#000000;stroke-width:0.8;" x="320.531318" xlink:href="#mfe89ae7858" y="239.758125"/>
      </g>
     </g>
     <g id="text_6">
      <!-- 8000 -->
      <defs>
       <path d="M 31.78125 34.625 
Q 24.75 34.625 20.71875 30.859375 
Q 16.703125 27.09375 16.703125 20.515625 
Q 16.703125 13.921875 20.71875 10.15625 
Q 24.75 6.390625 31.78125 6.390625 
Q 38.8125 6.390625 42.859375 10.171875 
Q 46.921875 13.96875 46.921875 20.515625 
Q 46.921875 27.09375 42.890625 30.859375 
Q 38.875 34.625 31.78125 34.625 
z
M 21.921875 38.8125 
Q 15.578125 40.375 12.03125 44.71875 
Q 8.5 49.078125 8.5 55.328125 
Q 8.5 64.0625 14.71875 69.140625 
Q 20.953125 74.21875 31.78125 74.21875 
Q 42.671875 74.21875 48.875 69.140625 
Q 55.078125 64.0625 55.078125 55.328125 
Q 55.078125 49.078125 51.53125 44.71875 
Q 48 40.375 41.703125 38.8125 
Q 48.828125 37.15625 52.796875 32.3125 
Q 56.78125 27.484375 56.78125 20.515625 
Q 56.78125 9.90625 50.3125 4.234375 
Q 43.84375 -1.421875 31.78125 -1.421875 
Q 19.734375 -1.421875 13.25 4.234375 
Q 6.78125 9.90625 6.78125 20.515625 
Q 6.78125 27.484375 10.78125 32.3125 
Q 14.796875 37.15625 21.921875 38.8125 
z
M 18.3125 54.390625 
Q 18.3125 48.734375 21.84375 45.5625 
Q 25.390625 42.390625 31.78125 42.390625 
Q 38.140625 42.390625 41.71875 45.5625 
Q 45.3125 48.734375 45.3125 54.390625 
Q 45.3125 60.0625 41.71875 63.234375 
Q 38.140625 66.40625 31.78125 66.40625 
Q 25.390625 66.40625 21.84375 63.234375 
Q 18.3125 60.0625 18.3125 54.390625 
z
" id="DejaVuSans-56"/>
      </defs>
      <g transform="translate(307.806318 254.356563)scale(0.1 -0.1)">
       <use xlink:href="#DejaVuSans-56"/>
       <use x="63.623047" xlink:href="#DejaVuSans-48"/>
       <use x="127.246094" xlink:href="#DejaVuSans-48"/>
       <use x="190.869141" xlink:href="#DejaVuSans-48"/>
      </g>
     </g>
    </g>
    <g id="xtick_7">
     <g id="line2d_7">
      <g>
       <use style="stroke:#000000;stroke-width:0.8;" x="364.136424" xlink:href="#mfe89ae7858" y="239.758125"/>
      </g>
     </g>
     <g id="text_7">
      <!-- 10000 -->
      <defs>
       <path d="M 12.40625 8.296875 
L 28.515625 8.296875 
L 28.515625 63.921875 
L 10.984375 60.40625 
L 10.984375 69.390625 
L 28.421875 72.90625 
L 38.28125 72.90625 
L 38.28125 8.296875 
L 54.390625 8.296875 
L 54.390625 0 
L 12.40625 0 
z
" id="DejaVuSans-49"/>
      </defs>
      <g transform="translate(348.230174 254.356563)scale(0.1 -0.1)">
       <use xlink:href="#DejaVuSans-49"/>
       <use x="63.623047" xlink:href="#DejaVuSans-48"/>
       <use x="127.246094" xlink:href="#DejaVuSans-48"/>
       <use x="190.869141" xlink:href="#DejaVuSans-48"/>
       <use x="254.492188" xlink:href="#DejaVuSans-48"/>
      </g>
     </g>
    </g>
   </g>
   <g id="matplotlib.axis_2">
    <g id="ytick_1">
     <g id="line2d_8">
      <defs>
       <path d="M 0 0 
L -3.5 0 
" id="m5fa1d13ac8" style="stroke:#000000;stroke-width:0.8;"/>
      </defs>
      <g>
       <use style="stroke:#000000;stroke-width:0.8;" x="62.86875" xlink:href="#m5fa1d13ac8" y="239.758125"/>
      </g>
     </g>
     <g id="text_8">
      <!-- 0.0000 -->
      <defs>
       <path d="M 10.6875 12.40625 
L 21 12.40625 
L 21 0 
L 10.6875 0 
z
" id="DejaVuSans-46"/>
      </defs>
      <g transform="translate(20.878125 243.557344)scale(0.1 -0.1)">
       <use xlink:href="#DejaVuSans-48"/>
       <use x="63.623047" xlink:href="#DejaVuSans-46"/>
       <use x="95.410156" xlink:href="#DejaVuSans-48"/>
       <use x="159.033203" xlink:href="#DejaVuSans-48"/>
       <use x="222.65625" xlink:href="#DejaVuSans-48"/>
       <use x="286.279297" xlink:href="#DejaVuSans-48"/>
      </g>
     </g>
    </g>
    <g id="ytick_2">
     <g id="line2d_9">
      <g>
       <use style="stroke:#000000;stroke-width:0.8;" x="62.86875" xlink:href="#m5fa1d13ac8" y="199.90273"/>
      </g>
     </g>
     <g id="text_9">
      <!-- 0.0001 -->
      <g transform="translate(20.878125 203.701949)scale(0.1 -0.1)">
       <use xlink:href="#DejaVuSans-48"/>
       <use x="63.623047" xlink:href="#DejaVuSans-46"/>
       <use x="95.410156" xlink:href="#DejaVuSans-48"/>
       <use x="159.033203" xlink:href="#DejaVuSans-48"/>
       <use x="222.65625" xlink:href="#DejaVuSans-48"/>
       <use x="286.279297" xlink:href="#DejaVuSans-49"/>
      </g>
     </g>
    </g>
    <g id="ytick_3">
     <g id="line2d_10">
      <g>
       <use style="stroke:#000000;stroke-width:0.8;" x="62.86875" xlink:href="#m5fa1d13ac8" y="160.047335"/>
      </g>
     </g>
     <g id="text_10">
      <!-- 0.0002 -->
      <g transform="translate(20.878125 163.846554)scale(0.1 -0.1)">
       <use xlink:href="#DejaVuSans-48"/>
       <use x="63.623047" xlink:href="#DejaVuSans-46"/>
       <use x="95.410156" xlink:href="#DejaVuSans-48"/>
       <use x="159.033203" xlink:href="#DejaVuSans-48"/>
       <use x="222.65625" xlink:href="#DejaVuSans-48"/>
       <use x="286.279297" xlink:href="#DejaVuSans-50"/>
      </g>
     </g>
    </g>
    <g id="ytick_4">
     <g id="line2d_11">
      <g>
       <use style="stroke:#000000;stroke-width:0.8;" x="62.86875" xlink:href="#m5fa1d13ac8" y="120.191941"/>
      </g>
     </g>
     <g id="text_11">
      <!-- 0.0003 -->
      <defs>
       <path d="M 40.578125 39.3125 
Q 47.65625 37.796875 51.625 33 
Q 55.609375 28.21875 55.609375 21.1875 
Q 55.609375 10.40625 48.1875 4.484375 
Q 40.765625 -1.421875 27.09375 -1.421875 
Q 22.515625 -1.421875 17.65625 -0.515625 
Q 12.796875 0.390625 7.625 2.203125 
L 7.625 11.71875 
Q 11.71875 9.328125 16.59375 8.109375 
Q 21.484375 6.890625 26.8125 6.890625 
Q 36.078125 6.890625 40.9375 10.546875 
Q 45.796875 14.203125 45.796875 21.1875 
Q 45.796875 27.640625 41.28125 31.265625 
Q 36.765625 34.90625 28.71875 34.90625 
L 20.21875 34.90625 
L 20.21875 43.015625 
L 29.109375 43.015625 
Q 36.375 43.015625 40.234375 45.921875 
Q 44.09375 48.828125 44.09375 54.296875 
Q 44.09375 59.90625 40.109375 62.90625 
Q 36.140625 65.921875 28.71875 65.921875 
Q 24.65625 65.921875 20.015625 65.03125 
Q 15.375 64.15625 9.8125 62.3125 
L 9.8125 71.09375 
Q 15.4375 72.65625 20.34375 73.4375 
Q 25.25 74.21875 29.59375 74.21875 
Q 40.828125 74.21875 47.359375 69.109375 
Q 53.90625 64.015625 53.90625 55.328125 
Q 53.90625 49.265625 50.4375 45.09375 
Q 46.96875 40.921875 40.578125 39.3125 
z
" id="DejaVuSans-51"/>
      </defs>
      <g transform="translate(20.878125 123.991159)scale(0.1 -0.1)">
       <use xlink:href="#DejaVuSans-48"/>
       <use x="63.623047" xlink:href="#DejaVuSans-46"/>
       <use x="95.410156" xlink:href="#DejaVuSans-48"/>
       <use x="159.033203" xlink:href="#DejaVuSans-48"/>
       <use x="222.65625" xlink:href="#DejaVuSans-48"/>
       <use x="286.279297" xlink:href="#DejaVuSans-51"/>
      </g>
     </g>
    </g>
    <g id="ytick_5">
     <g id="line2d_12">
      <g>
       <use style="stroke:#000000;stroke-width:0.8;" x="62.86875" xlink:href="#m5fa1d13ac8" y="80.336546"/>
      </g>
     </g>
     <g id="text_12">
      <!-- 0.0004 -->
      <g transform="translate(20.878125 84.135765)scale(0.1 -0.1)">
       <use xlink:href="#DejaVuSans-48"/>
       <use x="63.623047" xlink:href="#DejaVuSans-46"/>
       <use x="95.410156" xlink:href="#DejaVuSans-48"/>
       <use x="159.033203" xlink:href="#DejaVuSans-48"/>
       <use x="222.65625" xlink:href="#DejaVuSans-48"/>
       <use x="286.279297" xlink:href="#DejaVuSans-52"/>
      </g>
     </g>
    </g>
    <g id="ytick_6">
     <g id="line2d_13">
      <g>
       <use style="stroke:#000000;stroke-width:0.8;" x="62.86875" xlink:href="#m5fa1d13ac8" y="40.481151"/>
      </g>
     </g>
     <g id="text_13">
      <!-- 0.0005 -->
      <defs>
       <path d="M 10.796875 72.90625 
L 49.515625 72.90625 
L 49.515625 64.59375 
L 19.828125 64.59375 
L 19.828125 46.734375 
Q 21.96875 47.46875 24.109375 47.828125 
Q 26.265625 48.1875 28.421875 48.1875 
Q 40.625 48.1875 47.75 41.5 
Q 54.890625 34.8125 54.890625 23.390625 
Q 54.890625 11.625 47.5625 5.09375 
Q 40.234375 -1.421875 26.90625 -1.421875 
Q 22.3125 -1.421875 17.546875 -0.640625 
Q 12.796875 0.140625 7.71875 1.703125 
L 7.71875 11.625 
Q 12.109375 9.234375 16.796875 8.0625 
Q 21.484375 6.890625 26.703125 6.890625 
Q 35.15625 6.890625 40.078125 11.328125 
Q 45.015625 15.765625 45.015625 23.390625 
Q 45.015625 31 40.078125 35.4375 
Q 35.15625 39.890625 26.703125 39.890625 
Q 22.75 39.890625 18.8125 39.015625 
Q 14.890625 38.140625 10.796875 36.28125 
z
" id="DejaVuSans-53"/>
      </defs>
      <g transform="translate(20.878125 44.28037)scale(0.1 -0.1)">
       <use xlink:href="#DejaVuSans-48"/>
       <use x="63.623047" xlink:href="#DejaVuSans-46"/>
       <use x="95.410156" xlink:href="#DejaVuSans-48"/>
       <use x="159.033203" xlink:href="#DejaVuSans-48"/>
       <use x="222.65625" xlink:href="#DejaVuSans-48"/>
       <use x="286.279297" xlink:href="#DejaVuSans-53"/>
      </g>
     </g>
    </g>
    <g id="text_14">
     <!-- Density -->
     <defs>
      <path d="M 19.671875 64.796875 
L 19.671875 8.109375 
L 31.59375 8.109375 
Q 46.6875 8.109375 53.6875 14.9375 
Q 60.6875 21.78125 60.6875 36.53125 
Q 60.6875 51.171875 53.6875 57.984375 
Q 46.6875 64.796875 31.59375 64.796875 
z
M 9.8125 72.90625 
L 30.078125 72.90625 
Q 51.265625 72.90625 61.171875 64.09375 
Q 71.09375 55.28125 71.09375 36.53125 
Q 71.09375 17.671875 61.125 8.828125 
Q 51.171875 0 30.078125 0 
L 9.8125 0 
z
" id="DejaVuSans-68"/>
      <path d="M 56.203125 29.59375 
L 56.203125 25.203125 
L 14.890625 25.203125 
Q 15.484375 15.921875 20.484375 11.0625 
Q 25.484375 6.203125 34.421875 6.203125 
Q 39.59375 6.203125 44.453125 7.46875 
Q 49.3125 8.734375 54.109375 11.28125 
L 54.109375 2.78125 
Q 49.265625 0.734375 44.1875 -0.34375 
Q 39.109375 -1.421875 33.890625 -1.421875 
Q 20.796875 -1.421875 13.15625 6.1875 
Q 5.515625 13.8125 5.515625 26.8125 
Q 5.515625 40.234375 12.765625 48.109375 
Q 20.015625 56 32.328125 56 
Q 43.359375 56 49.78125 48.890625 
Q 56.203125 41.796875 56.203125 29.59375 
z
M 47.21875 32.234375 
Q 47.125 39.59375 43.09375 43.984375 
Q 39.0625 48.390625 32.421875 48.390625 
Q 24.90625 48.390625 20.390625 44.140625 
Q 15.875 39.890625 15.1875 32.171875 
z
" id="DejaVuSans-101"/>
      <path d="M 54.890625 33.015625 
L 54.890625 0 
L 45.90625 0 
L 45.90625 32.71875 
Q 45.90625 40.484375 42.875 44.328125 
Q 39.84375 48.1875 33.796875 48.1875 
Q 26.515625 48.1875 22.3125 43.546875 
Q 18.109375 38.921875 18.109375 30.90625 
L 18.109375 0 
L 9.078125 0 
L 9.078125 54.6875 
L 18.109375 54.6875 
L 18.109375 46.1875 
Q 21.34375 51.125 25.703125 53.5625 
Q 30.078125 56 35.796875 56 
Q 45.21875 56 50.046875 50.171875 
Q 54.890625 44.34375 54.890625 33.015625 
z
" id="DejaVuSans-110"/>
      <path d="M 44.28125 53.078125 
L 44.28125 44.578125 
Q 40.484375 46.53125 36.375 47.5 
Q 32.28125 48.484375 27.875 48.484375 
Q 21.1875 48.484375 17.84375 46.4375 
Q 14.5 44.390625 14.5 40.28125 
Q 14.5 37.15625 16.890625 35.375 
Q 19.28125 33.59375 26.515625 31.984375 
L 29.59375 31.296875 
Q 39.15625 29.25 43.1875 25.515625 
Q 47.21875 21.78125 47.21875 15.09375 
Q 47.21875 7.46875 41.1875 3.015625 
Q 35.15625 -1.421875 24.609375 -1.421875 
Q 20.21875 -1.421875 15.453125 -0.5625 
Q 10.6875 0.296875 5.421875 2 
L 5.421875 11.28125 
Q 10.40625 8.6875 15.234375 7.390625 
Q 20.0625 6.109375 24.8125 6.109375 
Q 31.15625 6.109375 34.5625 8.28125 
Q 37.984375 10.453125 37.984375 14.40625 
Q 37.984375 18.0625 35.515625 20.015625 
Q 33.0625 21.96875 24.703125 23.78125 
L 21.578125 24.515625 
Q 13.234375 26.265625 9.515625 29.90625 
Q 5.8125 33.546875 5.8125 39.890625 
Q 5.8125 47.609375 11.28125 51.796875 
Q 16.75 56 26.8125 56 
Q 31.78125 56 36.171875 55.265625 
Q 40.578125 54.546875 44.28125 53.078125 
z
" id="DejaVuSans-115"/>
      <path d="M 9.421875 54.6875 
L 18.40625 54.6875 
L 18.40625 0 
L 9.421875 0 
z
M 9.421875 75.984375 
L 18.40625 75.984375 
L 18.40625 64.59375 
L 9.421875 64.59375 
z
" id="DejaVuSans-105"/>
      <path d="M 18.3125 70.21875 
L 18.3125 54.6875 
L 36.8125 54.6875 
L 36.8125 47.703125 
L 18.3125 47.703125 
L 18.3125 18.015625 
Q 18.3125 11.328125 20.140625 9.421875 
Q 21.96875 7.515625 27.59375 7.515625 
L 36.8125 7.515625 
L 36.8125 0 
L 27.59375 0 
Q 17.1875 0 13.234375 3.875 
Q 9.28125 7.765625 9.28125 18.015625 
L 9.28125 47.703125 
L 2.6875 47.703125 
L 2.6875 54.6875 
L 9.28125 54.6875 
L 9.28125 70.21875 
z
" id="DejaVuSans-116"/>
      <path d="M 32.171875 -5.078125 
Q 28.375 -14.84375 24.75 -17.8125 
Q 21.140625 -20.796875 15.09375 -20.796875 
L 7.90625 -20.796875 
L 7.90625 -13.28125 
L 13.1875 -13.28125 
Q 16.890625 -13.28125 18.9375 -11.515625 
Q 21 -9.765625 23.484375 -3.21875 
L 25.09375 0.875 
L 2.984375 54.6875 
L 12.5 54.6875 
L 29.59375 11.921875 
L 46.6875 54.6875 
L 56.203125 54.6875 
z
" id="DejaVuSans-121"/>
     </defs>
     <g transform="translate(14.798438 150.046719)rotate(-90)scale(0.1 -0.1)">
      <use xlink:href="#DejaVuSans-68"/>
      <use x="77.001953" xlink:href="#DejaVuSans-101"/>
      <use x="138.525391" xlink:href="#DejaVuSans-110"/>
      <use x="201.904297" xlink:href="#DejaVuSans-115"/>
      <use x="254.003906" xlink:href="#DejaVuSans-105"/>
      <use x="281.787109" xlink:href="#DejaVuSans-116"/>
      <use x="320.996094" xlink:href="#DejaVuSans-121"/>
     </g>
    </g>
   </g>
   <g id="line2d_14">
    <path clip-path="url(#p7b2d176c6e)" d="M 78.086932 239.758125 
L 149.379315 239.663694 
L 150.902657 239.449684 
L 152.12133 239.07692 
L 153.035335 238.607719 
L 153.94934 237.896706 
L 154.863345 236.82696 
L 155.472681 235.826637 
L 156.082018 234.511846 
L 156.691354 232.793418 
L 157.300691 230.57381 
L 158.214696 226.100095 
L 159.128701 220.049114 
L 160.042706 212.363043 
L 161.261379 199.891196 
L 163.089389 178.209602 
L 169.792092 96.017087 
L 172.229438 69.698321 
L 173.752779 55.720446 
L 174.666784 48.939629 
L 175.580789 43.544196 
L 176.494794 39.495741 
L 177.408799 36.644379 
L 178.018136 35.30474 
L 178.627472 34.330328 
L 179.236809 33.646327 
L 180.150814 33.015224 
L 181.064819 32.715055 
L 181.978824 32.704278 
L 182.58816 32.899097 
L 183.197497 33.311599 
L 183.806834 33.994867 
L 184.41617 34.991618 
L 185.330175 37.111941 
L 186.24418 39.923112 
L 187.767521 45.612603 
L 190.204868 55.642212 
L 191.728209 62.81753 
L 193.251551 71.200001 
L 196.298234 88.491414 
L 203.000937 123.568008 
L 206.656956 144.016623 
L 208.180298 151.376261 
L 209.703639 157.736644 
L 211.531649 164.456397 
L 220.671698 195.833932 
L 223.109045 202.727556 
L 224.937055 207.353097 
L 226.765064 211.311667 
L 229.811748 217.235515 
L 231.639757 220.287874 
L 233.467767 222.864662 
L 235.295777 225.10729 
L 236.51445 226.334786 
L 237.733123 227.291418 
L 239.561133 228.400933 
L 241.693811 229.745709 
L 245.959168 232.637313 
L 248.701182 234.409441 
L 251.138529 236.0331 
L 252.66187 236.77793 
L 254.48988 237.413967 
L 256.622558 237.910085 
L 258.450568 238.095023 
L 262.106588 238.12686 
L 266.371944 238.297 
L 276.12133 238.905859 
L 281.605359 239.445151 
L 284.347374 239.646111 
L 287.698725 239.597226 
L 291.354745 239.63895 
L 296.229438 239.657414 
L 309.025507 239.705932 
L 316.946883 239.758097 
L 382.450568 239.758125 
L 382.450568 239.758125 
" style="fill:none;stroke:#ff7f0e;stroke-linecap:square;stroke-width:1.5;"/>
   </g>
   <g id="patch_33">
    <path d="M 62.86875 239.758125 
L 62.86875 22.318125 
" style="fill:none;stroke:#000000;stroke-linecap:square;stroke-linejoin:miter;stroke-width:0.8;"/>
   </g>
   <g id="patch_34">
    <path d="M 397.66875 239.758125 
L 397.66875 22.318125 
" style="fill:none;stroke:#000000;stroke-linecap:square;stroke-linejoin:miter;stroke-width:0.8;"/>
   </g>
   <g id="patch_35">
    <path d="M 62.86875 239.758125 
L 397.66875 239.758125 
" style="fill:none;stroke:#000000;stroke-linecap:square;stroke-linejoin:miter;stroke-width:0.8;"/>
   </g>
   <g id="patch_36">
    <path d="M 62.86875 22.318125 
L 397.66875 22.318125 
" style="fill:none;stroke:#000000;stroke-linecap:square;stroke-linejoin:miter;stroke-width:0.8;"/>
   </g>
   <g id="text_15">
    <!-- sqft_living -->
    <defs>
     <path d="M 14.796875 27.296875 
Q 14.796875 17.390625 18.875 11.75 
Q 22.953125 6.109375 30.078125 6.109375 
Q 37.203125 6.109375 41.296875 11.75 
Q 45.40625 17.390625 45.40625 27.296875 
Q 45.40625 37.203125 41.296875 42.84375 
Q 37.203125 48.484375 30.078125 48.484375 
Q 22.953125 48.484375 18.875 42.84375 
Q 14.796875 37.203125 14.796875 27.296875 
z
M 45.40625 8.203125 
Q 42.578125 3.328125 38.25 0.953125 
Q 33.9375 -1.421875 27.875 -1.421875 
Q 17.96875 -1.421875 11.734375 6.484375 
Q 5.515625 14.40625 5.515625 27.296875 
Q 5.515625 40.1875 11.734375 48.09375 
Q 17.96875 56 27.875 56 
Q 33.9375 56 38.25 53.625 
Q 42.578125 51.265625 45.40625 46.390625 
L 45.40625 54.6875 
L 54.390625 54.6875 
L 54.390625 -20.796875 
L 45.40625 -20.796875 
z
" id="DejaVuSans-113"/>
     <path d="M 37.109375 75.984375 
L 37.109375 68.5 
L 28.515625 68.5 
Q 23.6875 68.5 21.796875 66.546875 
Q 19.921875 64.59375 19.921875 59.515625 
L 19.921875 54.6875 
L 34.71875 54.6875 
L 34.71875 47.703125 
L 19.921875 47.703125 
L 19.921875 0 
L 10.890625 0 
L 10.890625 47.703125 
L 2.296875 47.703125 
L 2.296875 54.6875 
L 10.890625 54.6875 
L 10.890625 58.5 
Q 10.890625 67.625 15.140625 71.796875 
Q 19.390625 75.984375 28.609375 75.984375 
z
" id="DejaVuSans-102"/>
     <path d="M 50.984375 -16.609375 
L 50.984375 -23.578125 
L -0.984375 -23.578125 
L -0.984375 -16.609375 
z
" id="DejaVuSans-95"/>
     <path d="M 9.421875 75.984375 
L 18.40625 75.984375 
L 18.40625 0 
L 9.421875 0 
z
" id="DejaVuSans-108"/>
     <path d="M 2.984375 54.6875 
L 12.5 54.6875 
L 29.59375 8.796875 
L 46.6875 54.6875 
L 56.203125 54.6875 
L 35.6875 0 
L 23.484375 0 
z
" id="DejaVuSans-118"/>
     <path d="M 45.40625 27.984375 
Q 45.40625 37.75 41.375 43.109375 
Q 37.359375 48.484375 30.078125 48.484375 
Q 22.859375 48.484375 18.828125 43.109375 
Q 14.796875 37.75 14.796875 27.984375 
Q 14.796875 18.265625 18.828125 12.890625 
Q 22.859375 7.515625 30.078125 7.515625 
Q 37.359375 7.515625 41.375 12.890625 
Q 45.40625 18.265625 45.40625 27.984375 
z
M 54.390625 6.78125 
Q 54.390625 -7.171875 48.1875 -13.984375 
Q 42 -20.796875 29.203125 -20.796875 
Q 24.46875 -20.796875 20.265625 -20.09375 
Q 16.0625 -19.390625 12.109375 -17.921875 
L 12.109375 -9.1875 
Q 16.0625 -11.328125 19.921875 -12.34375 
Q 23.78125 -13.375 27.78125 -13.375 
Q 36.625 -13.375 41.015625 -8.765625 
Q 45.40625 -4.15625 45.40625 5.171875 
L 45.40625 9.625 
Q 42.625 4.78125 38.28125 2.390625 
Q 33.9375 0 27.875 0 
Q 17.828125 0 11.671875 7.65625 
Q 5.515625 15.328125 5.515625 27.984375 
Q 5.515625 40.671875 11.671875 48.328125 
Q 17.828125 56 27.875 56 
Q 33.9375 56 38.28125 53.609375 
Q 42.625 51.21875 45.40625 46.390625 
L 45.40625 54.6875 
L 54.390625 54.6875 
z
" id="DejaVuSans-103"/>
    </defs>
    <g transform="translate(199.81125 16.318125)scale(0.12 -0.12)">
     <use xlink:href="#DejaVuSans-115"/>
     <use x="52.099609" xlink:href="#DejaVuSans-113"/>
     <use x="115.576172" xlink:href="#DejaVuSans-102"/>
     <use x="149.03125" xlink:href="#DejaVuSans-116"/>
     <use x="188.240234" xlink:href="#DejaVuSans-95"/>
     <use x="238.240234" xlink:href="#DejaVuSans-108"/>
     <use x="266.023438" xlink:href="#DejaVuSans-105"/>
     <use x="293.806641" xlink:href="#DejaVuSans-118"/>
     <use x="352.986328" xlink:href="#DejaVuSans-105"/>
     <use x="380.769531" xlink:href="#DejaVuSans-110"/>
     <use x="444.148438" xlink:href="#DejaVuSans-103"/>
    </g>
   </g>
   <g id="legend_1">
    <g id="patch_37">
     <path d="M 307.90625 60.230625 
L 390.66875 60.230625 
Q 392.66875 60.230625 392.66875 58.230625 
L 392.66875 29.318125 
Q 392.66875 27.318125 390.66875 27.318125 
L 307.90625 27.318125 
Q 305.90625 27.318125 305.90625 29.318125 
L 305.90625 58.230625 
Q 305.90625 60.230625 307.90625 60.230625 
z
" style="fill:#ffffff;opacity:0.8;stroke:#cccccc;stroke-linejoin:miter;"/>
    </g>
    <g id="line2d_15">
     <path d="M 309.90625 35.416562 
L 329.90625 35.416562 
" style="fill:none;stroke:#ff7f0e;stroke-linecap:square;stroke-width:1.5;"/>
    </g>
    <g id="line2d_16"/>
    <g id="text_16">
     <!-- sqft_living -->
     <g transform="translate(337.90625 38.916562)scale(0.1 -0.1)">
      <use xlink:href="#DejaVuSans-115"/>
      <use x="52.099609" xlink:href="#DejaVuSans-113"/>
      <use x="115.576172" xlink:href="#DejaVuSans-102"/>
      <use x="149.03125" xlink:href="#DejaVuSans-116"/>
      <use x="188.240234" xlink:href="#DejaVuSans-95"/>
      <use x="238.240234" xlink:href="#DejaVuSans-108"/>
      <use x="266.023438" xlink:href="#DejaVuSans-105"/>
      <use x="293.806641" xlink:href="#DejaVuSans-118"/>
      <use x="352.986328" xlink:href="#DejaVuSans-105"/>
      <use x="380.769531" xlink:href="#DejaVuSans-110"/>
      <use x="444.148438" xlink:href="#DejaVuSans-103"/>
     </g>
    </g>
    <g id="patch_38">
     <path d="M 309.90625 53.872813 
L 329.90625 53.872813 
L 329.90625 46.872813 
L 309.90625 46.872813 
z
" style="fill:#1f77b4;opacity:0.85;"/>
    </g>
    <g id="text_17">
     <!-- sqft_living -->
     <g transform="translate(337.90625 53.872813)scale(0.1 -0.1)">
      <use xlink:href="#DejaVuSans-115"/>
      <use x="52.099609" xlink:href="#DejaVuSans-113"/>
      <use x="115.576172" xlink:href="#DejaVuSans-102"/>
      <use x="149.03125" xlink:href="#DejaVuSans-116"/>
      <use x="188.240234" xlink:href="#DejaVuSans-95"/>
      <use x="238.240234" xlink:href="#DejaVuSans-108"/>
      <use x="266.023438" xlink:href="#DejaVuSans-105"/>
      <use x="293.806641" xlink:href="#DejaVuSans-118"/>
      <use x="352.986328" xlink:href="#DejaVuSans-105"/>
      <use x="380.769531" xlink:href="#DejaVuSans-110"/>
      <use x="444.148438" xlink:href="#DejaVuSans-103"/>
     </g>
    </g>
   </g>
  </g>
 </g>
 <defs>
  <clipPath id="p7b2d176c6e">
   <rect height="217.44" width="334.8" x="62.86875" y="22.318125"/>
  </clipPath>
 </defs>
</svg>
